<svg width="24" height="24" viewBox="0 0 24 24" fill="none" xmlns="http://www.w3.org/2000/svg">
<g clip-path="url(#clip0_1450_14693)">
<path d="M16.5078 21.0352C18.8305 21.0352 20.7134 19.1523 20.7134 16.8296C20.7134 14.5069 18.8305 12.624 16.5078 12.624C14.1851 12.624 12.3022 14.5069 12.3022 16.8296C12.3022 19.1523 14.1851 21.0352 16.5078 21.0352Z" stroke="#099DFD" stroke-width="1.2" stroke-linecap="round" stroke-linejoin="round"/>
<path d="M19.2831 14.0229L13.6694 19.6366" stroke="#099DFD" stroke-width="1.2" stroke-linecap="square"/>
<path fill-rule="evenodd" clip-rule="evenodd" d="M7.84619 7.43283C7.84619 8.90976 8.63413 10.2745 9.91319 11.013C11.1923 11.7514 12.7681 11.7514 14.0472 11.013C15.3263 10.2745 16.1142 8.90976 16.1142 7.43283C16.1142 5.14968 14.2633 3.29883 11.9802 3.29883C9.69705 3.29883 7.84619 5.14968 7.84619 7.43283Z" stroke="#099DFD" stroke-width="1.2" stroke-linecap="round"/>
<path d="M11.4752 20.4825C10.4609 20.4825 8.9394 20.4825 6.91078 20.4825C5.24156 20.4825 3.88599 19.2674 3.88599 17.7713C3.88599 14.4852 6.63453 11.7734 10.1829 11.3823" stroke="#099DFD" stroke-width="1.2" stroke-linecap="round"/>
</g>
<defs>
<clipPath id="clip0_1450_14693">
<rect width="24" height="24" fill="white"/>
</clipPath>
</defs>
</svg>
