<svg width="32" height="32" viewBox="0 0 32 32" fill="none" xmlns="http://www.w3.org/2000/svg">
<path fill-rule="evenodd" clip-rule="evenodd" d="M4 6C4 4.89543 4.89543 4 6 4H11.9998C11.9999 4 12.0001 4 12.0002 4H18.9998C18.9999 4 19.0001 4 19.0002 4H26C27.1046 4 28 4.89543 28 6V12.999C28 12.9997 28 13.0003 28 13.001V19.999C28 19.9997 28 20.0003 28 20.001V26C28 27.1046 27.1046 28 26 28H6C4.89543 28 4 27.1046 4 26V19.0002C4 19.0001 4 18.9999 4 18.9998V12.0002C4 12.0001 4 11.9999 4 11.9998V6ZM6 12.4142V16.5858L11.2433 11.3425C11.5607 10.9304 11.9304 10.5607 12.3425 10.2433L16.5858 6H12.4142L6 12.4142ZM9.58579 6L6 9.58579V6H9.58579ZM19.4142 6L16.401 9.01319C17.7945 9.10514 19.0579 9.6728 20.0305 10.5553L24.5858 6H19.4142ZM26 7.41421L21.2752 12.139C21.7374 12.9894 22 13.964 22 15C22 15.6601 21.8934 16.2953 21.6965 16.8893L26 12.5858V7.41421ZM26 15.4142L21.2577 20.1565C21.857 20.4374 22.4303 20.7677 22.9695 21.1452C23.2583 21.3473 23.5351 21.5615 23.7991 21.7867L26 19.5858V15.4142ZM26 22.4142L25.1907 23.2235C25.4903 23.5998 25.7609 23.9949 26 24.406V22.4142ZM24.5795 26C23.9981 24.76 23.058 23.6484 21.8226 22.7836C20.1822 21.6354 18.1294 21 16 21C13.8706 21 11.8178 21.6354 10.1774 22.7836C8.94201 23.6484 8.00194 24.76 7.4205 26H24.5795ZM11.1093 18.4765C10.4834 17.5977 10.0886 16.543 10.0132 15.401L6 19.4142V23.5858L11.1093 18.4765ZM12.7589 12.6553C12.2815 13.3141 12 14.1242 12 15C12 17.2091 13.7909 19 16 19C18.2091 19 20 17.2091 20 15C20 14.1079 19.708 13.2841 19.2143 12.6188C19.2044 12.6062 19.1947 12.5934 19.1855 12.5804C18.4548 11.62 17.2998 11 16 11C15.1242 11 14.3141 11.2815 13.6553 11.7589L12.7589 12.6553Z" fill="white"/>
</svg>
