<svg width="32" height="32" viewBox="0 0 32 32" fill="none" xmlns="http://www.w3.org/2000/svg">
<path d="M24.4039 4.37873C24.2777 3.87376 23.56 3.87376 23.4338 4.37873L22.9854 6.17217C22.944 6.33802 22.8207 6.47118 22.6585 6.52524L21.3419 6.96411C20.886 7.11606 20.886 7.76084 21.3419 7.91279L22.6585 8.35165C22.8207 8.40571 22.944 8.53888 22.9854 8.70473L23.4338 10.4982C23.56 11.0031 24.2777 11.0031 24.4039 10.4982L24.8523 8.70473C24.8938 8.53888 25.0171 8.40571 25.1793 8.35165L26.4958 7.91279C26.9517 7.76084 26.9517 7.11606 26.4958 6.96411L25.1793 6.52524C25.0171 6.47118 24.8938 6.33802 24.8523 6.17217L24.4039 4.37873Z" fill="white"/>
<path fill-rule="evenodd" clip-rule="evenodd" d="M12.3411 21.6418C12.5389 21.2779 12.9943 21.1432 13.3582 21.3411C14.5466 21.9872 15.3542 22.2497 16.0804 22.25C16.7974 22.2503 17.5459 21.9945 18.6156 21.356C18.9713 21.1437 19.4317 21.2599 19.644 21.6156C19.8563 21.9713 19.7401 22.4317 19.3844 22.644C18.2178 23.3403 17.1912 23.7504 16.0798 23.75C14.9775 23.7496 13.9031 23.3447 12.6418 22.6589C12.2779 22.4611 12.1432 22.0057 12.3411 21.6418Z" fill="white"/>
<path fill-rule="evenodd" clip-rule="evenodd" d="M5.0067 12.6164C4.79811 6.80971 9.47503 2 15.3044 2H16.6956C17.983 2 19.2161 2.23491 20.3534 2.66447C20.87 2.85963 21.1306 3.43667 20.9355 3.95332C20.7403 4.46998 20.1633 4.7306 19.6466 4.53544C18.732 4.18997 17.7381 4 16.6956 4H15.3044C10.5962 4 6.8379 7.88144 7.00541 12.5446L7.17751 17.3356L7.35183 19.7619C7.54268 22.4183 9.01288 24.8218 11.3026 26.213L12.7457 27.0898C14.7432 28.3034 17.2568 28.3034 19.2543 27.0898L20.6974 26.213C22.9871 24.8219 24.4573 22.4183 24.6482 19.7619L24.8225 17.3356L24.9946 12.5446C25.0144 11.9927 25.4779 11.5613 26.0298 11.5811C26.5818 11.601 27.0131 12.0645 26.9933 12.6164L26.8206 17.4253C26.8201 17.4372 26.8195 17.4492 26.8186 17.4611L26.643 19.9052C26.4055 23.2109 24.5764 26.1965 21.7359 27.9222L20.2928 28.799C17.6572 30.4003 14.3428 30.4003 11.7072 28.799L10.2641 27.9222C7.42363 26.1965 5.59447 23.2109 5.35697 19.9052L5.18137 17.4611C5.18052 17.4492 5.17987 17.4372 5.17945 17.4253L5.0067 12.6164Z" fill="white"/>
</svg>
