<svg width="24" height="24" viewBox="0 0 24 24" fill="none" xmlns="http://www.w3.org/2000/svg">
<path fill-rule="evenodd" clip-rule="evenodd" d="M16 12C16 14.2091 14.2091 16 12 16C9.79086 16 8 14.2091 8 12C8 9.79086 9.79086 8 12 8C14.2091 8 16 9.79086 16 12ZM14 12C14 13.1046 13.1046 14 12 14C10.8954 14 10 13.1046 10 12C10 10.8954 10.8954 10 12 10C13.1046 10 14 10.8954 14 12Z" fill="#98ABCD"/>
<path fill-rule="evenodd" clip-rule="evenodd" d="M22.4944 14.9316C22.4714 14.7005 22.3778 14.4827 22.227 14.3097L20.7842 12.7259C20.6129 12.5252 20.5184 12.2672 20.5184 12C20.5184 11.7328 20.6129 11.4748 20.7842 11.2741L22.1522 9.69031C22.303 9.51727 22.3966 9.29954 22.4196 9.06836C22.4426 8.83717 22.3939 8.60442 22.2805 8.40349L20.1429 4.59801C20.0306 4.39731 19.8596 4.23822 19.6542 4.14342C19.4489 4.04863 19.2197 4.02296 18.9994 4.07008L16.9901 4.48802C16.7344 4.54239 16.4683 4.49857 16.2418 4.36484C16.0154 4.23111 15.8444 4.01672 15.761 3.76212L15.1091 1.74939C15.0374 1.53094 14.9008 1.3412 14.7186 1.20699C14.5364 1.07279 14.3178 1.0009 14.0937 1.0015H9.81867C9.58561 0.988977 9.35497 1.05531 9.16199 1.19036C8.969 1.3254 8.82427 1.52175 8.74991 1.74939L8.1514 3.76212C8.06804 4.01672 7.89701 4.23111 7.67058 4.36484C7.44415 4.49857 7.17799 4.54239 6.92232 4.48802L4.85961 4.07008C4.65072 4.0397 4.43777 4.07362 4.24758 4.16757C4.05739 4.26151 3.89847 4.41128 3.79084 4.59801L1.65332 8.40349C1.53699 8.60218 1.48469 8.83362 1.50388 9.06474C1.52308 9.29587 1.61279 9.51482 1.76019 9.69031L3.11752 11.2741C3.28887 11.4748 3.38336 11.7328 3.38336 12C3.38336 12.2672 3.28887 12.5252 3.11752 12.7259L1.76019 14.3097C1.61279 14.4852 1.52308 14.7041 1.50388 14.9353C1.48469 15.1664 1.53699 15.3978 1.65332 15.5965L3.79084 19.402C3.90317 19.6027 4.07419 19.7618 4.27954 19.8566C4.48488 19.9514 4.71407 19.977 4.93442 19.9299L6.9437 19.512C7.19936 19.4576 7.46553 19.5014 7.69195 19.6352C7.91838 19.7689 8.08941 19.9833 8.17278 20.2379L8.82472 22.2506C8.89909 22.4783 9.04381 22.6746 9.2368 22.8096C9.42979 22.9447 9.66043 23.011 9.89349 22.9985H14.1685C14.3926 22.9991 14.6112 22.9272 14.7934 22.793C14.9756 22.6588 15.1122 22.4691 15.1839 22.2506L15.8358 20.2379C15.9192 19.9833 16.0902 19.7689 16.3166 19.6352C16.5431 19.5014 16.8092 19.4576 17.0649 19.512L19.0742 19.9299C19.2945 19.977 19.5237 19.9514 19.7291 19.8566C19.9344 19.7618 20.1054 19.6027 20.2178 19.402L22.3553 15.5965C22.4688 15.3956 22.5175 15.1628 22.4944 14.9316ZM19.2631 14.0245L19.284 14.049L20.3026 15.1671L18.8061 17.8313L17.4809 17.5557L17.4759 17.5547C16.7283 17.397 15.9531 17.5271 15.2996 17.9131C14.6462 18.2989 14.1665 18.9087 13.9351 19.6155L13.4871 20.9985H10.5215L10.0755 19.6216L10.0735 19.6155C9.84205 18.9087 9.36234 18.2989 8.70903 17.9131C8.05549 17.5271 7.2803 17.397 6.53276 17.5546L6.52773 17.5557L5.20252 17.8313L3.68755 15.1342L4.63613 14.0274L4.63863 14.0245C5.12323 13.4568 5.38336 12.7368 5.38336 12C5.38336 11.2632 5.12323 10.5432 4.63863 9.97555L3.68755 8.86579L5.1967 6.17902L6.51822 6.44678C7.26367 6.6022 8.03612 6.47172 8.68765 6.08692C9.34097 5.70107 9.82067 5.09129 10.0521 4.38447L10.0606 4.35843L10.4641 3.0015H13.4123L13.8583 4.37842L13.8603 4.38447C14.0917 5.09129 14.5714 5.70107 15.2248 6.08692C15.8781 6.47281 16.6531 6.60293 17.4005 6.44546L17.4061 6.44429L18.7313 6.16865L20.2365 8.84852L19.2706 9.96672L19.2631 9.97555C18.7785 10.5432 18.5184 11.2633 18.5184 12C18.5184 12.7367 18.7785 13.4568 19.2631 14.0245Z" fill="#98ABCD"/>
</svg>
