<svg width="32" height="32" viewBox="0 0 32 32" fill="none" xmlns="http://www.w3.org/2000/svg">
<path fill-rule="evenodd" clip-rule="evenodd" d="M21.5 5C21.5 4.44772 21.9477 4 22.5 4H26C26.5304 4 27.0391 4.21071 27.4142 4.58579C27.7893 4.96086 28 5.46957 28 6V9.5C28 10.0523 27.5523 10.5 27 10.5C26.4477 10.5 26 10.0523 26 9.5V6L22.5 6C21.9477 6 21.5 5.55228 21.5 5Z" fill="url(#paint0_linear_407_54181)"/>
<path fill-rule="evenodd" clip-rule="evenodd" d="M27 21.5C27.5523 21.5 28 21.9477 28 22.5V26C28 26.5304 27.7893 27.0391 27.4142 27.4142C27.0391 27.7893 26.5304 28 26 28H22.5C21.9477 28 21.5 27.5523 21.5 27C21.5 26.4477 21.9477 26 22.5 26H26V22.5C26 21.9477 26.4477 21.5 27 21.5Z" fill="url(#paint1_linear_407_54181)"/>
<path fill-rule="evenodd" clip-rule="evenodd" d="M5 21.5C5.55228 21.5 6 21.9477 6 22.5V26H9.5C10.0523 26 10.5 26.4477 10.5 27C10.5 27.5523 10.0523 28 9.5 28H6C5.46957 28 4.96086 27.7893 4.58579 27.4142C4.21071 27.0391 4 26.5304 4 26V22.5C4 21.9477 4.44772 21.5 5 21.5Z" fill="url(#paint2_linear_407_54181)"/>
<path fill-rule="evenodd" clip-rule="evenodd" d="M4.58579 4.58579C4.96086 4.21071 5.46957 4 6 4H9.5C10.0523 4 10.5 4.44772 10.5 5C10.5 5.55228 10.0523 6 9.5 6L6 6L6 9.5C6 10.0523 5.55228 10.5 5 10.5C4.44772 10.5 4 10.0523 4 9.5V6C4 5.46957 4.21071 4.96086 4.58579 4.58579Z" fill="url(#paint3_linear_407_54181)"/>
<path fill-rule="evenodd" clip-rule="evenodd" d="M16 9C13.7909 9 12 10.7909 12 13C12 15.2091 13.7909 17 16 17C18.2091 17 20 15.2091 20 13C20 10.7909 18.2091 9 16 9ZM10 13C10 9.68629 12.6863 7 16 7C19.3137 7 22 9.68629 22 13C22 16.3137 19.3137 19 16 19C12.6863 19 10 16.3137 10 13Z" fill="url(#paint4_linear_407_54181)"/>
<path fill-rule="evenodd" clip-rule="evenodd" d="M16 19C14.5872 19 13.1812 19.4786 11.9317 20.4156C10.6791 21.3551 9.63005 22.7224 8.92023 24.3914C8.70408 24.8996 8.11685 25.1364 7.60862 24.9202C7.10039 24.7041 6.86362 24.1169 7.07977 23.6086C7.91086 21.6545 9.16542 19.9904 10.7317 18.8156C12.3012 17.6385 14.1229 17 16 17C17.8771 17 19.6988 17.6385 21.2683 18.8156C22.8346 19.9904 24.0891 21.6545 24.9202 23.6086C25.1364 24.1169 24.8996 24.7041 24.3914 24.9202C23.8831 25.1364 23.2959 24.8996 23.0798 24.3914C22.37 22.7224 21.3209 21.3551 20.0683 20.4156C18.8188 19.4786 17.4128 19 16 19Z" fill="url(#paint5_linear_407_54181)"/>
<defs>
<linearGradient id="paint0_linear_407_54181" x1="16" y1="4" x2="16" y2="28" gradientUnits="userSpaceOnUse">
<stop stop-color="#E1B1FF"/>
<stop offset="1" stop-color="#BA4DFF"/>
</linearGradient>
<linearGradient id="paint1_linear_407_54181" x1="16" y1="4" x2="16" y2="28" gradientUnits="userSpaceOnUse">
<stop stop-color="#E1B1FF"/>
<stop offset="1" stop-color="#BA4DFF"/>
</linearGradient>
<linearGradient id="paint2_linear_407_54181" x1="16" y1="4" x2="16" y2="28" gradientUnits="userSpaceOnUse">
<stop stop-color="#E1B1FF"/>
<stop offset="1" stop-color="#BA4DFF"/>
</linearGradient>
<linearGradient id="paint3_linear_407_54181" x1="16" y1="4" x2="16" y2="28" gradientUnits="userSpaceOnUse">
<stop stop-color="#E1B1FF"/>
<stop offset="1" stop-color="#BA4DFF"/>
</linearGradient>
<linearGradient id="paint4_linear_407_54181" x1="16" y1="4" x2="16" y2="28" gradientUnits="userSpaceOnUse">
<stop stop-color="#E1B1FF"/>
<stop offset="1" stop-color="#BA4DFF"/>
</linearGradient>
<linearGradient id="paint5_linear_407_54181" x1="16" y1="4" x2="16" y2="28" gradientUnits="userSpaceOnUse">
<stop stop-color="#E1B1FF"/>
<stop offset="1" stop-color="#BA4DFF"/>
</linearGradient>
</defs>
</svg>
