<svg width="32" height="32" viewBox="0 0 32 32" fill="none" xmlns="http://www.w3.org/2000/svg">
<path fill-rule="evenodd" clip-rule="evenodd" d="M10.8668 13.7481C8.87877 14.1699 7.24891 14.833 6.20055 15.6379C5.62732 16.0785 5.41812 16.5191 5.37321 16.8744C5.32475 17.2398 5.43585 17.6206 5.70178 17.9582C6.22892 18.6236 7.35647 19.0874 8.72749 18.5583C11.9175 17.3261 18.145 14.9493 24.8441 15.422C24.3354 15.0871 23.7931 14.7994 23.2249 14.5629C19.4699 12.9754 14.8344 12.9056 10.8668 13.7481V13.7481ZM24.1988 12.5458C26.2104 13.3961 27.9454 14.6725 28.8815 16.4803C28.979 16.6686 29.0175 16.8788 28.9927 17.0867C28.9678 17.2946 28.8805 17.4916 28.741 17.655C28.6015 17.8184 28.4154 17.9414 28.2043 18.0097C27.9932 18.0781 27.7658 18.089 27.5483 18.0413C20.5076 16.4958 13.3854 19.1528 9.63047 20.603C7.27373 21.513 4.98554 20.7702 3.80245 19.2734C3.18762 18.5104 2.90959 17.5551 3.02593 16.6054C3.15476 15.6124 3.72208 14.6769 4.70188 13.9241C6.13909 12.8204 8.15899 12.051 10.3444 11.5882C14.8132 10.6384 19.9746 10.758 24.1976 12.5447L24.1988 12.5458Z" fill="white"/>
</svg>
