<svg width="32" height="32" viewBox="0 0 32 32" fill="none" xmlns="http://www.w3.org/2000/svg">
<path fill-rule="evenodd" clip-rule="evenodd" d="M16 5C9.92487 5 5 9.92487 5 16C5 18.6783 5.95719 21.133 7.54814 23.0408L23.0374 7.54532C21.1301 5.95606 18.6767 5 16 5ZM24.4519 8.95926L8.96264 24.4547C10.8699 26.0439 13.3233 27 16 27C22.0751 27 27 22.0751 27 16C27 13.3217 26.0428 10.867 24.4519 8.95926ZM3 16C3 8.8203 8.8203 3 16 3C23.1797 3 29 8.8203 29 16C29 23.1797 23.1797 29 16 29C8.8203 29 3 23.1797 3 16Z" fill="white"/>
</svg>
