<svg width="32" height="32" viewBox="0 0 32 32" fill="none" xmlns="http://www.w3.org/2000/svg">
<path fill-rule="evenodd" clip-rule="evenodd" d="M16.0026 9.42744C15.0388 8.53156 13.7628 8.08008 12.52 8.05522C10.8546 8.02191 9.10754 8.75424 8.1407 10.3785C7.68709 11.1409 6.5724 12.195 5.33796 13.1677C4.111 14.1345 2.97264 14.8614 2.59496 15.0287C2.32069 15.1502 2.11546 15.3884 2.03585 15.6776C1.95624 15.9669 2.01067 16.2765 2.18413 16.5213C3.11533 17.8351 5.10227 19.6837 7.5329 21.2017C9.96523 22.7208 12.9861 24 16 24C22.9781 24 27.9036 18.9776 29.7889 16.5576C29.9781 16.3147 30.0449 15.9981 29.9699 15.6995C29.8949 15.4009 29.6865 15.1534 29.405 15.0287C29.0416 14.8677 28.3399 14.414 27.411 13.5979C26.4996 12.7972 25.4151 11.688 24.2819 10.2666C23.0701 8.74703 21.262 8.03132 19.5434 8.06421C18.261 8.08874 16.9722 8.53437 16.0026 9.42744ZM9.85929 11.4015C9.19786 12.5131 7.81253 13.7641 6.57578 14.7386C5.86448 15.2991 5.13362 15.821 4.52175 16.2169C5.43354 17.1996 6.86495 18.4265 8.59234 19.5053C10.8683 20.9268 13.5139 22 16 22C21.3195 22 25.3799 18.5779 27.4823 16.2038C27.0572 15.9073 26.5876 15.5367 26.091 15.1004C25.0863 14.2178 23.9209 13.0221 22.7181 11.5134C21.9299 10.5251 20.7379 10.0417 19.5816 10.0638C18.4221 10.086 17.3993 10.6086 16.8582 11.5133C16.6775 11.8155 16.3511 12.0004 15.9989 12C15.6468 11.9997 15.3208 11.8141 15.1407 11.5115C14.595 10.5947 13.5673 10.0766 12.48 10.0548C11.3954 10.0331 10.3925 10.5059 9.85929 11.4015Z" fill="white"/>
<path fill-rule="evenodd" clip-rule="evenodd" d="M2.01926 15.8046C2.12716 15.263 2.65372 14.9114 3.19536 15.0193C6.88058 15.7534 17.2684 16.8034 28.8471 15.0118C29.3929 14.9273 29.9038 15.3013 29.9882 15.8471C30.0727 16.3929 29.6987 16.9038 29.1529 16.9883C17.3236 18.8186 6.69941 17.7566 2.80462 16.9807C2.26298 16.8728 1.91136 16.3463 2.01926 15.8046Z" fill="white"/>
</svg>
