<svg width="32" height="32" viewBox="0 0 32 32" fill="none" xmlns="http://www.w3.org/2000/svg">
<path fill-rule="evenodd" clip-rule="evenodd" d="M16.5832 3.18768L16 4L15.4168 3.18768C15.7653 2.93744 16.2347 2.93744 16.5832 3.18768ZM16 5.26405C15.7933 5.43078 15.5395 5.64157 15.2509 5.8932C14.4348 6.60461 13.3476 7.63633 12.2628 8.91592C10.0706 11.5016 8 14.9667 8 18.7692C8 20.9602 8.84885 23.0565 10.352 24.5983C11.8544 26.1391 13.8866 27 16 27C18.1134 27 20.1456 26.1391 21.648 24.5983C23.1512 23.0565 24 20.9602 24 18.7692C24 14.9667 21.9294 11.5016 19.7372 8.91592C18.6524 7.63633 17.5652 6.60461 16.7491 5.8932C16.4605 5.64157 16.2067 5.43078 16 5.26405ZM15.4168 3.18768C15.4171 3.18745 15.4168 3.18768 16 4C16.5832 3.18768 16.5829 3.18745 16.5832 3.18768L16.5868 3.19026L16.5936 3.19521L16.6169 3.21219C16.6366 3.22664 16.6647 3.24733 16.7004 3.2741C16.7719 3.32765 16.8745 3.40561 17.0036 3.50685C17.2619 3.70927 17.627 4.0052 18.0634 4.38565C18.9348 5.14539 20.0976 6.24828 21.2628 7.62255C23.5706 10.3446 26 14.2641 26 18.7692C26 21.4745 24.9524 24.074 23.08 25.9945C21.2067 27.9158 18.6605 29 16 29C13.3395 29 10.7933 27.9158 8.92004 25.9945C7.04758 24.074 6 21.4745 6 18.7692C6 14.2641 8.42941 10.3446 10.7372 7.62255C11.9024 6.24828 13.0652 5.14539 13.9366 4.38565C14.373 4.0052 14.7381 3.70927 14.9964 3.50685C15.1255 3.40561 15.2281 3.32765 15.2996 3.2741C15.3353 3.24733 15.3634 3.22664 15.3831 3.21219L15.4064 3.19521L15.4132 3.19026L15.4154 3.18867L15.4168 3.18768Z" fill="url(#paint0_linear_407_54131)"/>
<path fill-rule="evenodd" clip-rule="evenodd" d="M8.20852 20.2057C7.82105 20.5948 7.19152 20.5988 6.79918 20.2133C6.40522 19.8263 6.39961 19.1932 6.78666 18.7992L7.5 19.5C6.78666 18.7992 6.78711 18.7987 6.78758 18.7983L6.78857 18.7972L6.79081 18.795L6.79623 18.7895L6.8109 18.7751C6.82238 18.7639 6.83724 18.7496 6.85546 18.7325C6.89187 18.6985 6.94178 18.6533 7.00486 18.5997C7.13084 18.4926 7.31039 18.3508 7.54083 18.1957C8.00049 17.8864 8.67181 17.5183 9.53126 17.2728C11.2888 16.7708 13.7127 16.8177 16.5456 18.6619C18.897 20.1927 20.723 20.1458 21.9194 19.8041C22.537 19.6277 23.0186 19.363 23.3426 19.1449C23.5041 19.0363 23.6241 18.9408 23.6997 18.8766C23.7374 18.8445 23.7638 18.8204 23.7784 18.8067L23.7914 18.7944L23.7896 18.7962L23.7883 18.7975M23.7914 18.7944C23.7921 18.7937 23.7922 18.7936 23.7914 18.7944ZM23.7914 18.7944C24.1789 18.4053 24.8085 18.4012 25.2008 18.7867C25.5948 19.1737 25.6004 19.8068 25.2133 20.2008L24.5381 19.5374C25.2133 20.2008 25.2129 20.2013 25.2124 20.2017L25.2114 20.2028L25.2092 20.205L25.2038 20.2105L25.1891 20.2249C25.1776 20.2361 25.1628 20.2504 25.1445 20.2675C25.1081 20.3015 25.0582 20.3467 24.9951 20.4003C24.8692 20.5074 24.6896 20.6492 24.4592 20.8043C23.9995 21.1136 23.3282 21.4817 22.4687 21.7272C20.7112 22.2292 18.2873 22.1823 15.4544 20.3381C13.103 18.8073 11.277 18.8542 10.0806 19.1959C9.46304 19.3723 8.9814 19.637 8.65736 19.8551C8.49594 19.9637 8.37594 20.0592 8.30034 20.1234C8.26263 20.1555 8.23624 20.1796 8.22155 20.1933L8.20852 20.2057" fill="url(#paint1_linear_407_54131)"/>
<path fill-rule="evenodd" clip-rule="evenodd" d="M9.61824 24.786C9.18743 25.125 8.56299 25.0539 8.21955 24.6252C7.87425 24.1942 7.94375 23.5649 8.37478 23.2196L9 24C8.37478 23.2196 8.37527 23.2192 8.37577 23.2188L8.37682 23.2179L8.37914 23.2161L8.38458 23.2118L8.3987 23.2008C8.40955 23.1925 8.42327 23.1821 8.43984 23.1699C8.47295 23.1455 8.51748 23.1139 8.57313 23.0766C8.68434 23.0022 8.84058 22.9052 9.03946 22.7999C9.43677 22.5895 10.0084 22.3437 10.7339 22.1806C12.2034 21.8502 14.2434 21.8739 16.656 23.11C18.6348 24.1239 20.1948 24.1003 21.2274 23.8681C21.753 23.7499 22.158 23.5738 22.4245 23.4327C22.5576 23.3622 22.6551 23.301 22.7146 23.2612C22.7443 23.2413 22.7644 23.2268 22.7746 23.2194L22.7817 23.214C23.2126 22.875 23.837 22.9461 24.1804 23.3748C24.5257 23.8058 24.4563 24.4351 24.0252 24.7804L23.4256 24.0319C24.0252 24.7805 24.0247 24.7808 24.0242 24.7812L24.0232 24.7821L24.0209 24.7839L24.0154 24.7882L24.0013 24.7992C23.9905 24.8075 23.9767 24.8179 23.9602 24.8301C23.9271 24.8545 23.8825 24.8861 23.8269 24.9234C23.7157 24.9978 23.5594 25.0948 23.3605 25.2001C22.9632 25.4105 22.3916 25.6563 21.6661 25.8194C20.1966 26.1498 18.1566 26.1261 15.744 24.89C13.7653 23.8761 12.2052 23.8997 11.1726 24.1319C10.647 24.2501 10.242 24.4262 9.97547 24.5673C9.84242 24.6378 9.74493 24.699 9.68539 24.7388C9.65567 24.7587 9.63557 24.7732 9.62539 24.7806L9.61824 24.786Z" fill="url(#paint2_linear_407_54131)"/>
<defs>
<linearGradient id="paint0_linear_407_54131" x1="16" y1="3" x2="16" y2="29" gradientUnits="userSpaceOnUse">
<stop stop-color="#E1B1FF"/>
<stop offset="1" stop-color="#BA4DFF"/>
</linearGradient>
<linearGradient id="paint1_linear_407_54131" x1="16" y1="3" x2="16" y2="29" gradientUnits="userSpaceOnUse">
<stop stop-color="#E1B1FF"/>
<stop offset="1" stop-color="#BA4DFF"/>
</linearGradient>
<linearGradient id="paint2_linear_407_54131" x1="16" y1="3" x2="16" y2="29" gradientUnits="userSpaceOnUse">
<stop stop-color="#E1B1FF"/>
<stop offset="1" stop-color="#BA4DFF"/>
</linearGradient>
</defs>
</svg>
