<svg width="32" height="32" viewBox="0 0 32 32" fill="none" xmlns="http://www.w3.org/2000/svg">
<path d="M17 5C17 4.44772 16.5523 4 16 4C15.4477 4 15 4.44772 15 5L15 27C15 27.5523 15.4477 28 16 28C16.5523 28 17 27.5523 17 27L17 5Z" fill="url(#paint0_linear_407_54188)"/>
<path d="M2 10H2.4C2.95228 10 3.4 10.4477 3.4 11L3.4 22.2C3.4 23.7464 4.6536 25 6.2 25C7.7464 25 9 23.7464 9 22.2V15C9.55229 15 10 14.5523 10 14C10 13.4477 9.55229 13 9 13V10.8C9 10.3582 9.35817 10 9.8 10C10.2418 10 10.6 10.3582 10.6 10.8V22C10.6 23.6569 11.9431 25 13.6 25H14V23H13.6C13.0477 23 12.6 22.5523 12.6 22V20.9168C12.7225 20.9703 12.8578 21 13 21C13.5523 21 14 20.5523 14 20C14 19.4477 13.5523 19 13 19C12.8578 19 12.7225 19.0297 12.6 19.0832V10.8C12.6 9.2536 11.3464 8 9.8 8C8.2536 8 7 9.2536 7 10.8V22.2C7 22.6418 6.64183 23 6.2 23C5.75817 23 5.4 22.6418 5.4 22.2L5.4 11C5.4 9.34315 4.05685 8 2.4 8H2C1.44772 8 1 8.44772 1 9C1 9.55228 1.44772 10 2 10Z" fill="url(#paint1_linear_407_54188)"/>
<path d="M18.4 10H18V8H18.4C20.0569 8 21.4 9.34315 21.4 11V22.2C21.4 22.6418 21.7582 23 22.2 23C22.6418 23 23 22.6418 23 22.2V10.8C23 9.2536 24.2536 8 25.8 8C27.3464 8 28.6 9.2536 28.6 10.8V22C28.6 22.5523 29.0477 23 29.6 23H30C30.5523 23 31 23.4477 31 24C31 24.5523 30.5523 25 30 25H29.6C27.9431 25 26.6 23.6569 26.6 22V10.8C26.6 10.3582 26.2418 10 25.8 10C25.3582 10 25 10.3582 25 10.8V22.2C25 23.7464 23.7464 25 22.2 25C20.6536 25 19.4 23.7464 19.4 22.2V11C19.4 10.4477 18.9523 10 18.4 10Z" fill="url(#paint2_linear_407_54188)"/>
<path d="M14 7C14 7.55228 13.5523 8 13 8C12.4477 8 12 7.55228 12 7C12 6.44772 12.4477 6 13 6C13.5523 6 14 6.44772 14 7Z" fill="url(#paint3_linear_407_54188)"/>
<path d="M7 9C7 9.55228 6.55228 10 6 10C5.44772 10 5 9.55228 5 9C5 8.44772 5.44772 8 6 8C6.55228 8 7 8.44772 7 9Z" fill="url(#paint4_linear_407_54188)"/>
<path d="M2 24C2 24.5523 1.55228 25 1 25C0.447715 25 0 24.5523 0 24C0 23.4477 0.447715 23 1 23C1.55228 23 2 23.4477 2 24Z" fill="url(#paint5_linear_407_54188)"/>
<path d="M10 26C10.5523 26 11 25.5523 11 25C11 24.4477 10.5523 24 10 24C9.44771 24 9 24.4477 9 25C9 25.5523 9.44771 26 10 26Z" fill="url(#paint6_linear_407_54188)"/>
<path d="M3 17C3 17.5523 2.55228 18 2 18C1.44772 18 1 17.5523 1 17C1 16.4477 1.44772 16 2 16C2.55228 16 3 16.4477 3 17Z" fill="url(#paint7_linear_407_54188)"/>
<defs>
<linearGradient id="paint0_linear_407_54188" x1="15.5" y1="4" x2="15.5" y2="28" gradientUnits="userSpaceOnUse">
<stop stop-color="#7ADAFF"/>
<stop offset="1" stop-color="#36AAFF"/>
</linearGradient>
<linearGradient id="paint1_linear_407_54188" x1="15.5" y1="4" x2="15.5" y2="28" gradientUnits="userSpaceOnUse">
<stop stop-color="#7ADAFF"/>
<stop offset="1" stop-color="#36AAFF"/>
</linearGradient>
<linearGradient id="paint2_linear_407_54188" x1="15.5" y1="4" x2="15.5" y2="28" gradientUnits="userSpaceOnUse">
<stop stop-color="#7ADAFF"/>
<stop offset="1" stop-color="#36AAFF"/>
</linearGradient>
<linearGradient id="paint3_linear_407_54188" x1="15.5" y1="4" x2="15.5" y2="28" gradientUnits="userSpaceOnUse">
<stop stop-color="#7ADAFF"/>
<stop offset="1" stop-color="#36AAFF"/>
</linearGradient>
<linearGradient id="paint4_linear_407_54188" x1="15.5" y1="4" x2="15.5" y2="28" gradientUnits="userSpaceOnUse">
<stop stop-color="#7ADAFF"/>
<stop offset="1" stop-color="#36AAFF"/>
</linearGradient>
<linearGradient id="paint5_linear_407_54188" x1="15.5" y1="4" x2="15.5" y2="28" gradientUnits="userSpaceOnUse">
<stop stop-color="#7ADAFF"/>
<stop offset="1" stop-color="#36AAFF"/>
</linearGradient>
<linearGradient id="paint6_linear_407_54188" x1="15.5" y1="4" x2="15.5" y2="28" gradientUnits="userSpaceOnUse">
<stop stop-color="#7ADAFF"/>
<stop offset="1" stop-color="#36AAFF"/>
</linearGradient>
<linearGradient id="paint7_linear_407_54188" x1="15.5" y1="4" x2="15.5" y2="28" gradientUnits="userSpaceOnUse">
<stop stop-color="#7ADAFF"/>
<stop offset="1" stop-color="#36AAFF"/>
</linearGradient>
</defs>
</svg>
