<svg width="32" height="32" viewBox="0 0 32 32" fill="none" xmlns="http://www.w3.org/2000/svg">
<path fill-rule="evenodd" clip-rule="evenodd" d="M23 8.99998C19.134 8.99998 16 12.134 16 16C16 19.866 19.134 23 23 23C26.866 23 30 19.866 30 16C30 12.134 26.866 8.99998 23 8.99998ZM14 16C14 11.0294 18.0294 6.99998 23 6.99998C27.9706 6.99998 32 11.0294 32 16C32 20.9705 27.9706 25 23 25C18.0294 25 14 20.9705 14 16Z" fill="url(#paint0_linear_407_54160)"/>
<path fill-rule="evenodd" clip-rule="evenodd" d="M12 8.99998C8.13401 8.99998 5 12.134 5 16C5 19.866 8.13401 23 12 23C15.866 23 19 19.866 19 16C19 12.134 15.866 8.99998 12 8.99998ZM3 16C3 11.0294 7.02944 6.99998 12 6.99998C16.9706 6.99998 21 11.0294 21 16C21 20.9705 16.9706 25 12 25C7.02944 25 3 20.9705 3 16Z" fill="url(#paint1_linear_407_54160)"/>
<path fill-rule="evenodd" clip-rule="evenodd" d="M0 16C0 15.4477 0.447715 15 1 15H1.5C2.05228 15 2.5 15.4477 2.5 16C2.5 16.5523 2.05228 17 1.5 17H1C0.447715 17 0 16.5523 0 16Z" fill="url(#paint2_linear_407_54160)"/>
<path fill-rule="evenodd" clip-rule="evenodd" d="M1.6077 9.99998C1.88384 9.52169 2.49543 9.35782 2.97372 9.63396L3.40674 9.88396C3.88503 10.1601 4.0489 10.7717 3.77276 11.25C3.49662 11.7283 2.88503 11.8922 2.40674 11.616L1.97372 11.366C1.49543 11.0899 1.33156 10.4783 1.6077 9.99998Z" fill="url(#paint3_linear_407_54160)"/>
<path fill-rule="evenodd" clip-rule="evenodd" d="M5.99999 5.60768C6.47829 5.33154 7.08988 5.49542 7.36602 5.97371L7.61602 6.40672C7.89216 6.88501 7.72829 7.4966 7.24999 7.77275C6.7717 8.04889 6.16011 7.88501 5.88397 7.40672L5.63397 6.97371C5.35782 6.49542 5.5217 5.88383 5.99999 5.60768Z" fill="url(#paint4_linear_407_54160)"/>
<path fill-rule="evenodd" clip-rule="evenodd" d="M12 4C12.5523 4 13 4.44772 13 5V5.5C13 6.05228 12.5523 6.5 12 6.5C11.4477 6.5 11 6.05228 11 5.5V5C11 4.44772 11.4477 4 12 4Z" fill="url(#paint5_linear_407_54160)"/>
<path fill-rule="evenodd" clip-rule="evenodd" d="M12 28C11.4477 28 11 27.5523 11 27V26.5C11 25.9477 11.4477 25.5 12 25.5C12.5523 25.5 13 25.9477 13 26.5V27C13 27.5523 12.5523 28 12 28Z" fill="url(#paint6_linear_407_54160)"/>
<path fill-rule="evenodd" clip-rule="evenodd" d="M5.99998 26.3923C5.52169 26.1161 5.35782 25.5046 5.63396 25.0263L5.88396 24.5932C6.1601 24.115 6.77169 23.9511 7.24998 24.2272C7.72828 24.5034 7.89215 25.115 7.61601 25.5932L7.36601 26.0263C7.08987 26.5046 6.47828 26.6684 5.99998 26.3923Z" fill="url(#paint7_linear_407_54160)"/>
<path fill-rule="evenodd" clip-rule="evenodd" d="M1.60768 22C1.33153 21.5217 1.49541 20.9101 1.9737 20.6339L2.40671 20.3839C2.88501 20.1078 3.4966 20.2717 3.77274 20.75C4.04888 21.2283 3.88501 21.8399 3.40671 22.116L2.9737 22.366C2.49541 22.6421 1.88382 22.4783 1.60768 22Z" fill="url(#paint8_linear_407_54160)"/>
<path fill-rule="evenodd" clip-rule="evenodd" d="M19 12C19 11.4477 19.4477 11 20 11H29C29.5523 11 30 11.4477 30 12C30 12.5523 29.5523 13 29 13H20C19.4477 13 19 12.5523 19 12Z" fill="url(#paint9_linear_407_54160)"/>
<path fill-rule="evenodd" clip-rule="evenodd" d="M20 16C20 15.4477 20.4477 15 21 15H30C30.5523 15 31 15.4477 31 16C31 16.5523 30.5523 17 30 17H21C20.4477 17 20 16.5523 20 16Z" fill="url(#paint10_linear_407_54160)"/>
<path fill-rule="evenodd" clip-rule="evenodd" d="M19 20C19 19.4477 19.4477 19 20 19H29C29.5523 19 30 19.4477 30 20C30 20.5523 29.5523 21 29 21H20C19.4477 21 19 20.5523 19 20Z" fill="url(#paint11_linear_407_54160)"/>
<defs>
<linearGradient id="paint0_linear_407_54160" x1="16" y1="4" x2="16" y2="28" gradientUnits="userSpaceOnUse">
<stop stop-color="#FFCD8A"/>
<stop offset="1" stop-color="#FF7C37"/>
</linearGradient>
<linearGradient id="paint1_linear_407_54160" x1="16" y1="4" x2="16" y2="28" gradientUnits="userSpaceOnUse">
<stop stop-color="#FFCD8A"/>
<stop offset="1" stop-color="#FF7C37"/>
</linearGradient>
<linearGradient id="paint2_linear_407_54160" x1="16" y1="4" x2="16" y2="28" gradientUnits="userSpaceOnUse">
<stop stop-color="#FFCD8A"/>
<stop offset="1" stop-color="#FF7C37"/>
</linearGradient>
<linearGradient id="paint3_linear_407_54160" x1="16" y1="4" x2="16" y2="28" gradientUnits="userSpaceOnUse">
<stop stop-color="#FFCD8A"/>
<stop offset="1" stop-color="#FF7C37"/>
</linearGradient>
<linearGradient id="paint4_linear_407_54160" x1="16" y1="4" x2="16" y2="28" gradientUnits="userSpaceOnUse">
<stop stop-color="#FFCD8A"/>
<stop offset="1" stop-color="#FF7C37"/>
</linearGradient>
<linearGradient id="paint5_linear_407_54160" x1="16" y1="4" x2="16" y2="28" gradientUnits="userSpaceOnUse">
<stop stop-color="#FFCD8A"/>
<stop offset="1" stop-color="#FF7C37"/>
</linearGradient>
<linearGradient id="paint6_linear_407_54160" x1="16" y1="4" x2="16" y2="28" gradientUnits="userSpaceOnUse">
<stop stop-color="#FFCD8A"/>
<stop offset="1" stop-color="#FF7C37"/>
</linearGradient>
<linearGradient id="paint7_linear_407_54160" x1="16" y1="4" x2="16" y2="28" gradientUnits="userSpaceOnUse">
<stop stop-color="#FFCD8A"/>
<stop offset="1" stop-color="#FF7C37"/>
</linearGradient>
<linearGradient id="paint8_linear_407_54160" x1="16" y1="4" x2="16" y2="28" gradientUnits="userSpaceOnUse">
<stop stop-color="#FFCD8A"/>
<stop offset="1" stop-color="#FF7C37"/>
</linearGradient>
<linearGradient id="paint9_linear_407_54160" x1="16" y1="4" x2="16" y2="28" gradientUnits="userSpaceOnUse">
<stop stop-color="#FFCD8A"/>
<stop offset="1" stop-color="#FF7C37"/>
</linearGradient>
<linearGradient id="paint10_linear_407_54160" x1="16" y1="4" x2="16" y2="28" gradientUnits="userSpaceOnUse">
<stop stop-color="#FFCD8A"/>
<stop offset="1" stop-color="#FF7C37"/>
</linearGradient>
<linearGradient id="paint11_linear_407_54160" x1="16" y1="4" x2="16" y2="28" gradientUnits="userSpaceOnUse">
<stop stop-color="#FFCD8A"/>
<stop offset="1" stop-color="#FF7C37"/>
</linearGradient>
</defs>
</svg>
