<svg width="32" height="32" viewBox="0 0 32 32" fill="none" xmlns="http://www.w3.org/2000/svg">
<path fill-rule="evenodd" clip-rule="evenodd" d="M5.0067 12.6164C4.79811 6.80971 9.47503 2 15.3044 2H16.6956C22.525 2 27.2019 6.8097 26.9933 12.6164L26.8206 17.4253C26.8201 17.4372 26.8195 17.4492 26.8186 17.4611L26.643 19.9052C26.4055 23.2109 24.5764 26.1965 21.7359 27.9222L20.2928 28.799C17.6572 30.4003 14.3428 30.4003 11.7072 28.799L10.2641 27.9222C7.42364 26.1965 5.59448 23.2109 5.35697 19.9052L5.18138 17.4611C5.18052 17.4492 5.17988 17.4372 5.17945 17.4253L5.0067 12.6164ZM15.3044 4C10.5962 4 6.8379 7.88144 7.00541 12.5446L7.17752 17.3356L7.35183 19.7619C7.54269 22.4183 9.01288 24.8218 11.3026 26.213L12.7457 27.0898C14.7432 28.3034 17.2568 28.3034 19.2543 27.0898L20.6974 26.213C22.9871 24.8219 24.4573 22.4183 24.6482 19.7619L24.8225 17.3356L24.9946 12.5446C25.1621 7.88143 21.4038 4 16.6956 4H15.3044Z" fill="white"/>
<path fill-rule="evenodd" clip-rule="evenodd" d="M11.1007 18.4007C10.7249 18.2263 10.279 18.3896 10.1047 18.7654C10.0175 18.9531 9.88709 19.1601 9.70305 19.3892C9.44365 19.7121 9.49516 20.1842 9.81809 20.4436C10.141 20.703 10.6131 20.6515 10.8725 20.3286C11.1138 20.0282 11.316 19.7186 11.4653 19.3967C11.6397 19.0209 11.4764 18.575 11.1007 18.4007ZM10.7743 17.0995C11.0916 16.8333 11.1331 16.3603 10.8669 16.0429C10.6592 15.7953 10.4173 15.5503 10.1442 15.306C9.83556 15.0298 9.36142 15.0561 9.08521 15.3648C8.80901 15.6735 8.83534 16.1476 9.14402 16.4238C9.37485 16.6304 9.5645 16.8243 9.71768 17.0069C9.98389 17.3243 10.4569 17.3657 10.7743 17.0995ZM8.83869 21.2725C8.58917 20.9419 8.11887 20.8761 7.78825 21.1256C7.67151 21.2137 7.55083 21.3032 7.42622 21.3941C7.09159 21.6382 7.01823 22.1074 7.26236 22.442C7.50649 22.7767 7.97566 22.85 8.31029 22.6059C8.44089 22.5106 8.5681 22.4163 8.69184 22.3229C9.02246 22.0734 9.08821 21.6031 8.83869 21.2725ZM8.03361 14.6385C8.25227 14.2867 8.14435 13.8242 7.79255 13.6056C7.66077 13.5236 7.52554 13.441 7.38685 13.3575C7.03198 13.1438 6.57112 13.2583 6.35747 13.6132C6.14382 13.968 6.2583 14.4289 6.61316 14.6425C6.74613 14.7226 6.8753 14.8016 7.0007 14.8795C7.35249 15.0982 7.81494 14.9903 8.03361 14.6385Z" fill="white"/>
<path fill-rule="evenodd" clip-rule="evenodd" d="M20.8994 18.4007C21.2751 18.2263 21.721 18.3896 21.8953 18.7654C21.9825 18.9531 22.1129 19.1601 22.297 19.3892C22.5564 19.7121 22.5049 20.1842 22.1819 20.4436C21.859 20.703 21.3869 20.6515 21.1275 20.3286C20.8862 20.0282 20.684 19.7186 20.5347 19.3967C20.3603 19.0209 20.5236 18.575 20.8994 18.4007ZM21.2257 17.0995C20.9084 16.8333 20.8669 16.3603 21.1331 16.0429C21.3408 15.7953 21.5827 15.5503 21.8558 15.306C22.1644 15.0298 22.6386 15.0561 22.9148 15.3648C23.191 15.6735 23.1647 16.1476 22.856 16.4238C22.6252 16.6304 22.4355 16.8243 22.2823 17.0069C22.0161 17.3243 21.5431 17.3657 21.2257 17.0995ZM23.1613 21.2725C23.4108 20.9419 23.8811 20.8761 24.2118 21.1256C24.3285 21.2137 24.4492 21.3032 24.5738 21.3941C24.9084 21.6382 24.9818 22.1074 24.7376 22.442C24.4935 22.7767 24.0243 22.85 23.6897 22.6059C23.5591 22.5106 23.4319 22.4163 23.3082 22.3229C22.9775 22.0734 22.9118 21.6031 23.1613 21.2725ZM23.9664 14.6385C23.7477 14.2867 23.8557 13.8242 24.2075 13.6056C24.3392 13.5236 24.4745 13.441 24.6132 13.3575C24.968 13.1438 25.4289 13.2583 25.6425 13.6132C25.8562 13.968 25.7417 14.4289 25.3868 14.6425C25.2539 14.7226 25.1247 14.8016 24.9993 14.8795C24.6475 15.0982 24.1851 14.9903 23.9664 14.6385Z" fill="white"/>
</svg>
