<svg width="32" height="32" viewBox="0 0 32 32" fill="none" xmlns="http://www.w3.org/2000/svg">
<path fill-rule="evenodd" clip-rule="evenodd" d="M6.00597 12.6128C5.82172 6.91384 9.97131 2 15.374 2H16.626C22.0287 2 26.1783 6.91383 25.994 12.6128L25.8386 17.4217C25.8382 17.4325 25.8377 17.4432 25.837 17.4539L25.679 19.8981C25.4679 23.1621 23.8404 26.1508 21.2545 27.8964L19.9557 28.7732C17.5327 30.4089 14.4673 30.4089 12.0443 28.7732L10.7455 27.8964C8.15961 26.1508 6.5321 23.1621 6.32104 19.8981L6.16301 17.4539C6.16231 17.4432 6.16179 17.4325 6.16144 17.4217L6.00597 12.6128ZM15.374 4C11.2928 4 7.85068 7.77731 8.00493 12.5482L8.15988 17.341L8.31688 19.769C8.49134 22.4671 9.83325 24.8675 11.8645 26.2388L13.1633 27.1156C14.9101 28.2948 17.0899 28.2948 18.8367 27.1156L20.1355 26.2388C22.1667 24.8675 23.5087 22.4671 23.6831 19.769L23.8401 17.341L23.9951 12.5482C24.1493 7.77731 20.7072 4 16.626 4H15.374Z" fill="white"/>
<path fill-rule="evenodd" clip-rule="evenodd" d="M2.46967 14.4697C2.76256 14.1768 3.23744 14.1768 3.53033 14.4697L5.53033 16.4697C5.82322 16.7626 5.82322 17.2374 5.53033 17.5303L3.53033 19.5303C3.23744 19.8232 2.76256 19.8232 2.46967 19.5303C2.17678 19.2374 2.17678 18.7626 2.46967 18.4697L3.18934 17.75H1C0.585786 17.75 0.25 17.4142 0.25 17C0.25 16.5858 0.585786 16.25 1 16.25H3.18934L2.46967 15.5303C2.17678 15.2374 2.17678 14.7626 2.46967 14.4697Z" fill="white"/>
<path fill-rule="evenodd" clip-rule="evenodd" d="M29.5303 19.5303C29.2374 19.8232 28.7626 19.8232 28.4697 19.5303L26.4697 17.5303C26.1768 17.2374 26.1768 16.7626 26.4697 16.4697L28.4697 14.4697C28.7626 14.1768 29.2374 14.1768 29.5303 14.4697C29.8232 14.7626 29.8232 15.2374 29.5303 15.5303L28.8107 16.25H31C31.4142 16.25 31.75 16.5858 31.75 17C31.75 17.4142 31.4142 17.75 31 17.75H28.8107L29.5303 18.4697C29.8232 18.7626 29.8232 19.2374 29.5303 19.5303Z" fill="white"/>
</svg>
