<svg width="32" height="32" viewBox="0 0 32 32" fill="none" xmlns="http://www.w3.org/2000/svg">
<path fill-rule="evenodd" clip-rule="evenodd" d="M5.32635 11.2776C7.55369 9.14547 11.0398 7 16 7C20.9602 7 24.4463 9.14547 26.6736 11.2776C27.7838 12.3404 28.5849 13.402 29.11 14.2005C29.3731 14.6004 29.5682 14.9363 29.6995 15.1762C29.7652 15.2962 29.815 15.3924 29.8494 15.4608C29.8666 15.495 29.8799 15.5223 29.8895 15.5421L29.9011 15.5663L29.9047 15.574L29.9066 15.578C29.9066 15.578 29.907 15.5789 29 16C29.907 16.4211 29.9066 16.422 29.9066 16.422L29.9047 16.426L29.9011 16.4337L29.8895 16.4579C29.8799 16.4777 29.8666 16.505 29.8494 16.5392C29.815 16.6076 29.7652 16.7038 29.6995 16.8238C29.5682 17.0637 29.3731 17.3996 29.11 17.7995C28.5849 18.598 27.7838 19.6596 26.6736 20.7224C24.4463 22.8545 20.9602 25 16 25C11.0398 25 7.55369 22.8545 5.32635 20.7224C4.21619 19.6596 3.41513 18.598 2.88997 17.7995C2.62693 17.3996 2.43176 17.0637 2.30048 16.8238C2.23481 16.7038 2.18501 16.6076 2.15062 16.5392C2.13342 16.505 2.12006 16.4777 2.11047 16.4579L2.09892 16.4337L2.09526 16.426L2.09395 16.4232L2.09343 16.422C2.09343 16.422 2.09299 16.4211 3 16C2.09299 15.5789 2.09343 15.578 2.09343 15.578L2.09395 15.5768L2.09526 15.574L2.09892 15.5663L2.11047 15.5421C2.12006 15.5223 2.13342 15.495 2.15062 15.4608C2.18501 15.3924 2.23481 15.2962 2.30048 15.1762C2.43176 14.9363 2.62693 14.6004 2.88997 14.2005C3.41513 13.402 4.21619 12.3404 5.32635 11.2776ZM3 16L2.09299 15.5789C1.969 15.8459 1.969 16.1541 2.09299 16.4211L3 16ZM4.13098 16C4.23623 16.1854 4.379 16.4239 4.56092 16.7005C5.02237 17.402 5.73024 18.3404 6.70936 19.2776C8.66059 21.1455 11.6744 23 16 23C20.3256 23 23.3394 21.1455 25.2906 19.2776C26.2698 18.3404 26.9776 17.402 27.4391 16.7005C27.621 16.4239 27.7638 16.1854 27.869 16C27.7638 15.8146 27.621 15.5761 27.4391 15.2995C26.9776 14.598 26.2698 13.6596 25.2906 12.7224C23.3394 10.8545 20.3256 9 16 9C11.6744 9 8.66059 10.8545 6.70936 12.7224C5.73024 13.6596 5.02237 14.598 4.56092 15.2995C4.379 15.5761 4.23623 15.8146 4.13098 16ZM29 16L29.907 16.4211C30.031 16.1541 30.031 15.8459 29.907 15.5789L29 16Z" fill="white"/>
<path fill-rule="evenodd" clip-rule="evenodd" d="M16.2832 11.9252C14.074 11.9252 12.2832 13.7161 12.2832 15.9252C12.2832 18.1344 14.074 19.9252 16.2832 19.9252C18.4923 19.9252 20.2832 18.1344 20.2832 15.9252C20.2832 13.7161 18.4923 11.9252 16.2832 11.9252ZM10.2832 15.9252C10.2832 12.6115 12.9695 9.92523 16.2832 9.92523C19.5969 9.92523 22.2832 12.6115 22.2832 15.9252C22.2832 19.2389 19.5969 21.9252 16.2832 21.9252C12.9695 21.9252 10.2832 19.2389 10.2832 15.9252Z" fill="white"/>
</svg>
