<svg width="32" height="32" viewBox="0 0 32 32" fill="none" xmlns="http://www.w3.org/2000/svg">
<path d="M8.33687 20.5C7.3985 20.5 6.64619 20.2417 6.07993 19.725C5.66275 19.3388 5.35629 18.8503 5.16053 18.2593C5.03981 17.8948 5.24776 17.5156 5.59898 17.3605C6.13018 17.126 6.70679 17.5267 7.0026 18.0264C7.05617 18.1168 7.11668 18.1997 7.18413 18.275C7.48344 18.5917 7.86768 18.75 8.33687 18.75C8.74134 18.75 9.073 18.6292 9.33186 18.3875C9.59881 18.1375 9.73228 17.8 9.73228 17.375C9.73228 16.9583 9.59881 16.6208 9.33186 16.3625C9.073 16.1042 8.74538 15.975 8.349 15.975C8.14677 15.975 7.94858 16.0167 7.75443 16.1C7.44749 16.2317 7.0467 16.2479 6.84032 15.9853L6.6548 15.7492C6.40723 15.4341 6.44914 14.9805 6.75023 14.7162L8.349 13.3125H6.26844C5.80245 13.3125 5.42469 12.9347 5.42469 12.4688C5.42469 12.0028 5.80245 11.625 6.26844 11.625H10.1821C10.7043 11.625 11.1277 12.0484 11.1277 12.5706C11.1277 12.8435 11.0098 13.103 10.8044 13.2826L9.12558 14.75C9.52196 14.75 9.90216 14.8542 10.2662 15.0625C10.6302 15.2708 10.9255 15.575 11.152 15.975C11.3785 16.375 11.4917 16.8417 11.4917 17.375C11.4917 18 11.3582 18.55 11.0913 19.025C10.8324 19.4917 10.4644 19.8542 9.9871 20.1125C9.50983 20.3708 8.95975 20.5 8.33687 20.5Z" fill="white"/>
<path d="M15.7122 20.5C15.1702 20.5 14.6444 20.3583 14.1348 20.075C13.6251 19.7833 13.2045 19.3292 12.8728 18.7125C12.5492 18.0958 12.3875 17.3167 12.3875 16.375C12.3875 14.925 12.6787 13.75 13.2611 12.85C13.8436 11.95 14.7253 11.5 15.9063 11.5C16.7476 11.5 17.4231 11.7083 17.9327 12.125C18.2713 12.392 18.532 12.7338 18.7148 13.1505C18.8881 13.5452 18.6252 13.971 18.2129 14.0969C17.7299 14.2443 17.2579 13.8788 16.8849 13.5383C16.8705 13.5252 16.8557 13.5124 16.8407 13.5C16.598 13.2917 16.2663 13.1875 15.8457 13.1875C15.336 13.1875 14.9154 13.4042 14.5837 13.8375C14.2521 14.2625 14.0862 14.875 14.0862 15.675V15.6875C14.2723 15.3458 14.5473 15.075 14.9113 14.875C15.2835 14.6667 15.692 14.5625 16.1369 14.5625C16.6465 14.5625 17.0995 14.6792 17.4959 14.9125C17.9004 15.1375 18.2159 15.4625 18.4424 15.8875C18.677 16.3125 18.7942 16.8083 18.7942 17.375C18.7942 18.0083 18.6648 18.5625 18.406 19.0375C18.1471 19.5042 17.7831 19.8667 17.3139 20.125C16.8528 20.375 16.3189 20.5 15.7122 20.5ZM15.7365 18.8125C16.1167 18.8125 16.416 18.6833 16.6344 18.425C16.8609 18.1667 16.9741 17.8583 16.9741 17.5C16.9741 17.1417 16.8609 16.8333 16.6344 16.575C16.416 16.3167 16.1167 16.1875 15.7365 16.1875C15.3563 16.1875 15.057 16.3167 14.8385 16.575C14.6201 16.8333 14.5109 17.1417 14.5109 17.5C14.5109 17.8583 14.6201 18.1667 14.8385 18.425C15.057 18.6833 15.3563 18.8125 15.7365 18.8125Z" fill="white"/>
<path d="M23.4205 20.5C22.7005 20.5 22.0695 20.3167 21.5275 19.95C20.9856 19.5833 20.5689 19.0625 20.2777 18.3875C19.9865 17.7042 19.8409 16.9083 19.8409 16C19.8409 15.0917 19.9865 14.3 20.2777 13.625C20.5689 12.9417 20.9856 12.4167 21.5275 12.05C22.0695 11.6833 22.7005 11.5 23.4205 11.5C24.1404 11.5 24.7714 11.6833 25.3134 12.05C25.8554 12.4167 26.272 12.9417 26.5632 13.625C26.8544 14.3 27 15.0917 27 16C27 16.9083 26.8544 17.7042 26.5632 18.3875C26.272 19.0625 25.8554 19.5833 25.3134 19.95C24.7714 20.3167 24.1404 20.5 23.4205 20.5ZM23.4205 18.8125C23.9786 18.8125 24.3993 18.5625 24.6824 18.0625C24.9736 17.5625 25.1192 16.875 25.1192 16C25.1192 15.125 24.9736 14.4375 24.6824 13.9375C24.3993 13.4375 23.9786 13.1875 23.4205 13.1875C22.8623 13.1875 22.4376 13.4375 22.1464 13.9375C21.8632 14.4375 21.7217 15.125 21.7217 16C21.7217 16.875 21.8632 17.5625 22.1464 18.0625C22.4376 18.5625 22.8623 18.8125 23.4205 18.8125Z" fill="white"/>
<path fill-rule="evenodd" clip-rule="evenodd" d="M3 8.02974V23.9703C3.03708 23.9854 3.09287 24 3.16667 24H28.8333C28.9071 24 28.9629 23.9854 29 23.9703V8.02974C28.9629 8.0146 28.9071 8 28.8333 8H3.16667C3.09287 8 3.03708 8.0146 3 8.02974ZM1 7.9C1 6.62486 2.22686 6 3.16667 6H28.8333C29.7731 6 31 6.62486 31 7.9V24.1C31 25.3751 29.7731 26 28.8333 26H3.16667C2.22686 26 1 25.3751 1 24.1V7.9Z" fill="white"/>
</svg>
