<svg width="32" height="32" viewBox="0 0 32 32" fill="none" xmlns="http://www.w3.org/2000/svg">
<path fill-rule="evenodd" clip-rule="evenodd" d="M7 5C7.55228 5 8 5.44772 8 6C8 6.39397 7.9224 6.78407 7.77164 7.14805C7.62087 7.51203 7.3999 7.84274 7.12132 8.12132C6.84274 8.3999 6.51203 8.62087 6.14805 8.77164C5.78407 8.9224 5.39397 9 5 9C4.44772 9 4 8.55228 4 8C4 7.44772 4.44772 7 5 7C5.13132 7 5.26136 6.97413 5.38268 6.92388C5.50401 6.87363 5.61425 6.79997 5.70711 6.70711C5.79997 6.61425 5.87362 6.50401 5.92388 6.38268C5.97413 6.26136 6 6.13132 6 6C6 5.44772 6.44772 5 7 5Z" fill="url(#paint0_linear_407_54195)"/>
<path fill-rule="evenodd" clip-rule="evenodd" d="M11 5C11.5523 5 12 5.44772 12 6C12 6.91925 11.8189 7.82951 11.4672 8.67878C11.1154 9.52806 10.5998 10.2997 9.94975 10.9497C9.29974 11.5998 8.52806 12.1154 7.67878 12.4672C6.8295 12.8189 5.91925 13 5 13C4.44772 13 4 12.5523 4 12C4 11.4477 4.44772 11 5 11C5.65661 11 6.30679 10.8707 6.91342 10.6194C7.52005 10.3681 8.07124 9.99983 8.53553 9.53553C8.99983 9.07124 9.36812 8.52005 9.6194 7.91342C9.87067 7.30679 10 6.65661 10 6C10 5.44772 10.4477 5 11 5Z" fill="url(#paint1_linear_407_54195)"/>
<path fill-rule="evenodd" clip-rule="evenodd" d="M16 5C16.5523 5 17 5.44772 17 6C17 7.57586 16.6896 9.13629 16.0866 10.5922C15.4835 12.0481 14.5996 13.371 13.4853 14.4853C12.371 15.5996 11.0481 16.4835 9.5922 17.0866C8.13629 17.6896 6.57586 18 5 18C4.44772 18 4 17.5523 4 17C4 16.4477 4.44772 16 5 16C6.31322 16 7.61358 15.7413 8.82683 15.2388C10.0401 14.7362 11.1425 13.9997 12.0711 13.0711C12.9997 12.1425 13.7362 11.0401 14.2388 9.82683C14.7413 8.61358 15 7.31322 15 6C15 5.44772 15.4477 5 16 5Z" fill="url(#paint2_linear_407_54195)"/>
<path fill-rule="evenodd" clip-rule="evenodd" d="M27 25C26.7348 25 26.4804 25.1054 26.2929 25.2929C26.1054 25.4804 26 25.7348 26 26C26 26.5523 25.5523 27 25 27C24.4477 27 24 26.5523 24 26C24 25.2044 24.3161 24.4413 24.8787 23.8787C25.4413 23.3161 26.2044 23 27 23C27.5523 23 28 23.4477 28 24C28 24.5523 27.5523 25 27 25Z" fill="url(#paint3_linear_407_54195)"/>
<path fill-rule="evenodd" clip-rule="evenodd" d="M27 21C26.7363 21 26.4749 21.0208 26.2178 21.0615C25.6723 21.1479 25.1601 20.7758 25.0737 20.2303C24.9873 19.6848 25.3594 19.1726 25.9049 19.0862C26.2649 19.0291 26.631 19 27 19C27.5523 19 28 19.4477 28 20C28 20.5523 27.5523 21 27 21ZM24.2823 20.5581C24.6069 21.0049 24.5079 21.6303 24.0611 21.9549C23.8505 22.1079 23.6509 22.278 23.4645 22.4645C23.278 22.6509 23.1079 22.8505 22.9549 23.0611C22.6303 23.5079 22.0049 23.6069 21.5581 23.2823C21.1113 22.9577 21.0122 22.3323 21.3368 21.8855C21.5511 21.5906 21.7893 21.3112 22.0503 21.0503C22.3112 20.7893 22.5906 20.5511 22.8855 20.3368C23.3323 20.0122 23.9577 20.1113 24.2823 20.5581ZM21.2303 24.0737C21.7758 24.1601 22.1479 24.6723 22.0615 25.2178C22.0208 25.4749 22 25.7363 22 26C22 26.5523 21.5523 27 21 27C20.4477 27 20 26.5523 20 26C20 25.631 20.0291 25.2649 20.0862 24.9049C20.1726 24.3594 20.6848 23.9873 21.2303 24.0737Z" fill="url(#paint4_linear_407_54195)"/>
<path fill-rule="evenodd" clip-rule="evenodd" d="M27 16C26.7372 16 26.4754 16.0103 26.2153 16.0308C25.6648 16.0741 25.1833 15.6629 25.14 15.1123C25.0967 14.5617 25.5079 14.0803 26.0585 14.037C26.3706 14.0124 26.6847 14 27 14C27.5523 14 28 14.4477 28 15C28 15.5523 27.5523 16 27 16ZM24.5518 15.2293C24.7225 15.7546 24.4351 16.3187 23.9098 16.4894C23.4116 16.6513 22.9268 16.8521 22.4601 17.0899C21.968 17.3407 21.3658 17.145 21.1151 16.6529C20.8644 16.1608 21.06 15.5586 21.5521 15.3079C22.1122 15.0225 22.6939 14.7816 23.2918 14.5873C23.817 14.4166 24.3812 14.7041 24.5518 15.2293ZM20.6165 16.986C20.9752 17.406 20.9255 18.0372 20.5056 18.3959C20.3072 18.5653 20.1148 18.7431 19.9289 18.9289C19.7431 19.1148 19.5653 19.3072 19.3959 19.5056C19.0372 19.9255 18.406 19.9752 17.986 19.6165C17.5661 19.2578 17.5164 18.6266 17.8751 18.2066C18.0785 17.9685 18.2918 17.7377 18.5147 17.5147C18.7377 17.2918 18.9685 17.0785 19.2066 16.8751C19.6266 16.5164 20.2578 16.5661 20.6165 16.986ZM17.6529 20.1151C18.145 20.3658 18.3407 20.968 18.0899 21.4601C17.8521 21.9268 17.6513 22.4116 17.4894 22.9098C17.3187 23.4351 16.7546 23.7225 16.2293 23.5518C15.7041 23.3812 15.4166 22.817 15.5873 22.2918C15.7816 21.6939 16.0225 21.1122 16.3079 20.5521C16.5586 20.06 17.1608 19.8644 17.6529 20.1151ZM16.1123 24.14C16.6629 24.1833 17.0741 24.6648 17.0308 25.2153C17.0103 25.4754 17 25.7372 17 26C17 26.5523 16.5523 27 16 27C15.4477 27 15 26.5523 15 26C15 25.6847 15.0124 25.3706 15.037 25.0585C15.0803 24.5079 15.5617 24.0967 16.1123 24.14Z" fill="url(#paint5_linear_407_54195)"/>
<path fill-rule="evenodd" clip-rule="evenodd" d="M25.7071 6.29289C26.0976 6.68342 26.0976 7.31658 25.7071 7.70711L7.70711 25.7071C7.31658 26.0976 6.68342 26.0976 6.29289 25.7071C5.90237 25.3166 5.90237 24.6834 6.29289 24.2929L24.2929 6.29289C24.6834 5.90237 25.3166 5.90237 25.7071 6.29289Z" fill="url(#paint6_linear_407_54195)"/>
<defs>
<linearGradient id="paint0_linear_407_54195" x1="16" y1="5" x2="16" y2="27" gradientUnits="userSpaceOnUse">
<stop stop-color="#FFCD8A"/>
<stop offset="1" stop-color="#FF7C37"/>
</linearGradient>
<linearGradient id="paint1_linear_407_54195" x1="16" y1="5" x2="16" y2="27" gradientUnits="userSpaceOnUse">
<stop stop-color="#FFCD8A"/>
<stop offset="1" stop-color="#FF7C37"/>
</linearGradient>
<linearGradient id="paint2_linear_407_54195" x1="16" y1="5" x2="16" y2="27" gradientUnits="userSpaceOnUse">
<stop stop-color="#FFCD8A"/>
<stop offset="1" stop-color="#FF7C37"/>
</linearGradient>
<linearGradient id="paint3_linear_407_54195" x1="16" y1="5" x2="16" y2="27" gradientUnits="userSpaceOnUse">
<stop stop-color="#FFCD8A"/>
<stop offset="1" stop-color="#FF7C37"/>
</linearGradient>
<linearGradient id="paint4_linear_407_54195" x1="16" y1="5" x2="16" y2="27" gradientUnits="userSpaceOnUse">
<stop stop-color="#FFCD8A"/>
<stop offset="1" stop-color="#FF7C37"/>
</linearGradient>
<linearGradient id="paint5_linear_407_54195" x1="16" y1="5" x2="16" y2="27" gradientUnits="userSpaceOnUse">
<stop stop-color="#FFCD8A"/>
<stop offset="1" stop-color="#FF7C37"/>
</linearGradient>
<linearGradient id="paint6_linear_407_54195" x1="16" y1="5" x2="16" y2="27" gradientUnits="userSpaceOnUse">
<stop stop-color="#FFCD8A"/>
<stop offset="1" stop-color="#FF7C37"/>
</linearGradient>
</defs>
</svg>
