<svg width="32" height="32" viewBox="0 0 32 32" fill="none" xmlns="http://www.w3.org/2000/svg">
<path fill-rule="evenodd" clip-rule="evenodd" d="M15 5.04484C9.3935 5.55007 5 10.262 5 16C5 21.738 9.3935 26.4499 15 26.9552V5.04484ZM17 5.04484V7H22.3262C20.793 5.92032 18.9715 5.2225 17 5.04484ZM24.4857 9H17V11H25.8006C25.4348 10.2844 24.9929 9.61422 24.4857 9ZM26.5859 13H17V15H26.9552C26.8933 14.3132 26.7682 13.6446 26.5859 13ZM26.9552 17H17V19H26.5859C26.7682 18.3554 26.8933 17.6868 26.9552 17ZM25.8006 21H17V23H24.4857C24.9929 22.3858 25.4348 21.7156 25.8006 21ZM22.3262 25H17V26.9552C18.9715 26.7775 20.793 26.0797 22.3262 25ZM3 16C3 8.8203 8.8203 3 16 3C23.1797 3 29 8.8203 29 16C29 23.1797 23.1797 29 16 29C8.8203 29 3 23.1797 3 16Z" fill="url(#paint0_linear_407_54117)"/>
<defs>
<linearGradient id="paint0_linear_407_54117" x1="16" y1="3" x2="16" y2="29" gradientUnits="userSpaceOnUse">
<stop stop-color="#FFCD8A"/>
<stop offset="1" stop-color="#FF7C37"/>
</linearGradient>
</defs>
</svg>
