<svg width="32" height="32" viewBox="0 0 32 32" fill="none" xmlns="http://www.w3.org/2000/svg">
<path fill-rule="evenodd" clip-rule="evenodd" d="M2.99999 18C2.99999 17.589 2.80402 17.1406 2.35757 16.7664C1.93433 16.4116 1.87884 15.7808 2.23364 15.3576C2.58845 14.9344 3.21917 14.8789 3.64242 15.2337C4.47935 15.9353 4.99999 16.9201 4.99999 18C4.99999 19.0799 4.47935 20.0648 3.64242 20.7664C3.21917 21.1212 2.58845 21.0657 2.23364 20.6424C1.87884 20.2192 1.93433 19.5885 2.35757 19.2337C2.80402 18.8594 2.99999 18.411 2.99999 18Z" fill="url(#paint0_linear_407_54202)"/>
<path fill-rule="evenodd" clip-rule="evenodd" d="M6.99999 18C6.99999 16.3871 6.38024 14.8414 5.2782 13.6921C4.89596 13.2935 4.90925 12.6605 5.30789 12.2782C5.70652 11.896 6.33955 11.9093 6.72179 12.3079C8.18425 13.8331 8.99999 15.8761 8.99999 18C8.99999 20.1239 8.18425 22.1669 6.72179 23.6921C6.33955 24.0908 5.70652 24.1041 5.30788 23.7218C4.90925 23.3396 4.89596 22.7066 5.2782 22.3079C6.38024 21.1586 6.99999 19.6129 6.99999 18Z" fill="url(#paint1_linear_407_54202)"/>
<path fill-rule="evenodd" clip-rule="evenodd" d="M16 5.00002C16.411 5.00002 16.8594 4.80406 17.2336 4.3576C17.5884 3.93436 18.2192 3.87887 18.6424 4.23367C19.0657 4.58848 19.1211 5.21921 18.7663 5.64245C18.0647 6.47938 17.0799 7.00002 16 7.00002C14.9201 7.00002 13.9352 6.47938 13.2336 5.64245C12.8788 5.2192 12.9343 4.58848 13.3576 4.23367C13.7808 3.87887 14.4115 3.93436 14.7663 4.3576C15.1406 4.80406 15.589 5.00002 16 5.00002Z" fill="url(#paint2_linear_407_54202)"/>
<path fill-rule="evenodd" clip-rule="evenodd" d="M16 9.00002C17.6129 9.00002 19.1586 8.38027 20.3079 7.27823C20.7065 6.89599 21.3395 6.90928 21.7218 7.30792C22.104 7.70655 22.0907 8.33958 21.6921 8.72182C20.1669 10.1843 18.1239 11 16 11C13.8761 11 11.8331 10.1843 10.3079 8.72182C9.90925 8.33958 9.89596 7.70655 10.2782 7.30791C10.6604 6.90928 11.2935 6.89599 11.6921 7.27823C12.8414 8.38027 14.3871 9.00002 16 9.00002Z" fill="url(#paint3_linear_407_54202)"/>
<path fill-rule="evenodd" clip-rule="evenodd" d="M29 18C29 18.411 29.196 18.8594 29.6424 19.2337C30.0657 19.5885 30.1211 20.2192 29.7663 20.6424C29.4115 21.0657 28.7808 21.1212 28.3576 20.7664C27.5206 20.0648 27 19.0799 27 18C27 16.9201 27.5206 15.9353 28.3576 15.2337C28.7808 14.8789 29.4115 14.9344 29.7663 15.3576C30.1211 15.7808 30.0657 16.4116 29.6424 16.7664C29.196 17.1406 29 17.589 29 18Z" fill="url(#paint4_linear_407_54202)"/>
<path fill-rule="evenodd" clip-rule="evenodd" d="M25 18C25 19.6129 25.6197 21.1586 26.7218 22.3079C27.104 22.7066 27.0907 23.3396 26.6921 23.7218C26.2935 24.1041 25.6604 24.0908 25.2782 23.6921C23.8157 22.1669 23 20.1239 23 18C23 15.8761 23.8157 13.8331 25.2782 12.3079C25.6604 11.9093 26.2935 11.896 26.6921 12.2782C27.0907 12.6605 27.104 13.2935 26.7218 13.6921C25.6197 14.8414 25 16.3871 25 18Z" fill="url(#paint5_linear_407_54202)"/>
<path fill-rule="evenodd" clip-rule="evenodd" d="M16 15C14.3431 15 13 16.3432 13 18C13 19.6569 14.3431 21 16 21C17.6568 21 19 19.6569 19 18C19 16.3432 17.6568 15 16 15ZM11 18C11 15.2386 13.2386 13 16 13C18.7614 13 21 15.2386 21 18C21 20.7614 18.7614 23 16 23C13.2386 23 11 20.7614 11 18Z" fill="url(#paint6_linear_407_54202)"/>
<path fill-rule="evenodd" clip-rule="evenodd" d="M16 24C14.9699 24 13.9515 24.3105 13.0535 24.9092C12.1543 25.5086 11.4066 26.3771 10.9021 27.4316C10.6637 27.9298 10.0666 28.1405 9.56839 27.9021C9.07019 27.6637 8.85956 27.0666 9.09793 26.5684C9.74907 25.2075 10.7291 24.0551 11.9441 23.2451C13.1603 22.4343 14.5627 22 16 22C17.4373 22 18.8397 22.4343 20.0559 23.2451C21.2709 24.0551 22.2509 25.2075 22.9021 26.5684C23.1404 27.0666 22.9298 27.6637 22.4316 27.9021C21.9334 28.1405 21.3363 27.9298 21.0979 27.4316C20.5934 26.3771 19.8457 25.5086 18.9465 24.9092C18.0485 24.3105 17.0301 24 16 24Z" fill="url(#paint7_linear_407_54202)"/>
<defs>
<linearGradient id="paint0_linear_407_54202" x1="16" y1="4" x2="16" y2="28.0003" gradientUnits="userSpaceOnUse">
<stop stop-color="#FFDA61"/>
<stop offset="1" stop-color="#FF9C25"/>
</linearGradient>
<linearGradient id="paint1_linear_407_54202" x1="16" y1="4" x2="16" y2="28.0003" gradientUnits="userSpaceOnUse">
<stop stop-color="#FFDA61"/>
<stop offset="1" stop-color="#FF9C25"/>
</linearGradient>
<linearGradient id="paint2_linear_407_54202" x1="16" y1="4" x2="16" y2="28.0003" gradientUnits="userSpaceOnUse">
<stop stop-color="#FFDA61"/>
<stop offset="1" stop-color="#FF9C25"/>
</linearGradient>
<linearGradient id="paint3_linear_407_54202" x1="16" y1="4" x2="16" y2="28.0003" gradientUnits="userSpaceOnUse">
<stop stop-color="#FFDA61"/>
<stop offset="1" stop-color="#FF9C25"/>
</linearGradient>
<linearGradient id="paint4_linear_407_54202" x1="16" y1="4" x2="16" y2="28.0003" gradientUnits="userSpaceOnUse">
<stop stop-color="#FFDA61"/>
<stop offset="1" stop-color="#FF9C25"/>
</linearGradient>
<linearGradient id="paint5_linear_407_54202" x1="16" y1="4" x2="16" y2="28.0003" gradientUnits="userSpaceOnUse">
<stop stop-color="#FFDA61"/>
<stop offset="1" stop-color="#FF9C25"/>
</linearGradient>
<linearGradient id="paint6_linear_407_54202" x1="16" y1="4" x2="16" y2="28.0003" gradientUnits="userSpaceOnUse">
<stop stop-color="#FFDA61"/>
<stop offset="1" stop-color="#FF9C25"/>
</linearGradient>
<linearGradient id="paint7_linear_407_54202" x1="16" y1="4" x2="16" y2="28.0003" gradientUnits="userSpaceOnUse">
<stop stop-color="#FFDA61"/>
<stop offset="1" stop-color="#FF9C25"/>
</linearGradient>
</defs>
</svg>
