<svg width="32" height="32" viewBox="0 0 32 32" fill="none" xmlns="http://www.w3.org/2000/svg">
<path fill-rule="evenodd" clip-rule="evenodd" d="M5.8727 7.21569C4.97721 8.31336 4.46 9.88479 4.46 11.7C4.46 13.5527 5.15132 17.6451 6.38883 21.2819C7.00607 23.0959 7.73679 24.7278 8.54117 25.8868C9.37728 27.0915 10.1168 27.54 10.7 27.54C11.5327 27.54 11.8962 27.2803 12.1149 27.0042C12.3886 26.6585 12.5506 26.1423 12.7002 25.4245C12.7238 25.3112 12.7476 25.1885 12.7726 25.0594C12.8838 24.4856 13.0192 23.7873 13.2698 23.2406C13.4376 22.8746 13.6876 22.4943 14.0826 22.2095C14.4887 21.9167 14.9704 21.7807 15.5 21.7807C16.0296 21.7807 16.5113 21.9167 16.9174 22.2095C17.3124 22.4943 17.5624 22.8746 17.7302 23.2406C17.9808 23.7873 18.1162 24.4856 18.2274 25.0594C18.2524 25.1885 18.2762 25.3112 18.2998 25.4245C18.4494 26.1423 18.6114 26.6585 18.8851 27.0042C19.1038 27.2803 19.4673 27.54 20.3 27.54C20.8172 27.54 21.4636 27.1905 22.2078 26.2298C22.9319 25.2949 23.6099 23.9531 24.2083 22.3962C24.3986 21.9014 24.954 21.6544 25.4489 21.8446C25.9438 22.0349 26.1907 22.5903 26.0005 23.0852C25.3716 24.7211 24.6138 26.2589 23.7257 27.4055C22.8576 28.5262 21.7155 29.46 20.3 29.46C18.9727 29.46 18.0162 28.9998 17.3799 28.196C16.7986 27.4619 16.5706 26.5383 16.4202 25.8162C16.3816 25.6308 16.3478 25.4596 16.3165 25.3009C16.2089 24.7556 16.1305 24.3583 15.9848 24.0406C15.9051 23.8666 15.8363 23.7971 15.7945 23.7669C15.7637 23.7447 15.6904 23.7007 15.5 23.7007C15.3096 23.7007 15.2363 23.7447 15.2055 23.7669C15.1637 23.7971 15.0949 23.8666 15.0152 24.0406C14.8695 24.3583 14.7911 24.7556 14.6835 25.3009C14.6522 25.4596 14.6184 25.6308 14.5798 25.8162C14.4294 26.5383 14.2014 27.4619 13.6201 28.196C12.9838 28.9998 12.0273 29.46 10.7 29.46C9.12319 29.46 7.88272 28.3055 6.96384 26.9816C6.01321 25.6119 5.21393 23.7894 4.57117 21.9004C3.28868 18.1314 2.54 13.8238 2.54 11.7C2.54 9.53878 3.15457 7.5102 4.38497 6.00199C5.63201 4.47338 7.46619 3.54001 9.74 3.54001C11.1587 3.54001 12.1578 4.11812 12.9605 4.58253C12.9873 4.59804 13.0139 4.61343 13.0402 4.62866C13.8633 5.10396 14.5197 5.46001 15.5 5.46001C16.4803 5.46001 17.1367 5.10396 17.9598 4.62866C17.9861 4.61343 18.0127 4.59804 18.0396 4.58253C18.8422 4.11812 19.8413 3.54001 21.26 3.54001C23.5338 3.54001 25.368 4.47338 26.615 6.00199C27.8454 7.5102 28.46 9.53878 28.46 11.7C28.46 12.2302 28.0302 12.66 27.5 12.66C26.9698 12.66 26.54 12.2302 26.54 11.7C26.54 9.88479 26.0228 8.31336 25.1273 7.21569C24.2485 6.13841 22.9626 5.46001 21.26 5.46001C20.3708 5.46001 19.7663 5.80263 18.9199 6.29136C18.0805 6.77606 17.0345 7.38001 15.5 7.38001C13.9655 7.38001 12.9195 6.77606 12.0801 6.29136C11.2338 5.80263 10.6292 5.46001 9.74 5.46001C8.03736 5.46001 6.75154 6.13841 5.8727 7.21569Z" fill="white"/>
<path d="M27.4039 14.3787C27.2777 13.8738 26.56 13.8738 26.4338 14.3787L25.9854 16.1722C25.944 16.338 25.8207 16.4712 25.6585 16.5253L24.3419 16.9641C23.886 17.1161 23.886 17.7608 24.3419 17.9128L25.6585 18.3517C25.8207 18.4057 25.944 18.5389 25.9854 18.7047L26.4338 20.4982C26.56 21.0031 27.2777 21.0031 27.4039 20.4982L27.8523 18.7047C27.8938 18.5389 28.0171 18.4057 28.1793 18.3517L29.4958 17.9128C29.9517 17.7608 29.9517 17.1161 29.4958 16.9641L28.1793 16.5253C28.0171 16.4712 27.8938 16.338 27.8523 16.1722L27.4039 14.3787Z" fill="white"/>
</svg>
