<svg width="32" height="32" viewBox="0 0 32 32" fill="none" xmlns="http://www.w3.org/2000/svg">
<path fill-rule="evenodd" clip-rule="evenodd" d="M5 6C5 4.89543 5.89543 4 7 4H23C24.1046 4 25 4.89543 25 6V12C25 12.5523 24.5523 13 24 13C23.4477 13 23 12.5523 23 12V6L7 6V22H16C16.5523 22 17 22.4477 17 23C17 23.5523 16.5523 24 16 24H7C5.89543 24 5 23.1046 5 22V6ZM13.5281 11.1183C13.8533 10.9443 14.2478 10.9634 14.5547 11.1679L17.5547 13.1679C17.8329 13.3534 18 13.6656 18 14C18 14.3344 17.8329 14.6466 17.5547 14.8321L14.5547 16.8321C14.2478 17.0366 13.8533 17.0557 13.5281 16.8817C13.203 16.7077 13 16.3688 13 16V12C13 11.6312 13.203 11.2923 13.5281 11.1183ZM23 16C21.3431 16 20 17.3431 20 19C20 20.6569 21.3431 22 23 22C24.6569 22 26 20.6569 26 19C26 17.3431 24.6569 16 23 16ZM26.2672 22.785C27.3284 21.8681 28 20.5125 28 19C28 16.2386 25.7614 14 23 14C20.2386 14 18 16.2386 18 19C18 20.5125 18.6716 21.8681 19.7328 22.785C19.4626 22.9214 19.1993 23.0749 18.9441 23.245C17.7291 24.055 16.7491 25.2075 16.0979 26.5684C15.8596 27.0666 16.0702 27.6637 16.5684 27.9021C17.0666 28.1404 17.6637 27.9298 17.9021 27.4316C18.4066 26.3771 19.1543 25.5086 20.0535 24.9091C20.9515 24.3105 21.9699 24 23 24C24.0301 24 25.0485 24.3105 25.9465 24.9091C26.8457 25.5086 27.5934 26.3771 28.0979 27.4316C28.3363 27.9298 28.9334 28.1404 29.4316 27.9021C29.9298 27.6637 30.1404 27.0666 29.9021 26.5684C29.2509 25.2075 28.2709 24.055 27.0559 23.245C26.8007 23.0749 26.5374 22.9214 26.2672 22.785Z" fill="white"/>
</svg>
