<svg width="32" height="32" viewBox="0 0 32 32" fill="none" xmlns="http://www.w3.org/2000/svg">
<path fill-rule="evenodd" clip-rule="evenodd" d="M21.5 5C21.5 4.44772 21.9477 4 22.5 4H26C26.5304 4 27.0391 4.21071 27.4142 4.58579C27.7893 4.96086 28 5.46957 28 6V9.5C28 10.0523 27.5523 10.5 27 10.5C26.4477 10.5 26 10.0523 26 9.5V6L22.5 6C21.9477 6 21.5 5.55228 21.5 5Z" fill="url(#paint0_linear_407_54138)"/>
<path fill-rule="evenodd" clip-rule="evenodd" d="M27 21.5C27.5523 21.5 28 21.9477 28 22.5V26C28 26.5304 27.7893 27.0391 27.4142 27.4142C27.0391 27.7893 26.5304 28 26 28H22.5C21.9477 28 21.5 27.5523 21.5 27C21.5 26.4477 21.9477 26 22.5 26H26V22.5C26 21.9477 26.4477 21.5 27 21.5Z" fill="url(#paint1_linear_407_54138)"/>
<path fill-rule="evenodd" clip-rule="evenodd" d="M5 21.5C5.55228 21.5 6 21.9477 6 22.5V26H9.5C10.0523 26 10.5 26.4477 10.5 27C10.5 27.5523 10.0523 28 9.5 28H6C5.46957 28 4.96086 27.7893 4.58579 27.4142C4.21071 27.0391 4 26.5304 4 26V22.5C4 21.9477 4.44772 21.5 5 21.5Z" fill="url(#paint2_linear_407_54138)"/>
<path fill-rule="evenodd" clip-rule="evenodd" d="M4.58579 4.58579C4.96086 4.21071 5.46957 4 6 4H9.5C10.0523 4 10.5 4.44772 10.5 5C10.5 5.55228 10.0523 6 9.5 6L6 6L6 9.5C6 10.0523 5.55228 10.5 5 10.5C4.44772 10.5 4 10.0523 4 9.5V6C4 5.46957 4.21071 4.96086 4.58579 4.58579Z" fill="url(#paint3_linear_407_54138)"/>
<path fill-rule="evenodd" clip-rule="evenodd" d="M16.5 7C15.1193 7 14 8.11929 14 9.5C14 10.8807 15.1193 12 16.5 12C17.8807 12 19 10.8807 19 9.5C19 8.11929 17.8807 7 16.5 7ZM12 9.5C12 7.01472 14.0147 5 16.5 5C18.9853 5 21 7.01472 21 9.5C21 11.9853 18.9853 14 16.5 14C14.0147 14 12 11.9853 12 9.5Z" fill="url(#paint4_linear_407_54138)"/>
<path fill-rule="evenodd" clip-rule="evenodd" d="M9.06473 18.3253L9.06641 18.3241L9.07632 18.3174L9.12091 18.2877C9.16134 18.2609 9.22275 18.2207 9.30281 18.1696C9.46308 18.0674 9.69735 17.9221 9.98728 17.7541C10.57 17.4165 11.3641 16.9948 12.2261 16.645C13.0972 16.2914 13.9854 16.0329 14.7681 15.9807C15.5495 15.9286 16.1076 16.0869 16.4842 16.4229L16.4855 16.4241C17.3343 17.1788 18.145 17.5988 19.2117 17.8051C20.201 17.9965 21.4089 18 23 18C23.5523 18 24 17.5523 24 17C24 16.4477 23.5523 16 23 16C21.3411 16 20.3511 15.9885 19.5916 15.8415C18.9097 15.7096 18.4204 15.4681 17.8151 14.93C16.8918 14.1066 15.719 13.9129 14.6351 13.9851C13.5521 14.0573 12.4403 14.3996 11.4739 14.7918C10.4984 15.1877 9.61753 15.6569 8.9846 16.0236C8.66672 16.2078 8.40801 16.3681 8.22727 16.4834C8.13682 16.5411 8.06571 16.5876 8.01625 16.6204C7.99152 16.6368 7.97219 16.6497 7.95855 16.6589L7.94238 16.6699L7.93757 16.6732L7.93599 16.6742C7.93599 16.6742 7.93497 16.6749 8.49985 17.4998L7.93497 16.6749C7.47929 16.987 7.36287 17.6094 7.67493 18.065C7.98692 18.5206 8.60908 18.6371 9.06473 18.3253Z" fill="url(#paint5_linear_407_54138)"/>
<path fill-rule="evenodd" clip-rule="evenodd" d="M16.3328 12.057C16.8536 12.2408 17.1268 12.812 16.943 13.3328L13.943 21.8328C13.8676 22.0464 13.722 22.228 13.53 22.348L9.53 24.848C9.06166 25.1407 8.44471 24.9983 8.152 24.53C7.85929 24.0617 8.00166 23.4447 8.47 23.152L12.1734 20.8374L15.057 12.6672C15.2408 12.1464 15.812 11.8732 16.3328 12.057Z" fill="url(#paint6_linear_407_54138)"/>
<path fill-rule="evenodd" clip-rule="evenodd" d="M13.5862 18.5939C13.8105 18.0892 14.4015 17.8619 14.9061 18.0862L19.4061 20.0862C19.6512 20.1951 19.8422 20.3978 19.9363 20.6489L21.4363 24.6489C21.6302 25.166 21.3682 25.7424 20.8511 25.9363C20.334 26.1302 19.7576 25.8682 19.5637 25.3511L18.2108 21.7436L14.0939 19.9138C13.5892 19.6895 13.3619 19.0985 13.5862 18.5939Z" fill="url(#paint7_linear_407_54138)"/>
<defs>
<linearGradient id="paint0_linear_407_54138" x1="16" y1="4" x2="16" y2="28" gradientUnits="userSpaceOnUse">
<stop stop-color="#D0DBFF"/>
<stop offset="1" stop-color="#446DFF"/>
</linearGradient>
<linearGradient id="paint1_linear_407_54138" x1="16" y1="4" x2="16" y2="28" gradientUnits="userSpaceOnUse">
<stop stop-color="#D0DBFF"/>
<stop offset="1" stop-color="#446DFF"/>
</linearGradient>
<linearGradient id="paint2_linear_407_54138" x1="16" y1="4" x2="16" y2="28" gradientUnits="userSpaceOnUse">
<stop stop-color="#D0DBFF"/>
<stop offset="1" stop-color="#446DFF"/>
</linearGradient>
<linearGradient id="paint3_linear_407_54138" x1="16" y1="4" x2="16" y2="28" gradientUnits="userSpaceOnUse">
<stop stop-color="#D0DBFF"/>
<stop offset="1" stop-color="#446DFF"/>
</linearGradient>
<linearGradient id="paint4_linear_407_54138" x1="16" y1="4" x2="16" y2="28" gradientUnits="userSpaceOnUse">
<stop stop-color="#D0DBFF"/>
<stop offset="1" stop-color="#446DFF"/>
</linearGradient>
<linearGradient id="paint5_linear_407_54138" x1="16" y1="4" x2="16" y2="28" gradientUnits="userSpaceOnUse">
<stop stop-color="#D0DBFF"/>
<stop offset="1" stop-color="#446DFF"/>
</linearGradient>
<linearGradient id="paint6_linear_407_54138" x1="16" y1="4" x2="16" y2="28" gradientUnits="userSpaceOnUse">
<stop stop-color="#D0DBFF"/>
<stop offset="1" stop-color="#446DFF"/>
</linearGradient>
<linearGradient id="paint7_linear_407_54138" x1="16" y1="4" x2="16" y2="28" gradientUnits="userSpaceOnUse">
<stop stop-color="#D0DBFF"/>
<stop offset="1" stop-color="#446DFF"/>
</linearGradient>
</defs>
</svg>
