<svg width="32" height="32" viewBox="0 0 32 32" fill="none" xmlns="http://www.w3.org/2000/svg">
<path fill-rule="evenodd" clip-rule="evenodd" d="M3 8.02974V23.9703C3.03708 23.9854 3.09287 24 3.16667 24H28.8333C28.9071 24 28.9629 23.9854 29 23.9703V8.02974C28.9629 8.0146 28.9071 8 28.8333 8H3.16667C3.09287 8 3.03708 8.0146 3 8.02974ZM1 7.9C1 6.62486 2.22686 6 3.16667 6H28.8333C29.7731 6 31 6.62486 31 7.9V24.1C31 25.3751 29.7731 26 28.8333 26H3.16667C2.22686 26 1 25.3751 1 24.1V7.9Z" fill="white"/>
<path d="M10.4722 11.625C11.0244 11.625 11.4722 12.0753 11.4722 12.6276C11.4722 12.9747 11.2883 13.2934 11.0094 13.5C10.3464 13.9912 9.83708 14.5745 9.48144 15.25C9.0471 16.075 8.82993 17.0458 8.82993 18.1625C8.82993 18.5061 8.8479 18.8565 8.88386 19.2138C8.94472 19.8186 8.49227 20.375 7.88435 20.375C7.41346 20.375 7.00662 20.035 6.9612 19.5663C6.92813 19.2251 6.9116 18.8905 6.9116 18.5625C6.9116 16.4042 7.66767 14.675 9.17981 13.375H6.375C5.89175 13.375 5.5 12.9832 5.5 12.5C5.5 12.0168 5.89175 11.625 6.375 11.625H10.4722Z" fill="white"/>
<path d="M13.2571 20.375C12.7048 20.375 12.2423 19.9235 12.3348 19.3791C12.4258 18.843 12.597 18.3916 12.8483 18.025C13.2505 17.4417 13.7773 16.9667 14.4288 16.6C15.0642 16.2417 15.5267 15.9583 15.8163 15.75C16.1139 15.5417 16.319 15.3417 16.4316 15.15C16.5442 14.9583 16.6005 14.7208 16.6005 14.4375C16.6005 14.0625 16.4718 13.7625 16.2144 13.5375C15.9651 13.3042 15.6313 13.1875 15.213 13.1875C14.827 13.1875 14.5093 13.3083 14.2599 13.55C14.0106 13.7833 13.8859 14.0833 13.8859 14.45C13.8859 14.5737 13.9012 14.6928 13.9319 14.8073C14.0527 15.2587 14.0607 15.8218 13.6787 16.091C13.2425 16.3983 12.6223 16.3507 12.3843 15.8732C12.1789 15.4611 12.0762 15.0033 12.0762 14.5C12.0762 13.9583 12.2089 13.4583 12.4743 13C12.7397 12.5417 13.1137 12.1792 13.5963 11.9125C14.087 11.6375 14.646 11.5 15.2734 11.5C15.9249 11.5 16.4839 11.625 16.9504 11.875C17.425 12.125 17.7869 12.475 18.0362 12.925C18.2856 13.3667 18.4103 13.8708 18.4103 14.4375C18.4103 14.9292 18.3298 15.3458 18.169 15.6875C18.0081 16.0292 17.799 16.3125 17.5416 16.5375C17.2842 16.7625 16.9504 17 16.5402 17.25C15.9128 17.6333 15.4664 17.925 15.201 18.125C14.9436 18.325 14.7867 18.5125 14.7304 18.6875H17.6027C18.0687 18.6875 18.4465 19.0653 18.4465 19.5312C18.4465 19.9972 18.0687 20.375 17.6027 20.375H13.2571Z" fill="white"/>
<path d="M22.9408 20.5C22.225 20.5 21.5976 20.3167 21.0587 19.95C20.5198 19.5833 20.1056 19.0625 19.816 18.3875C19.5265 17.7042 19.3817 16.9083 19.3817 16C19.3817 15.0917 19.5265 14.3 19.816 13.625C20.1056 12.9417 20.5198 12.4167 21.0587 12.05C21.5976 11.6833 22.225 11.5 22.9408 11.5C23.6567 11.5 24.2841 11.6833 24.823 12.05C25.3619 12.4167 25.7761 12.9417 26.0657 13.625C26.3552 14.3 26.5 15.0917 26.5 16C26.5 16.9083 26.3552 17.7042 26.0657 18.3875C25.7761 19.0625 25.3619 19.5833 24.823 19.95C24.2841 20.3167 23.6567 20.5 22.9408 20.5ZM22.9408 18.8125C23.4958 18.8125 23.9141 18.5625 24.1956 18.0625C24.4852 17.5625 24.6299 16.875 24.6299 16C24.6299 15.125 24.4852 14.4375 24.1956 13.9375C23.9141 13.4375 23.4958 13.1875 22.9408 13.1875C22.3858 13.1875 21.9636 13.4375 21.674 13.9375C21.3925 14.4375 21.2517 15.125 21.2517 16C21.2517 16.875 21.3925 17.5625 21.674 18.0625C21.9636 18.5625 22.3858 18.8125 22.9408 18.8125Z" fill="white"/>
</svg>
