<svg width="32" height="32" viewBox="0 0 32 32" fill="none" xmlns="http://www.w3.org/2000/svg">
<path fill-rule="evenodd" clip-rule="evenodd" d="M15.1908 5.0298C15.4594 5.00999 15.7293 5 16 5V3C15.6801 3 15.3611 3.0118 15.0437 3.03522L15.1908 5.0298ZM12.0411 5.73708C12.5451 5.54267 13.0628 5.38563 13.5899 5.26727L13.1517 3.31587C12.5288 3.45575 11.917 3.64133 11.3214 3.87109L12.0411 5.73708ZM9.88872 6.85383C10.1138 6.70345 10.3438 6.5618 10.5781 6.42903L9.59231 4.68887C9.31532 4.84578 9.04354 5.01319 8.77758 5.1909C8.51162 5.3686 8.25295 5.55563 8.00198 5.75149L9.23243 7.32819C9.44479 7.16247 9.66366 7.00421 9.88872 6.85383ZM7.00656 9.66611C7.31761 9.22445 7.66079 8.80629 8.03328 8.41505L6.58477 7.03598C6.14457 7.49835 5.739 7.99253 5.37139 8.51449L7.00656 9.66611ZM5.83732 11.7905C5.9409 11.5404 6.05342 11.2949 6.17453 11.0543L4.38807 10.1551C4.24494 10.4394 4.11197 10.7296 3.98956 11.0251C3.86715 11.3206 3.75598 11.6199 3.65612 11.9221L5.55517 12.5495C5.63967 12.2937 5.73374 12.0406 5.83732 11.7905ZM5.0033 15.7301C5.01656 15.19 5.06959 14.6517 5.16194 14.1194L3.19138 13.7775C3.08224 14.4065 3.01958 15.0427 3.00391 15.681L5.0033 15.7301ZM5.21136 18.146C5.15855 17.8805 5.11569 17.6138 5.08271 17.3465L3.09775 17.5913C3.13673 17.9073 3.18738 18.2225 3.24979 18.5362C3.31219 18.8499 3.38599 19.1604 3.4709 19.4673L5.39845 18.9339C5.32661 18.6742 5.26416 18.4115 5.21136 18.146ZM6.47372 21.5C6.27874 21.1623 6.1018 20.8143 5.94368 20.4577L4.11527 21.2681C4.3093 21.7059 4.52733 22.1325 4.7683 22.5459C4.84863 22.6838 4.9315 22.8201 5.01689 22.955C5.35937 23.4958 5.74039 24.0091 6.15628 24.4913C6.36421 24.7323 6.58142 24.9662 6.80761 25.1924C7.60753 25.9923 8.51187 26.6878 9.5 27.2583C11.4762 28.3993 13.718 29 16 29C18.282 29 20.5237 28.3993 22.5 27.2583C24.4762 26.1173 26.1173 24.4762 27.2583 22.5C28.3993 20.5238 29 18.282 29 16C29 13.718 28.3993 11.4762 27.2583 9.5C26.1173 7.52375 24.4762 5.88266 22.5 4.74167C20.5238 3.60068 18.282 3 16 3V5C17.9309 5 19.8278 5.50827 21.5 6.47372C23.1722 7.43917 24.5608 8.82779 25.5263 10.5C26.4917 12.1722 27 14.0691 27 16C27 17.9309 26.4917 19.8278 25.5263 21.5C24.5608 23.1722 23.1722 24.5608 21.5 25.5263C19.8278 26.4917 17.9309 27 16 27C14.0691 27 12.1722 26.4917 10.5 25.5263C9.66389 25.0436 8.89868 24.455 8.22182 23.7782C8.03042 23.5868 7.84663 23.3889 7.67069 23.1849C7.31879 22.777 6.99639 22.3426 6.70661 21.885C6.62634 21.7582 6.5487 21.6299 6.47372 21.5Z" fill="url(#paint0_linear_407_54152)"/>
<defs>
<linearGradient id="paint0_linear_407_54152" x1="16.002" y1="3" x2="16.002" y2="29" gradientUnits="userSpaceOnUse">
<stop stop-color="#7ADAFF"/>
<stop offset="1" stop-color="#36AAFF"/>
</linearGradient>
</defs>
</svg>
