<svg width="32" height="32" viewBox="0 0 32 32" fill="none" xmlns="http://www.w3.org/2000/svg">
<path d="M8.862 18.5H6C5.44771 18.5 5 18.0523 5 17.5V17.1772C5 16.9043 5.11379 16.6455 5.30188 16.4478C5.64077 16.0916 5.90396 15.7507 6.09144 15.425C6.33131 15 6.48723 14.5667 6.55919 14.125C6.63915 13.675 6.67913 13.1125 6.67913 12.4375C6.67913 11.9888 7.0429 11.625 7.49163 11.625H7.6657C8.11443 11.625 8.4782 11.9888 8.4782 12.4375C8.4782 13.3458 8.37426 14.1458 8.16636 14.8375C7.95847 15.5292 7.58266 16.1875 7.03895 16.8125H8.862V15.2245C8.862 14.7277 9.26474 14.325 9.76154 14.325C10.2583 14.325 10.6611 14.7277 10.6611 15.2245V16.8125H11.1127C11.5786 16.8125 11.9564 17.1903 11.9564 17.6562C11.9564 18.1222 11.5786 18.5 11.1127 18.5H10.6611V19.4755C10.6611 19.9723 10.2583 20.375 9.76154 20.375C9.26474 20.375 8.862 19.9723 8.862 19.4755V18.5Z" fill="white"/>
<path d="M15.7953 20.5C15.1236 20.5 14.5399 20.375 14.0442 20.125C13.5564 19.8667 13.1846 19.5292 12.9287 19.1125C12.6809 18.6958 12.5569 18.2417 12.5569 17.75C12.5569 17.25 12.6729 16.8042 12.9048 16.4125C13.1446 16.0208 13.4885 15.7167 13.9362 15.5C13.6404 15.3167 13.4165 15.0833 13.2646 14.8C13.1126 14.5167 13.0367 14.2083 13.0367 13.875C13.0367 13.4333 13.1486 13.0333 13.3725 12.675C13.6044 12.3167 13.9282 12.0333 14.344 11.825C14.7598 11.6083 15.2435 11.5 15.7953 11.5C16.339 11.5 16.8187 11.6083 17.2345 11.825C17.6583 12.0333 17.9821 12.3167 18.206 12.675C18.4379 13.0333 18.5538 13.4333 18.5538 13.875C18.5538 14.2083 18.4779 14.5167 18.326 14.8C18.174 15.0833 17.9501 15.3167 17.6543 15.5C18.1021 15.7167 18.4419 16.0208 18.6738 16.4125C18.9137 16.8042 19.0336 17.25 19.0336 17.75C19.0336 18.2417 18.9057 18.6958 18.6498 19.1125C18.4019 19.5292 18.0301 19.8667 17.5344 20.125C17.0466 20.375 16.4669 20.5 15.7953 20.5ZM15.7953 14.8125C16.1151 14.8125 16.375 14.7292 16.5749 14.5625C16.7748 14.3958 16.8747 14.1875 16.8747 13.9375C16.8747 13.7125 16.7748 13.5208 16.5749 13.3625C16.375 13.2042 16.1151 13.125 15.7953 13.125C15.4754 13.125 15.2156 13.2042 15.0157 13.3625C14.8158 13.5208 14.7158 13.7125 14.7158 13.9375C14.7158 14.1875 14.8158 14.3958 15.0157 14.5625C15.2156 14.7292 15.4754 14.8125 15.7953 14.8125ZM15.7953 18.75C16.235 18.75 16.5829 18.6417 16.8387 18.425C17.1026 18.2 17.2345 17.9125 17.2345 17.5625C17.2345 17.2125 17.1026 16.9292 16.8387 16.7125C16.5829 16.4875 16.235 16.375 15.7953 16.375C15.3555 16.375 15.0037 16.4875 14.7398 16.7125C14.4839 16.9292 14.356 17.2125 14.356 17.5625C14.356 17.9125 14.4839 18.2 14.7398 18.425C15.0037 18.6417 15.3555 18.75 15.7953 18.75Z" fill="white"/>
<path d="M23.4618 20.5C22.7502 20.5 22.1265 20.3167 21.5908 19.95C21.0551 19.5833 20.6433 19.0625 20.3554 18.3875C20.0676 17.7042 19.9237 16.9083 19.9237 16C19.9237 15.0917 20.0676 14.3 20.3554 13.625C20.6433 12.9417 21.0551 12.4167 21.5908 12.05C22.1265 11.6833 22.7502 11.5 23.4618 11.5C24.1735 11.5 24.7971 11.6833 25.3329 12.05C25.8686 12.4167 26.2804 12.9417 26.5682 13.625C26.8561 14.3 27 15.0917 27 16C27 16.9083 26.8561 17.7042 26.5682 18.3875C26.2804 19.0625 25.8686 19.5833 25.3329 19.95C24.7971 20.3167 24.1735 20.5 23.4618 20.5ZM23.4618 18.8125C24.0135 18.8125 24.4293 18.5625 24.7092 18.0625C24.997 17.5625 25.141 16.875 25.141 16C25.141 15.125 24.997 14.4375 24.7092 13.9375C24.4293 13.4375 24.0135 13.1875 23.4618 13.1875C22.9101 13.1875 22.4903 13.4375 22.2025 13.9375C21.9226 14.4375 21.7827 15.125 21.7827 16C21.7827 16.875 21.9226 17.5625 22.2025 18.0625C22.4903 18.5625 22.9101 18.8125 23.4618 18.8125Z" fill="white"/>
<path fill-rule="evenodd" clip-rule="evenodd" d="M3 8.02974V23.9703C3.03708 23.9854 3.09287 24 3.16667 24H28.8333C28.9071 24 28.9629 23.9854 29 23.9703V8.02974C28.9629 8.0146 28.9071 8 28.8333 8H3.16667C3.09287 8 3.03708 8.0146 3 8.02974ZM1 7.9C1 6.62486 2.22686 6 3.16667 6H28.8333C29.7731 6 31 6.62486 31 7.9V24.1C31 25.3751 29.7731 26 28.8333 26H3.16667C2.22686 26 1 25.3751 1 24.1V7.9Z" fill="white"/>
</svg>
