<svg width="32" height="32" viewBox="0 0 32 32" fill="none" xmlns="http://www.w3.org/2000/svg">
<path d="M23 5H9C8.44772 5 8 5.44772 8 6V26C8 26.5523 8.44772 27 9 27H15C15.5523 27 16 26.5523 16 26V18C16 16.8954 16.8954 16 18 16H23C23.5523 16 24 15.5523 24 15V6C24 5.44772 23.5523 5 23 5Z" fill="white"/>
<path fill-rule="evenodd" clip-rule="evenodd" d="M7 6C7 4.89543 7.89543 4 9 4H23C24.1046 4 25 4.89543 25 6V15C25 16.1046 24.1046 17 23 17H18C17.4477 17 17 17.4477 17 18V26C17 27.1046 16.1046 28 15 28H9C7.89543 28 7 27.1046 7 26V6ZM23 6L9 6V26H15V18C15 16.3431 16.3431 15 18 15L23 15V6Z" fill="white"/>
<path fill-rule="evenodd" clip-rule="evenodd" d="M24 10C24.5523 10 25 10.4477 25 11V26C25 27.1046 24.1046 28 23 28H14C13.4477 28 13 27.5523 13 27C13 26.4477 13.4477 26 14 26H23V11C23 10.4477 23.4477 10 24 10Z" fill="white"/>
</svg>
