<svg width="32" height="32" viewBox="0 0 32 32" fill="none" xmlns="http://www.w3.org/2000/svg">
<path fill-rule="evenodd" clip-rule="evenodd" d="M4 6C4 4.89543 4.89543 4 6 4H10.9998C10.9999 4 10.9997 4 10.9998 4H16.9998C16.9999 4 16.9997 4 16.9998 4H20C21.1046 4 22 4.89543 22 6V6.99902C22 6.99967 22 7.00033 22 7.00098V10H26C27.1046 10 28 10.8954 28 12V26C28 27.1046 27.1046 28 26 28H12C10.8954 28 10 27.1046 10 26V22H7.00098C7.00033 22 6.99967 22 6.99902 22H6C4.89543 22 4 21.1046 4 20V17.0002C4 17.0001 4 17.0003 4 17.0002V11.0002C4 11.0001 4 11.0003 4 11.0002V6ZM6 11.4142V14.5858L14.5858 6H11.4142L6 11.4142ZM8.58579 6L6 8.58579V6H8.58579ZM17.4142 6L13.4142 10H16.5858L20 6.58579V6H17.4142ZM20 9.41421L19.4142 10H20V9.41421ZM12 12V25.9778C12.003 25.8401 12.0346 25.7007 12.0979 25.5684C12.7491 24.2075 13.7291 23.055 14.9441 22.245C15.1993 22.0749 15.4626 21.9214 15.7328 21.785C14.6716 20.8681 14 19.5125 14 18C14 15.2386 16.2386 13 19 13C21.7614 13 24 15.2386 24 18C24 19.5125 23.3284 20.8681 22.2672 21.785C22.5374 21.9214 22.8007 22.0749 23.0559 22.245C24.2709 23.055 25.2509 24.2075 25.9021 25.5684C25.9654 25.7007 25.997 25.8401 26 25.9778V12H12ZM23.8721 26C23.3811 25.1393 22.7199 24.4247 21.9465 23.9091C21.0485 23.3105 20.0301 23 19 23C17.9699 23 16.9515 23.3105 16.0535 23.9091C15.2801 24.4247 14.6189 25.1393 14.1279 26H23.8721ZM10 16.5858V13.4142L6 17.4142V20H6.58579L10 16.5858ZM9.41421 20H10V19.4142L9.41421 20ZM19 15C17.3431 15 16 16.3431 16 18C16 19.6569 17.3431 21 19 21C20.6569 21 22 19.6569 22 18C22 16.3431 20.6569 15 19 15Z" fill="url(#paint0_linear_407_54089)"/>
<defs>
<linearGradient id="paint0_linear_407_54089" x1="16" y1="4" x2="16" y2="28" gradientUnits="userSpaceOnUse">
<stop stop-color="#69F6DA"/>
<stop offset="1" stop-color="#19D858"/>
</linearGradient>
</defs>
</svg>
