<svg width="32" height="32" viewBox="0 0 32 32" fill="none" xmlns="http://www.w3.org/2000/svg">
<path fill-rule="evenodd" clip-rule="evenodd" d="M7.06407 20.1103C6.72701 19.8696 6.64894 19.4011 6.8897 19.0641L9.3897 15.5641C9.63045 15.227 10.0989 15.149 10.4359 15.3897C10.773 15.6305 10.8511 16.0989 10.6103 16.4359L8.1103 19.9359C7.86954 20.273 7.40113 20.3511 7.06407 20.1103Z" fill="white"/>
<path fill-rule="evenodd" clip-rule="evenodd" d="M11.0641 20.1103C10.727 19.8695 10.6489 19.4011 10.8897 19.0641L13.3897 15.5641C13.6305 15.227 14.0989 15.1489 14.4359 15.3897C14.773 15.6305 14.8511 16.0989 14.6103 16.4359L12.1103 19.9359C11.8695 20.273 11.4011 20.3511 11.0641 20.1103Z" fill="white"/>
<path fill-rule="evenodd" clip-rule="evenodd" d="M18.0641 20.1103C17.727 19.8695 17.6489 19.4011 17.8897 19.0641L20.3897 15.5641C20.6305 15.227 21.0989 15.1489 21.4359 15.3897C21.773 15.6305 21.8511 16.0989 21.6103 16.4359L19.1103 19.9359C18.8695 20.273 18.4011 20.3511 18.0641 20.1103Z" fill="white"/>
<path fill-rule="evenodd" clip-rule="evenodd" d="M22.0641 20.1103C21.727 19.8695 21.6489 19.4011 21.8897 19.0641L24.3897 15.5641C24.6305 15.227 25.0989 15.1489 25.4359 15.3897C25.773 15.6305 25.8511 16.0989 25.6103 16.4359L23.1103 19.9359C22.8695 20.273 22.4011 20.3511 22.0641 20.1103Z" fill="white"/>
<path fill-rule="evenodd" clip-rule="evenodd" d="M5.0067 12.6164C4.79811 6.80971 9.47503 2 15.3044 2H16.6956C22.525 2 27.2019 6.8097 26.9933 12.6164L26.8206 17.4253C26.8201 17.4372 26.8195 17.4492 26.8186 17.4611L26.643 19.9052C26.4055 23.2109 24.5764 26.1965 21.7359 27.9222L20.2928 28.799C17.6572 30.4003 14.3428 30.4003 11.7072 28.799L10.2641 27.9222C7.42363 26.1965 5.59447 23.2109 5.35697 19.9052L5.18137 17.4611C5.18052 17.4492 5.17987 17.4372 5.17945 17.4253L5.0067 12.6164ZM15.3044 4C10.5962 4 6.8379 7.88144 7.00541 12.5446L7.17751 17.3356L7.35183 19.7619C7.54268 22.4183 9.01288 24.8218 11.3026 26.213L12.7457 27.0898C14.7432 28.3034 17.2568 28.3034 19.2543 27.0898L20.6974 26.213C22.9871 24.8219 24.4573 22.4183 24.6482 19.7619L24.8225 17.3356L24.9946 12.5446C25.1621 7.88143 21.4038 4 16.6956 4H15.3044Z" fill="white"/>
</svg>
