<svg width="33" height="32" viewBox="0 0 33 32" fill="none" xmlns="http://www.w3.org/2000/svg">
<path fill-rule="evenodd" clip-rule="evenodd" d="M4.5 6C4.5 4.89543 5.39543 4 6.5 4H11.4998C11.4999 4 11.4997 4 11.4998 4H17.4998C17.4999 4 17.4997 4 17.4998 4H20.5C21.6046 4 22.5 4.89543 22.5 6V6.99902C22.5 6.99967 22.5 7.00033 22.5 7.00098V10H26.5C27.6046 10 28.5 10.8954 28.5 12V26C28.5 27.1046 27.6046 28 26.5 28H12.5C11.3954 28 10.5 27.1046 10.5 26V22H7.50098C7.50033 22 7.49967 22 7.49902 22H6.5C5.39543 22 4.5 21.1046 4.5 20V17.0002C4.5 17.0001 4.5 17.0003 4.5 17.0002V11.0002C4.5 11.0001 4.5 11.0003 4.5 11.0002V6ZM6.5 11.4142V14.5858L15.0858 6H11.9142L6.5 11.4142ZM9.08579 6L6.5 8.58579V6H9.08579ZM17.9142 6L13.9142 10H17.0858L20.5 6.58579V6H17.9142ZM20.5 9.41421L19.9142 10H20.5V9.41421ZM12.5 12V25.9778C12.503 25.8401 12.5346 25.7007 12.5979 25.5684C13.2491 24.2075 14.2291 23.055 15.4441 22.245C15.6993 22.0749 15.9626 21.9214 16.2328 21.785C15.1716 20.8681 14.5 19.5125 14.5 18C14.5 15.2386 16.7386 13 19.5 13C22.2614 13 24.5 15.2386 24.5 18C24.5 19.5125 23.8284 20.8681 22.7672 21.785C23.0374 21.9214 23.3007 22.0749 23.5559 22.245C24.7709 23.055 25.7509 24.2075 26.4021 25.5684C26.4654 25.7007 26.497 25.8401 26.5 25.9778V12H12.5ZM24.3721 26C23.8811 25.1393 23.2199 24.4247 22.4465 23.9091C21.5485 23.3105 20.5301 23 19.5 23C18.4699 23 17.4515 23.3105 16.5535 23.9091C15.7801 24.4247 15.1189 25.1393 14.6279 26H24.3721ZM10.5 16.5858V13.4142L6.5 17.4142V20H7.08579L10.5 16.5858ZM9.91421 20H10.5V19.4142L9.91421 20ZM19.5 15C17.8431 15 16.5 16.3431 16.5 18C16.5 19.6569 17.8431 21 19.5 21C21.1569 21 22.5 19.6569 22.5 18C22.5 16.3431 21.1569 15 19.5 15Z" fill="url(#paint0_linear_367_1575)"/>
<defs>
<linearGradient id="paint0_linear_367_1575" x1="16.5" y1="4" x2="16.5" y2="28" gradientUnits="userSpaceOnUse">
<stop stop-color="#69F6DA"/>
<stop offset="1" stop-color="#19D858"/>
</linearGradient>
</defs>
</svg>
