<svg width="32" height="32" viewBox="0 0 32 32" fill="none" xmlns="http://www.w3.org/2000/svg">
<path fill-rule="evenodd" clip-rule="evenodd" d="M18.5 3C19.0523 3 19.5 3.44772 19.5 4C19.5 11.3543 20.1168 14.3172 22.0496 16.3008C23.5911 17.883 25 19.8847 25 22.4386C25 23.6648 24.4026 24.5154 23.5488 25.1412C22.7783 25.7059 21.7212 26.1438 20.6396 26.5919L20.5913 26.612C20.3526 26.7108 20.0828 26.8578 19.7569 27.0483C19.6652 27.1019 19.5669 27.1602 19.4644 27.2211C19.2259 27.3628 18.9642 27.5182 18.7078 27.6596C17.9734 28.0648 17.0388 28.5 16 28.5C14.9612 28.5 14.0266 28.0648 13.2922 27.6596C13.0358 27.5182 12.7742 27.3628 12.5356 27.2211C12.4331 27.1602 12.3348 27.1019 12.2431 27.0483C11.9172 26.8578 11.6474 26.7108 11.4088 26.612L11.3604 26.5919C10.2788 26.1438 9.2217 25.7059 8.45121 25.1412C7.59738 24.5154 7 23.6648 7 22.4386C7 19.9462 8.18976 17.7301 10.0342 16.2241C10.462 15.8748 11.092 15.9385 11.4413 16.3662C11.7906 16.794 11.7269 17.424 11.2991 17.7733C9.87025 18.94 9 20.608 9 22.4386C9 22.8787 9.16051 23.1814 9.6335 23.528C10.1784 23.9274 10.997 24.2765 12.1743 24.7643C12.547 24.9187 12.9158 25.1249 13.2524 25.3216C13.3696 25.3901 13.4816 25.4567 13.5912 25.5218C13.8157 25.6552 14.03 25.7825 14.2583 25.9084C14.9364 26.2825 15.4948 26.5 16 26.5C16.5052 26.5 17.0636 26.2825 17.7417 25.9084C17.97 25.7825 18.1843 25.6552 18.4088 25.5218C18.5184 25.4567 18.6304 25.3901 18.7476 25.3216C19.0842 25.1249 19.453 24.9187 19.8257 24.7643C21.003 24.2765 21.8216 23.9274 22.3665 23.528C22.8395 23.1814 23 22.8787 23 22.4386C23 20.6695 22.0333 19.15 20.6171 17.6966C18.0396 15.0512 17.5 11.2422 17.5 4C17.5 3.44772 17.9477 3 18.5 3Z" fill="white"/>
<path fill-rule="evenodd" clip-rule="evenodd" d="M3.52661 18.1313C3.93121 18.22 4.1873 18.6199 4.0986 19.0245C4.03251 19.3259 3.97711 19.6362 3.93132 19.9582C3.87301 20.3683 3.4933 20.6534 3.08321 20.5951C2.67312 20.5368 2.38795 20.1571 2.44626 19.747C2.4969 19.3909 2.55873 19.0438 2.6334 18.7033C2.7221 18.2987 3.122 18.0426 3.52661 18.1313ZM4.04342 16.7049C3.67582 16.514 3.53258 16.0612 3.72348 15.6936C3.88289 15.3866 4.05734 15.0804 4.24777 14.7724C4.46559 14.4201 4.92778 14.3111 5.28009 14.5289C5.63241 14.7467 5.74143 15.2089 5.52361 15.5612C5.35162 15.8394 5.19582 16.1131 5.05468 16.3849C4.86378 16.7525 4.41102 16.8958 4.04342 16.7049ZM3.00319 22.1076C3.4174 22.1097 3.75147 22.4472 3.74937 22.8614C3.74855 23.0229 3.74878 23.1875 3.74999 23.3553C3.75296 23.7695 3.4196 24.1077 3.0054 24.1107C2.59119 24.1136 2.253 23.7803 2.25003 23.3661C2.24878 23.1926 2.24854 23.0219 2.24939 22.8538C2.25149 22.4396 2.58898 22.1055 3.00319 22.1076ZM6.19086 13.3172C5.8738 13.0506 5.83286 12.5775 6.09941 12.2605C6.20787 12.1315 6.3191 12.0012 6.43317 11.8696C6.7044 11.5565 7.17807 11.5226 7.49112 11.7938C7.80418 12.0651 7.83808 12.5387 7.56684 12.8518C7.45739 12.9781 7.35099 13.1027 7.24757 13.2258C6.98102 13.5428 6.50791 13.5837 6.19086 13.3172Z" fill="white"/>
<path fill-rule="evenodd" clip-rule="evenodd" d="M28.4759 18.1312C28.0713 18.2198 27.8151 18.6196 27.9037 19.0242C27.9697 19.3257 28.0249 19.6359 28.0706 19.958C28.1287 20.3681 28.5083 20.6534 28.9184 20.5953C29.3285 20.5372 29.6138 20.1576 29.5557 19.7475C29.5052 19.3913 29.4435 19.0441 29.369 18.7035C29.2804 18.2988 28.8806 18.0426 28.4759 18.1312ZM27.959 16.7044C28.3266 16.5134 28.4697 16.0606 28.2787 15.693C28.1191 15.3861 27.9445 15.0798 27.7539 14.7718C27.536 14.4196 27.0737 14.3108 26.7215 14.5287C26.3693 14.7467 26.2605 15.209 26.4784 15.5612C26.6506 15.8393 26.8065 16.113 26.9477 16.3847C27.1387 16.7523 27.5915 16.8954 27.959 16.7044ZM28.9974 22.1082C28.5832 22.11 28.2489 22.4473 28.2507 22.8615C28.2514 23.023 28.2511 23.1876 28.2497 23.3554C28.2464 23.7696 28.5796 24.1081 28.9938 24.1114C29.408 24.1146 29.7464 23.7815 29.7497 23.3673C29.7511 23.1939 29.7514 23.0231 29.7507 22.8549C29.7489 22.4407 29.4116 22.1064 28.9974 22.1082ZM25.8098 13.3173C26.1267 13.0505 26.1673 12.5774 25.9006 12.2605C25.792 12.1316 25.6807 12.0014 25.5665 11.8698C25.2951 11.5569 24.8214 11.5233 24.5085 11.7947C24.1956 12.0662 24.1621 12.5399 24.4335 12.8528C24.543 12.979 24.6495 13.1036 24.7531 13.2265C25.0198 13.5434 25.4929 13.584 25.8098 13.3173Z" fill="white"/>
</svg>
