<svg width="32" height="32" viewBox="0 0 32 32" fill="none" xmlns="http://www.w3.org/2000/svg">
<path fill-rule="evenodd" clip-rule="evenodd" d="M3 6.99996C3 5.8954 3.89543 4.99996 5 4.99996H22C22.5523 4.99996 23 5.44768 23 5.99996C23 6.55225 22.5523 6.99996 22 6.99996H5V25H27V12.5C27 11.9477 27.4477 11.5 28 11.5C28.5523 11.5 29 11.9477 29 12.5V25C29 26.1045 28.1046 27 27 27H5C3.89543 27 3 26.1045 3 25V6.99996Z" fill="url(#paint0_linear_407_54124)"/>
<path d="M27.0228 3.52713C27.169 3.05931 27.831 3.05932 27.9772 3.52713L28.5428 5.33698C28.594 5.5007 28.7255 5.62676 28.8912 5.67096L30.1883 6.01685C30.6832 6.14882 30.6832 6.85111 30.1883 6.98308L28.8912 7.32897C28.7255 7.37317 28.594 7.49923 28.5428 7.66295L27.9772 9.4728C27.831 9.94061 27.169 9.94061 27.0228 9.4728L26.4572 7.66295C26.406 7.49923 26.2745 7.37317 26.1088 7.32897L24.8117 6.98308C24.3168 6.85111 24.3168 6.14882 24.8117 6.01685L26.1088 5.67096C26.2745 5.62676 26.406 5.5007 26.4572 5.33698L27.0228 3.52713Z" fill="url(#paint1_linear_407_54124)"/>
<path fill-rule="evenodd" clip-rule="evenodd" d="M10.2276 12.1551C10.4722 12.0527 10.7348 12 11 12C11.2652 12 11.5278 12.0527 11.7724 12.1551C12.0157 12.257 12.2364 12.406 12.4218 12.5934L18 18.1716L18.0054 18.1662L20.5783 15.5933C20.7637 15.4059 20.9844 15.257 21.2276 15.1551C21.4722 15.0527 21.7348 15 22 15C22.2652 15 22.5278 15.0527 22.7724 15.1551C23.0156 15.257 23.2363 15.4059 23.4217 15.5933L28.7071 20.8787C29.0976 21.2692 29.0976 21.9024 28.7071 22.2929C28.3166 22.6834 27.6834 22.6834 27.2929 22.2929L22 17L21.9946 17.0054L19.425 19.575L19.4218 19.5782C19.2364 19.7656 19.0157 19.9146 18.7724 20.0164C18.5278 20.1189 18.2652 20.1716 18 20.1716C17.7348 20.1716 17.4722 20.1189 17.2276 20.0164C16.9843 19.9146 16.7636 19.7656 16.5782 19.5782L11 14L10.9946 14.0054L4.70711 20.2929C4.31658 20.6834 3.68342 20.6834 3.29289 20.2929C2.90237 19.9024 2.90237 19.2692 3.29289 18.8787L9.57812 12.5935C9.76358 12.406 9.98429 12.257 10.2276 12.1551Z" fill="url(#paint2_linear_407_54124)"/>
<defs>
<linearGradient id="paint0_linear_407_54124" x1="16.7797" y1="3.17627" x2="16.7797" y2="27" gradientUnits="userSpaceOnUse">
<stop stop-color="#FFA699"/>
<stop offset="1" stop-color="#FF5A52"/>
</linearGradient>
<linearGradient id="paint1_linear_407_54124" x1="16.7797" y1="3.17627" x2="16.7797" y2="27" gradientUnits="userSpaceOnUse">
<stop stop-color="#FFA699"/>
<stop offset="1" stop-color="#FF5A52"/>
</linearGradient>
<linearGradient id="paint2_linear_407_54124" x1="16.7797" y1="3.17627" x2="16.7797" y2="27" gradientUnits="userSpaceOnUse">
<stop stop-color="#FFA699"/>
<stop offset="1" stop-color="#FF5A52"/>
</linearGradient>
</defs>
</svg>
