<svg width="32" height="32" viewBox="0 0 32 32" fill="none" xmlns="http://www.w3.org/2000/svg">
<path fill-rule="evenodd" clip-rule="evenodd" d="M20 10C20 9.44772 20.4477 9 21 9H24C24.5523 9 25 9.44772 25 10V13C25 13.5523 24.5523 14 24 14C23.4477 14 23 13.5523 23 13V11H21C20.4477 11 20 10.5523 20 10Z" fill="url(#paint0_linear_407_54110)"/>
<path fill-rule="evenodd" clip-rule="evenodd" d="M24 18C24.5523 18 25 18.4477 25 19V22C25 22.5523 24.5523 23 24 23H21C20.4477 23 20 22.5523 20 22C20 21.4477 20.4477 21 21 21H23V19C23 18.4477 23.4477 18 24 18Z" fill="url(#paint1_linear_407_54110)"/>
<path fill-rule="evenodd" clip-rule="evenodd" d="M8 18C8.55228 18 9 18.4477 9 19V21H11C11.5523 21 12 21.4477 12 22C12 22.5523 11.5523 23 11 23H8C7.44772 23 7 22.5523 7 22V19C7 18.4477 7.44772 18 8 18Z" fill="url(#paint2_linear_407_54110)"/>
<path fill-rule="evenodd" clip-rule="evenodd" d="M12 10C12 10.5523 11.5523 11 11 11H9V13C9 13.5523 8.55228 14 8 14C7.44772 14 7 13.5523 7 13L7 10C7 9.44772 7.44772 9 8 9L11 9C11.5523 9 12 9.44772 12 10Z" fill="url(#paint3_linear_407_54110)"/>
<path fill-rule="evenodd" clip-rule="evenodd" d="M3 7C3 5.89543 3.89543 5 5 5H27C28.1046 5 29 5.89543 29 7V25C29 26.1046 28.1046 27 27 27H5C3.89543 27 3 26.1046 3 25V7ZM27 7H5V25H27V7Z" fill="url(#paint4_linear_407_54110)"/>
<path fill-rule="evenodd" clip-rule="evenodd" d="M13 16C13 15.4477 13.4477 15 14 15H18C18.5523 15 19 15.4477 19 16C19 16.5523 18.5523 17 18 17H14C13.4477 17 13 16.5523 13 16Z" fill="url(#paint5_linear_407_54110)"/>
<path fill-rule="evenodd" clip-rule="evenodd" d="M16 13C16.5523 13 17 13.4477 17 14V18C17 18.5523 16.5523 19 16 19C15.4477 19 15 18.5523 15 18V14C15 13.4477 15.4477 13 16 13Z" fill="url(#paint6_linear_407_54110)"/>
<defs>
<linearGradient id="paint0_linear_407_54110" x1="16" y1="5" x2="16" y2="27" gradientUnits="userSpaceOnUse">
<stop stop-color="#FFBADC"/>
<stop offset="1" stop-color="#FF4AA3"/>
</linearGradient>
<linearGradient id="paint1_linear_407_54110" x1="16" y1="5" x2="16" y2="27" gradientUnits="userSpaceOnUse">
<stop stop-color="#FFBADC"/>
<stop offset="1" stop-color="#FF4AA3"/>
</linearGradient>
<linearGradient id="paint2_linear_407_54110" x1="16" y1="5" x2="16" y2="27" gradientUnits="userSpaceOnUse">
<stop stop-color="#FFBADC"/>
<stop offset="1" stop-color="#FF4AA3"/>
</linearGradient>
<linearGradient id="paint3_linear_407_54110" x1="16" y1="5" x2="16" y2="27" gradientUnits="userSpaceOnUse">
<stop stop-color="#FFBADC"/>
<stop offset="1" stop-color="#FF4AA3"/>
</linearGradient>
<linearGradient id="paint4_linear_407_54110" x1="16" y1="5" x2="16" y2="27" gradientUnits="userSpaceOnUse">
<stop stop-color="#FFBADC"/>
<stop offset="1" stop-color="#FF4AA3"/>
</linearGradient>
<linearGradient id="paint5_linear_407_54110" x1="16" y1="5" x2="16" y2="27" gradientUnits="userSpaceOnUse">
<stop stop-color="#FFBADC"/>
<stop offset="1" stop-color="#FF4AA3"/>
</linearGradient>
<linearGradient id="paint6_linear_407_54110" x1="16" y1="5" x2="16" y2="27" gradientUnits="userSpaceOnUse">
<stop stop-color="#FFBADC"/>
<stop offset="1" stop-color="#FF4AA3"/>
</linearGradient>
</defs>
</svg>
