<svg width="32" height="32" viewBox="0 0 32 32" fill="none" xmlns="http://www.w3.org/2000/svg">
<path fill-rule="evenodd" clip-rule="evenodd" d="M7 6C7 4.89543 7.89543 4 9 4H23C24.1046 4 25 4.89543 25 6V26C25 27.1046 24.1046 28 23 28H9C7.89543 28 7 27.1046 7 26V6ZM23 6L9 6V26H23V6Z" fill="white"/>
<path d="M18 19C18 18.4477 18.4477 18 19 18H23C23.5523 18 24 18.4477 24 19V26C24 26.5523 23.5523 27 23 27H19C18.4477 27 18 26.5523 18 26V19Z" fill="white"/>
<path fill-rule="evenodd" clip-rule="evenodd" d="M17 19C17 17.8954 17.8954 17 19 17H23C24.1046 17 25 17.8954 25 19V26C25 27.1046 24.1046 28 23 28H19C17.8954 28 17 27.1046 17 26V19ZM23 19H19V26H23V19Z" fill="white"/>
</svg>
