<svg width="32" height="32" viewBox="0 0 32 32" fill="none" xmlns="http://www.w3.org/2000/svg">
<path fill-rule="evenodd" clip-rule="evenodd" d="M5.32635 11.2776C7.55369 9.14547 11.0398 7 16 7C20.9602 7 24.4463 9.14547 26.6736 11.2776C27.7838 12.3404 28.5849 13.402 29.11 14.2005C29.3731 14.6004 29.5682 14.9363 29.6995 15.1762C29.7652 15.2962 29.815 15.3924 29.8494 15.4608C29.8666 15.495 29.8799 15.5223 29.8895 15.5421L29.9011 15.5663L29.9047 15.574L29.9066 15.578C29.9066 15.578 29.907 15.5789 29 16C29.907 16.4211 29.9066 16.422 29.9066 16.422L29.9047 16.426L29.9011 16.4337L29.8895 16.4579C29.8799 16.4777 29.8666 16.505 29.8494 16.5392C29.815 16.6076 29.7652 16.7038 29.6995 16.8238C29.5682 17.0637 29.3731 17.3996 29.11 17.7995C28.5849 18.598 27.7838 19.6596 26.6736 20.7224C24.4463 22.8545 20.9602 25 16 25C11.0398 25 7.55369 22.8545 5.32635 20.7224C4.21619 19.6596 3.41513 18.598 2.88997 17.7995C2.62693 17.3996 2.43176 17.0637 2.30048 16.8238C2.23481 16.7038 2.18501 16.6076 2.15062 16.5392C2.13342 16.505 2.12006 16.4777 2.11047 16.4579L2.09892 16.4337L2.09526 16.426L2.09395 16.4232L2.09343 16.422C2.09343 16.422 2.09299 16.4211 3 16C2.09299 15.5789 2.09343 15.578 2.09343 15.578L2.09395 15.5768L2.09526 15.574L2.09892 15.5663L2.11047 15.5421C2.12006 15.5223 2.13342 15.495 2.15062 15.4608C2.18501 15.3924 2.23481 15.2962 2.30048 15.1762C2.43176 14.9363 2.62693 14.6004 2.88997 14.2005C3.41513 13.402 4.21619 12.3404 5.32635 11.2776ZM3 16L2.09299 15.5789C1.969 15.8459 1.969 16.1541 2.09299 16.4211L3 16ZM4.13098 16C4.23623 16.1854 4.379 16.4239 4.56092 16.7005C5.02237 17.402 5.73024 18.3404 6.70936 19.2776C8.66059 21.1455 11.6744 23 16 23C20.3256 23 23.3394 21.1455 25.2906 19.2776C26.2698 18.3404 26.9776 17.402 27.4391 16.7005C27.621 16.4239 27.7638 16.1854 27.869 16C27.7638 15.8146 27.621 15.5761 27.4391 15.2995C26.9776 14.598 26.2698 13.6596 25.2906 12.7224C23.3394 10.8545 20.3256 9 16 9C11.6744 9 8.66059 10.8545 6.70936 12.7224C5.73024 13.6596 5.02237 14.598 4.56092 15.2995C4.379 15.5761 4.23623 15.8146 4.13098 16ZM29 16L29.907 16.4211C30.031 16.1541 30.031 15.8459 29.907 15.5789L29 16Z" fill="white"/>
<path fill-rule="evenodd" clip-rule="evenodd" d="M16.2832 11.9252C14.074 11.9252 12.2832 13.7161 12.2832 15.9252C12.2832 18.1344 14.074 19.9252 16.2832 19.9252C18.4923 19.9252 20.2832 18.1344 20.2832 15.9252C20.2832 13.7161 18.4923 11.9252 16.2832 11.9252ZM10.2832 15.9252C10.2832 12.6115 12.9695 9.92523 16.2832 9.92523C19.5969 9.92523 22.2832 12.6115 22.2832 15.9252C22.2832 19.2389 19.5969 21.9252 16.2832 21.9252C12.9695 21.9252 10.2832 19.2389 10.2832 15.9252Z" fill="white"/>
<path fill-rule="evenodd" clip-rule="evenodd" d="M4 24.5C3.56407 25.1103 3.56421 25.1104 3.56421 25.1104L3.56528 25.1112L3.56671 25.1122L3.57019 25.1146L3.57971 25.1213L3.60903 25.1412C3.63317 25.1574 3.66653 25.1793 3.7093 25.2062C3.79485 25.26 3.918 25.3338 4.08031 25.4225C4.44378 25.6211 4.89947 25.4875 5.09811 25.124C5.29675 24.7606 5.16312 24.3049 4.79965 24.1062C4.66452 24.0324 4.56769 23.974 4.5076 23.9363C4.47756 23.9174 4.45669 23.9036 4.44481 23.8957L4.4337 23.8881M4.4337 23.8881C4.09684 23.6496 3.62983 23.7279 3.3897 24.0641C3.14894 24.4011 3.22715 24.8696 3.56421 25.1104L4 24.5M27.5642 23.8896C27.9013 23.649 28.3696 23.7271 28.6103 24.0641C28.8511 24.4011 28.773 24.8695 28.4359 25.1103L28 24.5C28.4359 25.1103 28.4359 25.1103 28.4359 25.1103L28.4333 25.1122L28.4298 25.1146L28.4203 25.1213L28.391 25.1412C28.3668 25.1574 28.3335 25.1793 28.2907 25.2062C28.2052 25.26 28.082 25.3338 27.9197 25.4225C27.5562 25.6211 27.1005 25.4875 26.9019 25.124C26.7033 24.7606 26.8369 24.3049 27.2004 24.1062C27.3355 24.0324 27.4323 23.974 27.4924 23.9363C27.5224 23.9174 27.5433 23.9036 27.5552 23.8957L27.5659 23.8884L27.5642 23.8896ZM6.59587 25.6936C6.71253 25.2961 7.1293 25.0685 7.52674 25.1852C7.82476 25.2727 8.14578 25.3593 8.49039 25.4432C8.89286 25.5411 9.13975 25.9467 9.04182 26.3492C8.94389 26.7517 8.53824 26.9986 8.13577 26.9006C7.76843 26.8113 7.42479 26.7185 7.10427 26.6245C6.70682 26.5078 6.4792 26.091 6.59587 25.6936ZM25.4041 25.6936C25.5208 26.091 25.2932 26.5078 24.8957 26.6245C24.5752 26.7185 24.2316 26.8113 23.8642 26.9006C23.4618 26.9986 23.0561 26.7517 22.9582 26.3492C22.8603 25.9467 23.1071 25.5411 23.5096 25.4432C23.8542 25.3593 24.1752 25.2727 24.4733 25.1852C24.8707 25.0685 25.2875 25.2961 25.4041 25.6936ZM10.616 26.6303C10.6678 26.2194 11.0429 25.9282 11.4539 25.98C11.777 26.0208 12.1122 26.0578 12.4599 26.0905C12.8723 26.1294 13.1751 26.4951 13.1363 26.9075C13.0975 27.3199 12.7317 27.6228 12.3193 27.5839C11.956 27.5497 11.6051 27.511 11.2663 27.4682C10.8553 27.4164 10.5642 27.0413 10.616 26.6303ZM21.384 26.6303C21.4358 27.0413 21.1447 27.4164 20.7337 27.4682C20.3949 27.511 20.044 27.5497 19.6807 27.5839C19.2683 27.6228 18.9025 27.3199 18.8637 26.9075C18.8249 26.4951 19.1277 26.1294 19.5401 26.0905C19.8878 26.0578 20.223 26.0208 20.5461 25.98C20.9571 25.9282 21.3322 26.2194 21.384 26.6303ZM14.7304 26.9877C14.7354 26.5735 15.0753 26.2419 15.4894 26.2469C15.6575 26.249 15.8277 26.25 16 26.25C16.1723 26.25 16.3425 26.249 16.5106 26.2469C16.9247 26.2419 17.2646 26.5735 17.2696 26.9877C17.2747 27.4019 16.943 27.7418 16.5288 27.7468C16.3547 27.7489 16.1784 27.75 16 27.75C15.8216 27.75 15.6453 27.7489 15.4712 27.7468C15.057 27.7418 14.7253 27.4019 14.7304 26.9877Z" fill="white"/>
</svg>
