<svg width="32" height="32" viewBox="0 0 32 32" fill="none" xmlns="http://www.w3.org/2000/svg">
<g clip-path="url(#clip0_407_54223)">
<path fill-rule="evenodd" clip-rule="evenodd" d="M21 5C23.7614 5 26 7.23858 26 10V11C26 11.5523 25.5523 12 25 12C24.4477 12 24 11.5523 24 11V10C24 8.34315 22.6569 7 21 7L11 7C9.34315 7 8 8.34315 8 10L8 11C8 11.5523 7.55228 12 7 12C6.44772 12 6 11.5523 6 11L6 10C6 7.23858 8.23857 5 11 5L21 5Z" fill="url(#paint0_linear_407_54223)"/>
<path fill-rule="evenodd" clip-rule="evenodd" d="M12.2929 3.29289C12.6834 2.90237 13.3166 2.90237 13.7071 3.29289L15.7071 5.29289C15.8946 5.48043 16 5.73478 16 6C16 6.26522 15.8946 6.51957 15.7071 6.70711L13.7071 8.70711C13.3166 9.09763 12.6834 9.09763 12.2929 8.70711C11.9024 8.31658 11.9024 7.68342 12.2929 7.29289L13.5858 6L12.2929 4.70711C11.9024 4.31658 11.9024 3.68342 12.2929 3.29289Z" fill="url(#paint1_linear_407_54223)"/>
<path fill-rule="evenodd" clip-rule="evenodd" d="M17.2929 23.2929C17.6834 22.9024 18.3166 22.9024 18.7071 23.2929L20.7071 25.2929C20.8946 25.4804 21 25.7348 21 26C21 26.2652 20.8946 26.5196 20.7071 26.7071L18.7071 28.7071C18.3166 29.0976 17.6834 29.0976 17.2929 28.7071C16.9024 28.3166 16.9024 27.6834 17.2929 27.2929L18.5858 26L17.2929 24.7071C16.9024 24.3166 16.9024 23.6834 17.2929 23.2929Z" fill="url(#paint2_linear_407_54223)"/>
<path fill-rule="evenodd" clip-rule="evenodd" d="M9 12H3V20H9V12ZM9.63636 10C10.5862 10 11 10.871 11 11.4545V20.5455C11 21.129 10.5862 22 9.63636 22H2.36364C1.41382 22 1 21.129 1 20.5455V11.4545C1 10.871 1.41382 10 2.36364 10H9.63636Z" fill="url(#paint3_linear_407_54223)"/>
<path d="M6 19C6.55228 19 7 18.5523 7 18C7 17.4477 6.55228 17 6 17C5.44772 17 5 17.4477 5 18C5 18.5523 5.44772 19 6 19Z" fill="url(#paint4_linear_407_54223)"/>
<path fill-rule="evenodd" clip-rule="evenodd" d="M27.519 12.1829C26.8606 11.97 26.1523 11.9423 25.4777 12.1035C24.8032 12.2646 24.1937 12.6071 23.7183 13.0868C23.2431 13.5662 22.9214 14.1629 22.786 14.8061C22.7244 15.0984 22.5354 15.3478 22.2707 15.4862C22.006 15.6246 21.6933 15.6374 21.4181 15.5211C21.2222 15.4383 21.0092 15.3959 20.7934 15.3975L20.7859 15.3975C19.7995 15.3975 19 16.1934 19 17.1988C19 18.2041 19.7995 19 20.7859 19H26.3576C27.0533 18.9998 27.7328 18.8083 28.3165 18.4504C28.8999 18.0927 29.3622 17.5847 29.6538 16.9889C29.9452 16.3934 30.0555 15.7324 29.9738 15.0814C29.8922 14.4304 29.6213 13.8117 29.1884 13.298C28.7553 12.784 28.1772 12.3958 27.519 12.1829ZM25.0129 10.1582C26.0442 9.91179 27.1262 9.95386 28.1345 10.28C29.1429 10.6062 30.0396 11.2043 30.7178 12.0092C31.3963 12.8144 31.8279 13.7932 31.9583 14.8325C32.0887 15.872 31.9118 16.9249 31.4502 17.8681C30.9888 18.8108 30.2632 19.6028 29.3618 20.1554C28.4607 20.7079 27.4192 20.9998 26.3579 21H20.7859C18.6846 21 17 19.2984 17 17.1988C17 15.1004 18.6827 13.3995 20.7822 13.3975M20.7822 13.3975C21.5443 12.814 21.7999 12.1813 22.2977 11.679C23.0393 10.9306 23.9814 10.4047 25.0129 10.1582" fill="url(#paint5_linear_407_54223)"/>
<path fill-rule="evenodd" clip-rule="evenodd" d="M25 20C25.5523 20 26 20.4477 26 21V22C26 24.7614 23.7614 27 21 27H11C8.23857 27 6 24.7614 6 22V21C6 20.4477 6.44772 20 7 20C7.55228 20 8 20.4477 8 21V22C8 23.6569 9.34315 25 11 25H21C22.6569 25 24 23.6569 24 22V21C24 20.4477 24.4477 20 25 20Z" fill="url(#paint6_linear_407_54223)"/>
</g>
<defs>
<linearGradient id="paint0_linear_407_54223" x1="16.5" y1="3" x2="16.5" y2="29" gradientUnits="userSpaceOnUse">
<stop stop-color="#69F6DA"/>
<stop offset="1" stop-color="#19D858"/>
</linearGradient>
<linearGradient id="paint1_linear_407_54223" x1="16.5" y1="3" x2="16.5" y2="29" gradientUnits="userSpaceOnUse">
<stop stop-color="#69F6DA"/>
<stop offset="1" stop-color="#19D858"/>
</linearGradient>
<linearGradient id="paint2_linear_407_54223" x1="16.5" y1="3" x2="16.5" y2="29" gradientUnits="userSpaceOnUse">
<stop stop-color="#69F6DA"/>
<stop offset="1" stop-color="#19D858"/>
</linearGradient>
<linearGradient id="paint3_linear_407_54223" x1="16.5" y1="3" x2="16.5" y2="29" gradientUnits="userSpaceOnUse">
<stop stop-color="#69F6DA"/>
<stop offset="1" stop-color="#19D858"/>
</linearGradient>
<linearGradient id="paint4_linear_407_54223" x1="16.5" y1="3" x2="16.5" y2="29" gradientUnits="userSpaceOnUse">
<stop stop-color="#69F6DA"/>
<stop offset="1" stop-color="#19D858"/>
</linearGradient>
<linearGradient id="paint5_linear_407_54223" x1="16.5" y1="3" x2="16.5" y2="29" gradientUnits="userSpaceOnUse">
<stop stop-color="#69F6DA"/>
<stop offset="1" stop-color="#19D858"/>
</linearGradient>
<linearGradient id="paint6_linear_407_54223" x1="16.5" y1="3" x2="16.5" y2="29" gradientUnits="userSpaceOnUse">
<stop stop-color="#69F6DA"/>
<stop offset="1" stop-color="#19D858"/>
</linearGradient>
<clipPath id="clip0_407_54223">
<rect width="32" height="32" fill="white"/>
</clipPath>
</defs>
</svg>
