<svg width="32" height="32" viewBox="0 0 32 32" fill="none" xmlns="http://www.w3.org/2000/svg">
<path fill-rule="evenodd" clip-rule="evenodd" d="M5.0067 12.6164C4.79811 6.80971 9.47503 2 15.3044 2H16.6956C22.525 2 27.2019 6.8097 26.9933 12.6164L26.9929 12.6285C26.8348 15.9203 26.1926 19.2352 25.0269 22.0802C23.8651 24.9158 22.1484 27.3657 19.7892 28.799C18.5273 29.5658 17.2923 30 16 30C14.7077 30 13.4727 29.5657 12.2108 28.799C9.85156 27.3657 8.13493 24.9158 6.97311 22.0802C5.80745 19.2352 5.1653 15.9203 5.0072 12.6285L5.0067 12.6164ZM7.0052 12.5387C7.15518 15.6488 7.76169 18.7297 8.8238 21.3219C9.89045 23.9253 11.382 25.9553 13.2492 27.0898C14.3038 27.7305 15.1805 28 16 28C16.8195 28 17.6962 27.7305 18.7508 27.0898C20.618 25.9553 22.1096 23.9253 23.1762 21.3219C24.2383 18.7297 24.8448 15.6489 24.9948 12.5387C25.1589 7.87818 21.4019 4 16.6956 4H15.3044C10.5982 4 6.84108 7.87815 7.0052 12.5387Z" fill="white"/>
<path fill-rule="evenodd" clip-rule="evenodd" d="M3.46967 22.4697C3.76256 22.1768 4.23744 22.1768 4.53033 22.4697L6.53033 24.4697C6.82322 24.7626 6.82322 25.2374 6.53033 25.5303L4.53033 27.5303C4.23744 27.8232 3.76256 27.8232 3.46967 27.5303C3.17678 27.2374 3.17678 26.7626 3.46967 26.4697L4.18934 25.75H2C1.58579 25.75 1.25 25.4142 1.25 25C1.25 24.5858 1.58579 24.25 2 24.25H4.18934L3.46967 23.5303C3.17678 23.2374 3.17678 22.7626 3.46967 22.4697Z" fill="white"/>
<path fill-rule="evenodd" clip-rule="evenodd" d="M28.5303 27.5303C28.2374 27.8232 27.7626 27.8232 27.4697 27.5303L25.4697 25.5303C25.1768 25.2374 25.1768 24.7626 25.4697 24.4697L27.4697 22.4697C27.7626 22.1768 28.2374 22.1768 28.5303 22.4697C28.8232 22.7626 28.8232 23.2374 28.5303 23.5303L27.8107 24.25H30C30.4142 24.25 30.75 24.5858 30.75 25C30.75 25.4142 30.4142 25.75 30 25.75H27.8107L28.5303 26.4697C28.8232 26.7626 28.8232 27.2374 28.5303 27.5303Z" fill="white"/>
</svg>
