<svg width="32" height="32" viewBox="0 0 32 32" fill="none" xmlns="http://www.w3.org/2000/svg">
<path fill-rule="evenodd" clip-rule="evenodd" d="M17.0748 7.03423C18.5741 6.41949 19.752 5.33167 20.3377 4C20.5991 4.48518 20.7439 5.01999 20.7439 5.58188C20.7439 6.28972 20.5141 6.95462 20.1109 7.53143C20.3007 7.58264 20.4874 7.63706 20.6711 7.69448C21.8302 7.05599 22.7337 6.1132 23.2232 5C23.4846 5.48518 23.6295 6.01999 23.6295 6.58188C23.6295 7.32418 23.3767 8.01925 22.9363 8.61502C23.0125 8.65364 23.0881 8.69273 23.1629 8.73228C24.407 8.32815 25.4616 7.58401 26.1509 6.5974C26.3131 7.12411 26.3512 7.67687 26.2421 8.22805C26.1025 8.93308 25.739 9.54864 25.2189 10.0399C25.285 10.0897 25.3504 10.1397 25.415 10.19C26.6472 9.89865 27.7281 9.27276 28.4888 8.38531C28.5983 8.92546 28.5817 9.47929 28.4187 10.017C28.1949 10.7555 27.7277 11.3177 27.1019 11.7026C27.1663 11.7689 27.2295 11.835 27.2916 11.901C29.0104 12.0965 30.666 11.6516 31.8494 10.6663C31.867 11.2171 31.7582 11.7604 31.5077 12.2633C31.0324 13.2176 30.1339 13.8522 29.0535 14.1152C29.0727 14.1439 29.0915 14.1724 29.11 14.2005C29.3731 14.6004 29.5682 14.9363 29.6995 15.1762C29.7652 15.2962 29.815 15.3924 29.8494 15.4608C29.8666 15.495 29.8799 15.5223 29.8895 15.5421L29.9011 15.5663L29.9027 15.5697C29.92 15.606 29.935 15.6431 29.9477 15.6808C30.0291 15.9223 30.0155 16.1874 29.907 16.4211L29.0617 16.0287C29.8819 16.4095 29.9061 16.4212 29.9066 16.422L29.906 16.4232L29.9047 16.426L29.9011 16.4337L29.8895 16.4579C29.8799 16.4777 29.8666 16.505 29.8494 16.5392C29.8171 16.6033 29.7714 16.6918 29.7116 16.8016L29.6995 16.8238C29.5764 17.0487 29.3972 17.358 29.1586 17.7253L29.11 17.7995C28.6177 18.5481 27.8829 19.528 26.8782 20.5232C26.8112 20.5895 26.743 20.656 26.6736 20.7224C24.5855 22.7213 21.391 24.7319 16.9128 24.9754C16.6143 24.9916 16.31 25 16 25C11.6599 25 8.44826 23.3574 6.22103 21.5183C5.90286 21.2556 5.60477 20.9889 5.32635 20.7224C4.35496 19.7925 3.62023 18.8634 3.0999 18.1108C3.02557 18.0033 2.95561 17.8993 2.88997 17.7995C2.65981 17.4496 2.48161 17.1487 2.35271 16.9182C2.3343 16.8853 2.31689 16.8538 2.30048 16.8238C2.23481 16.7038 2.18501 16.6076 2.15062 16.5392C2.13342 16.505 2.12006 16.4777 2.11047 16.4579L2.09892 16.4337L2.09526 16.426L2.09395 16.4232L2.09343 16.4221C2.09321 16.4216 2.093 16.4211 2.9422 16.0268L2.09299 16.4211C1.98886 16.1968 1.97218 15.9436 2.04296 15.71C2.05735 15.6625 2.07534 15.6159 2.09691 15.5705L2.09892 15.5663L2.11047 15.5421C2.12006 15.5223 2.13342 15.495 2.15062 15.4608C2.18501 15.3924 2.23481 15.2962 2.30048 15.1762C2.43176 14.9363 2.62693 14.6004 2.88997 14.2005C3.41513 13.402 4.21619 12.3404 5.32635 11.2776C7.55369 9.14547 11.0398 7 16 7C16.3663 7 16.7245 7.0117 17.0748 7.03423ZM27.8228 16.0806C27.7392 15.9755 27.6394 15.8548 27.5227 15.7218C27.0717 15.2075 26.3726 14.5114 25.3989 13.8123C24.1767 12.9348 22.5129 12.0459 20.3446 11.5087C21.5364 12.6053 22.2832 14.178 22.2832 15.9252C22.2832 19.2389 19.5969 21.9252 16.2832 21.9252C12.9695 21.9252 10.2832 19.2389 10.2832 15.9252C10.2832 14.0863 11.1105 12.4406 12.4132 11.34C9.87041 11.844 7.96201 12.8352 6.60107 13.8123C5.62736 14.5114 4.92834 15.2075 4.47729 15.7218C4.36065 15.8548 4.26078 15.9755 4.1772 16.0806C4.27681 16.2526 4.40437 16.4625 4.56092 16.7005C5.02237 17.402 5.73024 18.3404 6.70936 19.2776C8.66059 21.1455 11.6744 23 16 23C20.3256 23 23.3394 21.1455 25.2906 19.2776C26.2698 18.3404 26.9776 17.402 27.4391 16.7005C27.5755 16.493 27.6899 16.307 27.783 16.1488L27.8228 16.0806ZM16.2832 11.9252C14.074 11.9252 12.2832 13.7161 12.2832 15.9252C12.2832 18.1344 14.074 19.9252 16.2832 19.9252C18.4923 19.9252 20.2832 18.1344 20.2832 15.9252C20.2832 13.7161 18.4923 11.9252 16.2832 11.9252Z" fill="white"/>
</svg>
