<svg width="32" height="32" viewBox="0 0 32 32" fill="none" xmlns="http://www.w3.org/2000/svg">
<path fill-rule="evenodd" clip-rule="evenodd" d="M5.32636 11.2776C7.5537 9.14547 11.0398 7 16 7C20.9602 7 24.4463 9.14547 26.6736 11.2776C27.7838 12.3403 28.5849 13.402 29.11 14.2005C29.3731 14.6004 29.5682 14.9363 29.6995 15.1762C29.7652 15.2962 29.815 15.3924 29.8494 15.4608C29.8666 15.495 29.8799 15.5223 29.8895 15.5421L29.9011 15.5663L29.9047 15.574L29.9066 15.5779C29.9066 15.5779 29.907 15.5789 29 16C29.907 16.4211 29.9066 16.422 29.9066 16.422L29.9047 16.426L29.9011 16.4337L29.8895 16.4579C29.8799 16.4777 29.8666 16.505 29.8494 16.5392C29.815 16.6076 29.7652 16.7038 29.6995 16.8238C29.5682 17.0637 29.3731 17.3996 29.11 17.7995C28.5849 18.598 27.7838 19.6596 26.6736 20.7224C24.4463 22.8545 20.9602 25 16 25C11.0398 25 7.5537 22.8545 5.32636 20.7224C4.21619 19.6596 3.41514 18.598 2.88997 17.7995C2.62694 17.3996 2.43176 17.0637 2.30048 16.8238C2.23481 16.7038 2.18502 16.6076 2.15062 16.5392C2.13342 16.505 2.12006 16.4777 2.11048 16.4579L2.09893 16.4337L2.09526 16.426L2.09395 16.4232L2.09343 16.422C2.09343 16.422 2.09299 16.4211 3 16C2.09299 15.5789 2.09343 15.5779 2.09343 15.5779L2.09395 15.5768L2.09526 15.574L2.09893 15.5663L2.11048 15.5421C2.12006 15.5223 2.13342 15.495 2.15062 15.4608C2.18502 15.3924 2.23481 15.2962 2.30048 15.1762C2.43176 14.9363 2.62694 14.6004 2.88997 14.2005C3.41514 13.402 4.21619 12.3403 5.32636 11.2776ZM3 16L2.09299 15.5789C1.96901 15.8459 1.96901 16.1541 2.09299 16.4211L3 16ZM4.13099 16C4.23624 16.1854 4.37901 16.4239 4.56093 16.7005C5.02237 17.402 5.73024 18.3403 6.70936 19.2776C8.66059 21.1455 11.6744 23 16 23C20.3256 23 23.3394 21.1455 25.2906 19.2776C26.2698 18.3403 26.9776 17.402 27.4391 16.7005C27.621 16.4239 27.7638 16.1854 27.869 16C27.7638 15.8146 27.621 15.5761 27.4391 15.2995C26.9776 14.598 26.2698 13.6596 25.2906 12.7224C23.3394 10.8545 20.3256 9 16 9C11.6744 9 8.66059 10.8545 6.70936 12.7224C5.73024 13.6596 5.02237 14.598 4.56093 15.2995C4.37901 15.5761 4.23624 15.8146 4.13099 16ZM29 16L29.907 16.4211C30.031 16.1541 30.031 15.8459 29.907 15.5789L29 16Z" fill="white"/>
<path fill-rule="evenodd" clip-rule="evenodd" d="M16.2832 11.9252C14.0741 11.9252 12.2832 13.7161 12.2832 15.9252C12.2832 18.1344 14.0741 19.9252 16.2832 19.9252C18.4923 19.9252 20.2832 18.1344 20.2832 15.9252C20.2832 13.7161 18.4923 11.9252 16.2832 11.9252ZM10.2832 15.9252C10.2832 12.6115 12.9695 9.92523 16.2832 9.92523C19.5969 9.92523 22.2832 12.6115 22.2832 15.9252C22.2832 19.2389 19.5969 21.9252 16.2832 21.9252C12.9695 21.9252 10.2832 19.2389 10.2832 15.9252Z" fill="white"/>
<path fill-rule="evenodd" clip-rule="evenodd" d="M6.16422 27.4142C6.16422 27.8284 5.82843 28.1642 5.41422 28.1642H2.58579C2.17158 28.1642 1.83579 27.8284 1.83579 27.4142V24.5858C1.83579 24.1716 2.17158 23.8358 2.58579 23.8358C3.00001 23.8358 3.33579 24.1716 3.33579 24.5858V25.6036L4.88389 24.0555C5.17678 23.7626 5.65166 23.7626 5.94455 24.0555C6.23744 24.3483 6.23744 24.8232 5.94455 25.1161L4.39645 26.6642H5.41422C5.82843 26.6642 6.16422 27 6.16422 27.4142Z" fill="white"/>
<path fill-rule="evenodd" clip-rule="evenodd" d="M29.4142 23.8358C29.8284 23.8358 30.1642 24.1716 30.1642 24.5858V27.4142C30.1642 27.8284 29.8284 28.1642 29.4142 28.1642H26.5858C26.1716 28.1642 25.8358 27.8284 25.8358 27.4142C25.8358 27 26.1716 26.6642 26.5858 26.6642H27.6036L26.0555 25.1161C25.7626 24.8232 25.7626 24.3483 26.0555 24.0555C26.3484 23.7626 26.8232 23.7626 27.1161 24.0555L28.6642 25.6035V24.5858C28.6642 24.1716 29 23.8358 29.4142 23.8358Z" fill="white"/>
<path fill-rule="evenodd" clip-rule="evenodd" d="M25.8358 4.58578C25.8358 4.17157 26.1716 3.83579 26.5858 3.83578L29.4142 3.83579C29.8284 3.83579 30.1642 4.17157 30.1642 4.58579L30.1642 7.41421C30.1642 7.82843 29.8284 8.16421 29.4142 8.16421C29 8.16421 28.6642 7.82843 28.6642 7.41421V6.39645L27.1161 7.94454C26.8232 8.23744 26.3484 8.23744 26.0555 7.94454C25.7626 7.65165 25.7626 7.17678 26.0555 6.88388L27.6036 5.33579H26.5858C26.1716 5.33579 25.8358 5 25.8358 4.58578Z" fill="white"/>
<path fill-rule="evenodd" clip-rule="evenodd" d="M2.5858 8.16422C2.17158 8.16422 1.8358 7.82843 1.8358 7.41421L1.8358 4.58579C1.8358 4.17157 2.17158 3.83579 2.5858 3.83579L5.41422 3.83579C5.82844 3.83579 6.16422 4.17157 6.16422 4.58579C6.16422 5 5.82844 5.33579 5.41422 5.33579H4.39646L5.94455 6.88389C6.23745 7.17678 6.23745 7.65165 5.94455 7.94455C5.65166 8.23744 5.17679 8.23744 4.88389 7.94455L3.3358 6.39645V7.41422C3.3358 7.82843 3.00001 8.16422 2.5858 8.16422Z" fill="white"/>
</svg>
