<svg width="32" height="32" viewBox="0 0 32 32" fill="none" xmlns="http://www.w3.org/2000/svg">
<path d="M24.4851 3.94026C24.3588 3.43528 23.6412 3.43528 23.5149 3.94025L23.0666 5.73369C23.0251 5.89954 22.9018 6.03271 22.7396 6.08677L21.423 6.52563C20.9672 6.67758 20.9672 7.32236 21.423 7.47431L22.7396 7.91318C22.9018 7.96723 23.0251 8.1004 23.0666 8.26625L23.5149 10.0597C23.6412 10.5647 24.3588 10.5647 24.4851 10.0597L24.9334 8.26625C24.9749 8.1004 25.0982 7.96723 25.2604 7.91318L26.577 7.47431C27.0328 7.32236 27.0328 6.67758 26.577 6.52563L25.2604 6.08677C25.0982 6.03271 24.9749 5.89954 24.9334 5.73369L24.4851 3.94026Z" fill="url(#paint0_linear_407_54103)"/>
<path d="M5.47435 22.423C5.3224 21.9671 4.67762 21.9671 4.52567 22.423L4.0655 23.8035C4.02357 23.9293 3.93337 24.0333 3.81477 24.0926L2.89444 24.5528C2.52591 24.737 2.52591 25.2629 2.89444 25.4472L3.81477 25.9074C3.93337 25.9667 4.02357 26.0706 4.0655 26.1964L4.52567 27.5769C4.67762 28.0328 5.3224 28.0328 5.47435 27.5769L5.93452 26.1964C5.97645 26.0706 6.06664 25.9667 6.18525 25.9074L7.10558 25.4472C7.47411 25.2629 7.47411 24.737 7.10558 24.5528L6.18525 24.0926C6.06664 24.0333 5.97645 23.9293 5.93452 23.8035L5.47435 22.423Z" fill="url(#paint1_linear_407_54103)"/>
<path d="M14.5291 6.12098C15.9232 5.89003 17.3521 5.9906 18.7001 6.41455C19.227 6.58024 19.7884 6.28747 19.9541 5.76062C20.1197 5.23378 19.827 4.67237 19.3001 4.50668C17.6526 3.98852 15.9061 3.8656 14.2022 4.14788C12.4983 4.43015 10.8848 5.10968 9.49238 6.13145C8.09992 7.15322 6.96763 8.48853 6.18717 10.0293C5.42837 11.5272 5.02288 13.1785 5.00095 14.8562C5.00033 14.8707 5.00002 14.8853 5.00002 14.9V19C5.00002 19.5522 5.44773 20 6.00002 20C6.5523 20 7.00002 19.5522 7.00002 19V15C7.00002 13.5869 7.33276 12.1936 7.97132 10.933C8.60988 9.67243 9.5363 8.57991 10.6756 7.74391C11.8149 6.90791 13.135 6.35193 14.5291 6.12098Z" fill="url(#paint2_linear_407_54103)"/>
<path fill-rule="evenodd" clip-rule="evenodd" d="M14.1508 9.24071C13.9272 9.04906 13.6305 8.96571 13.3398 9.01288C13.0491 9.06005 12.794 9.23295 12.6425 9.48547C12.2599 10.1232 11.9103 10.7585 11.5785 11.3615L11.5692 11.3784C11.2314 11.9922 10.9134 12.5695 10.5824 13.1154C9.92031 14.2075 9.24434 15.1077 8.38219 15.7851C8.1409 15.9747 8.00002 16.2645 8.00002 16.5714C8.00002 19.9702 9.21234 22.7926 10.7781 24.7729C11.5598 25.7616 12.4401 26.5539 13.3207 27.1056C14.1864 27.648 15.1215 28 16 28C16.7854 28 17.6698 27.6216 18.4802 27.0981C19.3235 26.5533 20.2116 25.7706 21.0214 24.7891C22.6418 22.825 24 19.9993 24 16.5714C24 16.0913 23.6588 15.6789 23.1871 15.5891C21.9237 15.3484 20.5766 14.5748 19.0455 13.4024C17.9877 12.5925 16.9131 11.6507 15.7605 10.6407C15.2416 10.186 14.7069 9.71735 14.1508 9.24071ZM13.3228 12.34C13.4684 12.0755 13.6135 11.8118 13.7607 11.5487C13.9687 11.7303 14.176 11.912 14.3827 12.0931C15.5615 13.1259 16.7174 14.1388 17.8296 14.9904C19.1644 16.0125 20.5406 16.8885 21.9727 17.3405C21.7918 19.8811 20.7337 21.9951 19.4786 23.5163C18.7884 24.3529 18.0516 24.9939 17.3948 25.4182C16.7052 25.8638 16.2146 26 16 26C15.6285 26 15.0636 25.8374 14.3825 25.4107C13.7162 24.9933 13.0027 24.3619 12.347 23.5325C11.1072 21.9644 10.1109 19.7364 10.0087 17.0308C10.949 16.1946 11.664 15.1891 12.2926 14.1524C12.6491 13.5644 12.9873 12.9497 13.3214 12.3426L13.3228 12.34Z" fill="url(#paint3_linear_407_54103)"/>
<path d="M26.6252 12.153C26.4823 11.6195 25.9339 11.3029 25.4005 11.4459C24.867 11.5888 24.5504 12.1371 24.6933 12.6706C24.8969 13.4303 25 14.2135 25 15V20.95C25 23.5351 25.2553 25.1452 25.538 26.1416C25.6799 26.6418 25.8308 26.9949 25.965 27.242C26.0322 27.3658 26.0953 27.4632 26.1512 27.5393C26.1792 27.5774 26.2053 27.61 26.2291 27.6378C26.241 27.6516 26.2523 27.6643 26.2629 27.6759L26.2784 27.6923L26.2858 27.6999L26.2894 27.7035L26.2912 27.7053C26.2912 27.7053 26.2929 27.7071 26.9966 27.0034L26.2929 27.7071C26.6834 28.0976 27.3166 28.0976 27.7071 27.7071C28.0801 27.3341 28.0969 26.7399 27.7575 26.347C27.751 26.3371 27.739 26.3179 27.7226 26.2876C27.6692 26.1894 27.5702 25.9768 27.4621 25.5958C27.2447 24.8297 27 23.4148 27 20.95V14.9C27 14.8853 26.9997 14.8707 26.9991 14.8562C26.9871 13.9433 26.8616 13.0352 26.6252 12.153Z" fill="url(#paint4_linear_407_54103)"/>
<defs>
<linearGradient id="paint0_linear_407_54103" x1="15.309" y1="3.56152" x2="15.309" y2="28" gradientUnits="userSpaceOnUse">
<stop stop-color="#FFA699"/>
<stop offset="1" stop-color="#FF5A52"/>
</linearGradient>
<linearGradient id="paint1_linear_407_54103" x1="15.309" y1="3.56152" x2="15.309" y2="28" gradientUnits="userSpaceOnUse">
<stop stop-color="#FFA699"/>
<stop offset="1" stop-color="#FF5A52"/>
</linearGradient>
<linearGradient id="paint2_linear_407_54103" x1="15.309" y1="3.56152" x2="15.309" y2="28" gradientUnits="userSpaceOnUse">
<stop stop-color="#FFA699"/>
<stop offset="1" stop-color="#FF5A52"/>
</linearGradient>
<linearGradient id="paint3_linear_407_54103" x1="15.309" y1="3.56152" x2="15.309" y2="28" gradientUnits="userSpaceOnUse">
<stop stop-color="#FFA699"/>
<stop offset="1" stop-color="#FF5A52"/>
</linearGradient>
<linearGradient id="paint4_linear_407_54103" x1="15.309" y1="3.56152" x2="15.309" y2="28" gradientUnits="userSpaceOnUse">
<stop stop-color="#FFA699"/>
<stop offset="1" stop-color="#FF5A52"/>
</linearGradient>
</defs>
</svg>
