<svg width="32" height="32" viewBox="0 0 32 32" fill="none" xmlns="http://www.w3.org/2000/svg">
<path fill-rule="evenodd" clip-rule="evenodd" d="M10.3721 27.3488L10.3756 27.3508L10.3905 27.3592C10.4041 27.3669 10.4252 27.3786 10.4531 27.394C10.509 27.4248 10.5924 27.4701 10.6995 27.5265C11.0659 27.7197 11.2064 28.1733 11.0132 28.5397C10.8201 28.9062 10.3664 29.0466 10 28.8535C9.88427 28.7924 9.7928 28.7428 9.72952 28.7079C9.69788 28.6905 9.67326 28.6768 9.65617 28.6672L9.63622 28.6559L9.63058 28.6527L9.62798 28.6512C9.26834 28.4457 9.14331 27.9875 9.34882 27.6279C9.55429 27.2683 10.0125 27.1435 10.3721 27.3488ZM22.6512 27.6279C22.8567 27.9875 22.7317 28.4457 22.3721 28.6512L22.3694 28.6527L22.3638 28.6559L22.3438 28.6672C22.3267 28.6768 22.3021 28.6905 22.2705 28.7079C22.2072 28.7428 22.1157 28.7924 22 28.8535C21.6336 29.0466 21.1799 28.9062 20.9868 28.5397C20.7936 28.1733 20.9341 27.7197 21.3005 27.5265C21.4076 27.4701 21.491 27.4248 21.5469 27.394C21.5748 27.3786 21.5959 27.3669 21.6095 27.3592L21.6244 27.3508L21.6276 27.349C21.9873 27.1435 22.4457 27.2683 22.6512 27.6279ZM11.8255 28.9141C11.9765 28.5284 12.4116 28.3381 12.7973 28.4891C13.0297 28.5801 13.2696 28.6684 13.5131 28.7507C13.9055 28.8833 14.1161 29.309 13.9834 29.7014C13.8508 30.0938 13.4252 30.3043 13.0328 30.1717C12.7643 30.081 12.5022 29.9844 12.2505 29.8859C11.8648 29.7349 11.6745 29.2999 11.8255 28.9141ZM20.1745 28.9141C20.3255 29.2999 20.1352 29.7349 19.7495 29.8859C19.4978 29.9844 19.2357 30.081 18.9673 30.1717C18.5749 30.3043 18.1492 30.0938 18.0166 29.7014C17.8839 29.309 18.0945 28.8833 18.4869 28.7507C18.7304 28.6684 18.9703 28.5801 19.2027 28.4891C19.5884 28.3381 20.0235 28.5284 20.1745 28.9141ZM14.8544 29.9274C14.8858 29.5144 15.2461 29.205 15.6591 29.2365C15.7769 29.2454 15.8906 29.25 16 29.25C16.1094 29.25 16.2231 29.2454 16.3409 29.2365C16.7539 29.205 17.1142 29.5144 17.1456 29.9274C17.1771 30.3404 16.8678 30.7007 16.4547 30.7322C16.3027 30.7437 16.1508 30.75 16 30.75C15.8492 30.75 15.6973 30.7437 15.5453 30.7322C15.1322 30.7007 14.8229 30.3404 14.8544 29.9274Z" fill="white"/>
<path fill-rule="evenodd" clip-rule="evenodd" d="M5.0067 12.6164C4.79811 6.80971 9.47503 2 15.3044 2H16.6956C22.525 2 27.2019 6.8097 26.9933 12.6164L26.993 12.6258L26.8202 16.4347C26.8198 16.4435 26.8193 16.4523 26.8186 16.4611L26.643 18.9052C26.4055 22.2109 24.5764 25.1965 21.7359 26.9222L20.2928 27.799C17.6572 29.4003 14.3428 29.4003 11.7072 27.799L10.2641 26.9222C7.42364 25.1965 5.59448 22.2109 5.35697 18.9052L5.18138 16.4611C5.18075 16.4523 5.18023 16.4435 5.17983 16.4347L5.0067 12.6164ZM7.00525 12.54L7.17718 16.3309L7.35183 18.7619C7.54269 21.4183 9.01288 23.8218 11.3026 25.213L12.7457 26.0898C14.7432 27.3034 17.2568 27.3034 19.2543 26.0898L20.6974 25.213C22.9871 23.8219 24.4573 21.4183 24.6482 18.7619L24.8228 16.3309L24.9948 12.5399C25.1596 7.87885 21.4023 4 16.6956 4H15.3044C10.5977 4 6.84036 7.8789 7.00525 12.54Z" fill="white"/>
</svg>
