<svg width="32" height="32" viewBox="0 0 32 32" fill="none" xmlns="http://www.w3.org/2000/svg">
<path fill-rule="evenodd" clip-rule="evenodd" d="M8.24101 7.59399C7.68945 7.45258 7.10904 7.47105 6.56759 7.64725C6.02614 7.82346 5.54602 8.15011 5.18332 8.58904C4.82062 9.02798 4.59032 9.56107 4.51934 10.126C4.44836 10.691 4.53963 11.2645 4.78247 11.7795C5.02532 12.2945 5.40972 12.7298 5.89075 13.0344C6.36849 13.337 6.92196 13.4984 7.48729 13.5C7.49209 13.5 7.49688 13.5 7.50167 13.5C8.05343 13.5009 8.50018 13.9486 8.5 14.5003C8.49982 15.0521 8.05277 15.4994 7.50101 15.5C7.49578 15.5 7.49055 15.5 7.48532 15.5C6.4809 15.5003 5.49027 15.7343 4.59179 16.1836C3.68942 16.6348 2.90497 17.2906 2.301 18.0987C1.97037 18.541 1.34372 18.6316 0.901338 18.301C0.458957 17.9704 0.368365 17.3437 0.698996 16.9013C1.48952 15.8436 2.51627 14.9853 3.69736 14.3947C3.83891 14.3239 3.98221 14.2573 4.12707 14.1947C3.6462 13.7562 3.25342 13.2261 2.97349 12.6325C2.56875 11.7741 2.41664 10.8183 2.53494 9.8767C2.65325 8.93511 3.03707 8.04663 3.64157 7.31507C4.24606 6.58351 5.04627 6.03909 5.94869 5.74542C6.8511 5.45176 7.81846 5.42097 8.73772 5.65666C9.65699 5.89235 10.4902 6.38478 11.14 7.07642C11.7898 7.76805 12.2293 8.63033 12.4073 9.5625C12.5108 10.105 12.155 10.6287 11.6125 10.7323C11.07 10.8358 10.5463 10.48 10.4427 9.9375C10.336 9.3782 10.0722 8.86083 9.68237 8.44585C9.29249 8.03087 8.79257 7.73541 8.24101 7.59399ZM25.4324 7.64725C24.891 7.47105 24.3106 7.45258 23.759 7.59399C23.2074 7.73541 22.7075 8.03087 22.3176 8.44585C21.9278 8.86083 21.664 9.3782 21.5573 9.9375C21.4537 10.48 20.93 10.8358 20.3875 10.7323C19.845 10.6287 19.4892 10.105 19.5927 9.5625C19.7707 8.63033 20.2102 7.76805 20.86 7.07642C21.5098 6.38478 22.343 5.89235 23.2623 5.65666C24.1815 5.42097 25.1489 5.45176 26.0513 5.74542C26.9537 6.03909 27.7539 6.58351 28.3584 7.31507C28.9629 8.04663 29.3468 8.93511 29.4651 9.8767C29.5834 10.8183 29.4313 11.7741 29.0265 12.6325C28.7466 13.2261 28.3538 13.7562 27.8729 14.1947C28.0178 14.2573 28.1611 14.3239 28.3026 14.3947C29.4837 14.9853 30.5105 15.8436 31.301 16.9013C31.6316 17.3437 31.541 17.9704 31.0987 18.301C30.6563 18.6316 30.0296 18.541 29.699 18.0987C29.095 17.2906 28.3106 16.6348 27.4082 16.1836C26.5097 15.7343 25.5191 15.5003 24.5147 15.5C24.5095 15.5 24.5042 15.5 24.499 15.5C23.9472 15.4994 23.5002 15.0521 23.5 14.5003C23.4998 13.9486 23.9466 13.5009 24.4983 13.5C24.5025 13.5 24.5066 13.5 24.5108 13.5C25.0768 13.4987 25.631 13.3374 26.1093 13.0344C26.5903 12.7298 26.9747 12.2945 27.2175 11.7795C27.4604 11.2645 27.5516 10.691 27.4807 10.126C27.4097 9.56107 27.1794 9.02798 26.8167 8.58904C26.454 8.15011 25.9739 7.82346 25.4324 7.64725ZM16 13.5C13.7909 13.5 12 15.2909 12 17.5C12 19.7091 13.7909 21.5 16 21.5C18.2091 21.5 20 19.7091 20 17.5C20 15.2909 18.2091 13.5 16 13.5ZM10 17.5C10 14.1863 12.6863 11.5 16 11.5C19.3137 11.5 22 14.1863 22 17.5C22 19.4453 21.0743 21.1743 19.6393 22.2707C20.03 22.4431 20.4093 22.6437 20.7742 22.8716C22.206 23.7658 23.3579 25.0443 24.0986 26.5612C24.3409 27.0575 24.1351 27.6563 23.6388 27.8986C23.1425 28.1409 22.5437 27.9351 22.3014 27.4388C21.7251 26.2585 20.8288 25.2637 19.7147 24.5679C18.6006 23.8721 17.3135 23.5032 16 23.5032C14.6865 23.5032 13.3994 23.8721 12.2853 24.5679C11.1712 25.2637 10.2749 26.2585 9.6986 27.4388C9.45627 27.9351 8.85751 28.1409 8.36123 27.8986C7.86494 27.6563 7.65908 27.0575 7.90141 26.5612C8.64212 25.0443 9.79401 23.7658 11.2258 22.8716C11.5907 22.6437 11.97 22.4431 12.3607 22.2707C10.9257 21.1743 10 19.4453 10 17.5Z" fill="white"/>
</svg>
