<svg width="32" height="32" viewBox="0 0 32 32" fill="none" xmlns="http://www.w3.org/2000/svg">
<path fill-rule="evenodd" clip-rule="evenodd" d="M3 8.02974V23.9703C3.03708 23.9854 3.09287 24 3.16667 24H28.8333C28.9071 24 28.9629 23.9854 29 23.9703V8.02974C28.9629 8.0146 28.9071 8 28.8333 8H3.16667C3.09287 8 3.03708 8.0146 3 8.02974ZM1 7.9C1 6.62486 2.22686 6 3.16667 6H28.8333C29.7731 6 31 6.62486 31 7.9V24.1C31 25.3751 29.7731 26 28.8333 26H3.16667C2.22686 26 1 25.3751 1 24.1V7.9Z" fill="white"/>
<path d="M11.1111 12.5C11.1111 12.9832 10.7194 13.375 10.2361 13.375H7.1329C7.1329 13.9 7.10094 14.3583 7.03704 14.75C7.22876 14.5917 7.45643 14.4708 7.72004 14.3875C7.98366 14.2958 8.25526 14.25 8.53486 14.25C9.08606 14.25 9.58533 14.3667 10.0327 14.6C10.48 14.825 10.8355 15.1625 11.0991 15.6125C11.3627 16.0625 11.4946 16.6083 11.4946 17.25C11.4946 17.9 11.3627 18.4708 11.0991 18.9625C10.8435 19.4458 10.472 19.825 9.98475 20.1C9.49746 20.3667 8.91431 20.5 8.23529 20.5C7.38853 20.5 6.66558 20.2792 6.06645 19.8375C5.67742 19.5507 5.39111 19.1761 5.20754 18.7136C5.02608 18.2565 5.3473 17.7851 5.81903 17.6459L5.85164 17.6363C6.31897 17.4984 6.77139 17.839 7.06395 18.2286C7.11038 18.2904 7.16132 18.3476 7.21678 18.4C7.48039 18.6333 7.8199 18.75 8.23529 18.75C8.68264 18.75 9.03813 18.625 9.30174 18.375C9.56536 18.1167 9.69717 17.7833 9.69717 17.375C9.69717 16.9583 9.56137 16.6167 9.28976 16.35C9.02614 16.075 8.67465 15.9375 8.23529 15.9375C7.82214 15.9375 7.49032 16.0532 7.23983 16.2846C6.94238 16.5594 6.56176 16.8006 6.16908 16.7017L6.00627 16.6607C5.50436 16.5343 5.18389 16.0461 5.25117 15.5329C5.32388 14.9783 5.37596 14.4632 5.40741 13.9875C5.43597 13.5555 5.45602 13.1013 5.46756 12.6249C5.48094 12.0728 5.92702 11.625 6.4793 11.625H10.2361C10.7194 11.625 11.1111 12.0168 11.1111 12.5Z" fill="white"/>
<path d="M16.1692 18.5H13.3108C12.7585 18.5 12.3108 18.0523 12.3108 17.5V17.1769C12.3108 16.9042 12.4244 16.6455 12.6123 16.4478C12.9509 16.0916 13.2139 15.7507 13.4012 15.425C13.6408 15 13.7966 14.5667 13.8685 14.125C13.9484 13.675 13.9883 13.1125 13.9883 12.4375C13.9883 11.9888 14.3521 11.625 14.8008 11.625H14.9732C15.4219 11.625 15.7857 11.9888 15.7857 12.4375C15.7857 13.3458 15.6819 14.1458 15.4742 14.8375C15.2665 15.5292 14.891 16.1875 14.3478 16.8125H16.1692V15.2237C16.1692 14.7274 16.5715 14.325 17.0679 14.325C17.5642 14.325 17.9665 14.7274 17.9665 15.2237V16.8125H18.4169C18.8829 16.8125 19.2607 17.1903 19.2607 17.6562C19.2607 18.1222 18.8829 18.5 18.4169 18.5H17.9665V19.4763C17.9665 19.9726 17.5642 20.375 17.0679 20.375C16.5715 20.375 16.1692 19.9726 16.1692 19.4763V18.5Z" fill="white"/>
<path d="M23.4651 20.5C22.7542 20.5 22.1311 20.3167 21.5959 19.95C21.0606 19.5833 20.6492 19.0625 20.3617 18.3875C20.0741 17.7042 19.9303 16.9083 19.9303 16C19.9303 15.0917 20.0741 14.3 20.3617 13.625C20.6492 12.9417 21.0606 12.4167 21.5959 12.05C22.1311 11.6833 22.7542 11.5 23.4651 11.5C24.1761 11.5 24.7992 11.6833 25.3344 12.05C25.8696 12.4167 26.281 12.9417 26.5686 13.625C26.8562 14.3 27 15.0917 27 16C27 16.9083 26.8562 17.7042 26.5686 18.3875C26.281 19.0625 25.8696 19.5833 25.3344 19.95C24.7992 20.3167 24.1761 20.5 23.4651 20.5ZM23.4651 18.8125C24.0163 18.8125 24.4317 18.5625 24.7113 18.0625C24.9989 17.5625 25.1427 16.875 25.1427 16C25.1427 15.125 24.9989 14.4375 24.7113 13.9375C24.4317 13.4375 24.0163 13.1875 23.4651 13.1875C22.9139 13.1875 22.4946 13.4375 22.207 13.9375C21.9274 14.4375 21.7876 15.125 21.7876 16C21.7876 16.875 21.9274 17.5625 22.207 18.0625C22.4946 18.5625 22.9139 18.8125 23.4651 18.8125Z" fill="white"/>
</svg>
