<svg width="32" height="32" viewBox="0 0 32 32" fill="none" xmlns="http://www.w3.org/2000/svg">
<path fill-rule="evenodd" clip-rule="evenodd" d="M9 16C9 15.4477 9.44772 15 10 15H22C22.5523 15 23 15.4477 23 16C23 16.5523 22.5523 17 22 17H10C9.44772 17 9 16.5523 9 16Z" fill="white"/>
<path fill-rule="evenodd" clip-rule="evenodd" d="M16 9C16.5523 9 17 9.44772 17 10V22C17 22.5523 16.5523 23 16 23C15.4477 23 15 22.5523 15 22V10C15 9.44772 15.4477 9 16 9Z" fill="white"/>
<path fill-rule="evenodd" clip-rule="evenodd" d="M21.5 5C21.5 4.44772 21.9477 4 22.5 4H26C26.5304 4 27.0391 4.21071 27.4142 4.58579C27.7893 4.96086 28 5.46957 28 6V9.5C28 10.0523 27.5523 10.5 27 10.5C26.4477 10.5 26 10.0523 26 9.5V6H22.5C21.9477 6 21.5 5.55228 21.5 5Z" fill="white"/>
<path fill-rule="evenodd" clip-rule="evenodd" d="M27 21.5C27.5523 21.5 28 21.9477 28 22.5V26C28 26.5304 27.7893 27.0391 27.4142 27.4142C27.0391 27.7893 26.5304 28 26 28H22.5C21.9477 28 21.5 27.5523 21.5 27C21.5 26.4477 21.9477 26 22.5 26H26V22.5C26 21.9477 26.4477 21.5 27 21.5Z" fill="white"/>
<path fill-rule="evenodd" clip-rule="evenodd" d="M5 21.5C5.55228 21.5 6 21.9477 6 22.5V26H9.5C10.0523 26 10.5 26.4477 10.5 27C10.5 27.5523 10.0523 28 9.5 28H6C5.46957 28 4.96086 27.7893 4.58579 27.4142C4.21071 27.0391 4 26.5304 4 26V22.5C4 21.9477 4.44772 21.5 5 21.5Z" fill="white"/>
<path fill-rule="evenodd" clip-rule="evenodd" d="M4.58579 4.58579C4.96086 4.21071 5.46957 4 6 4H9.5C10.0523 4 10.5 4.44772 10.5 5C10.5 5.55228 10.0523 6 9.5 6H6V9.5C6 10.0523 5.55228 10.5 5 10.5C4.44772 10.5 4 10.0523 4 9.5V6C4 5.46957 4.21071 4.96086 4.58579 4.58579Z" fill="white"/>
</svg>
