<svg width="32" height="32" viewBox="0 0 32 32" fill="none" xmlns="http://www.w3.org/2000/svg">
<path d="M23.5149 2.94025C23.6412 2.43528 24.3588 2.43528 24.4851 2.94026L24.9334 4.73369C24.9749 4.89954 25.0982 5.03271 25.2604 5.08677L26.577 5.52563C27.0328 5.67758 27.0328 6.32236 26.577 6.47431L25.2604 6.91318C25.0982 6.96723 24.9749 7.1004 24.9334 7.26625L24.4851 9.05969C24.3588 9.56466 23.6412 9.56466 23.5149 9.05969L23.0666 7.26625C23.0251 7.1004 22.9018 6.96723 22.7396 6.91318L21.423 6.47431C20.9672 6.32236 20.9672 5.67758 21.423 5.52563L22.7396 5.08677C22.9018 5.03271 23.0251 4.89954 23.0666 4.73369L23.5149 2.94025Z" fill="url(#paint0_linear_407_54145)"/>
<path d="M3.52567 15.423C3.67762 14.9671 4.3224 14.9671 4.47435 15.423L4.93452 16.8035C4.97645 16.9293 5.06664 17.0333 5.18525 17.0926L6.10558 17.5528C6.47411 17.737 6.47411 18.2629 6.10558 18.4472L5.18525 18.9074C5.06664 18.9667 4.97645 19.0706 4.93452 19.1964L4.47435 20.5769C4.3224 21.0328 3.67762 21.0328 3.52567 20.5769L3.0655 19.1964C3.02357 19.0706 2.93337 18.9667 2.81477 18.9074L1.89444 18.4472C1.52591 18.2629 1.52591 17.737 1.89444 17.5528L2.81477 17.0926C2.93337 17.0333 3.02357 16.9293 3.0655 16.8035L3.52567 15.423Z" fill="url(#paint1_linear_407_54145)"/>
<path d="M19.9689 25.2659C19.8077 24.8308 19.1923 24.8308 19.0311 25.2659L18.7394 26.0536C18.6929 26.1792 18.5979 26.2809 18.4757 26.3359L18.0133 26.544C17.6202 26.7209 17.6202 27.279 18.0133 27.4559L18.4757 27.664C18.5979 27.719 18.6929 27.8207 18.7394 27.9463L19.0311 28.734C19.1923 29.1691 19.8077 29.1691 19.9689 28.734L20.2606 27.9463C20.3071 27.8207 20.4021 27.719 20.5243 27.664L20.9868 27.4559C21.3799 27.279 21.3799 26.7209 20.9868 26.544L20.5243 26.3359C20.4021 26.2809 20.3071 26.1792 20.2606 26.0536L19.9689 25.2659Z" fill="url(#paint2_linear_407_54145)"/>
<path fill-rule="evenodd" clip-rule="evenodd" d="M9.93205 3.00046C9.57632 2.99259 9.22492 3.07977 8.91411 3.25301C8.60331 3.42624 8.34435 3.67926 8.16394 3.98596C7.98354 4.29267 7.88822 4.64194 7.88783 4.99777V27C7.88822 27.3558 7.98354 27.7051 8.16394 28.0118C8.34435 28.3185 8.60331 28.5715 8.91411 28.7447C9.22492 28.918 9.57632 29.0051 9.93205 28.9973C10.2869 28.9894 10.6333 28.8873 10.9356 28.7013L10.9378 28.7L28.9168 17.7052C29.2107 17.5297 29.4544 17.2811 29.6241 16.9836C29.7952 16.6836 29.8852 16.3442 29.8852 15.9989C29.8852 15.6535 29.7952 15.3141 29.6241 15.0141C29.4544 14.7166 29.2107 14.4681 28.9168 14.2925L10.9378 3.29777L10.9359 3.29658C10.6335 3.11052 10.287 3.00831 9.93205 3.00046ZM27.8847 15.9921L28.4003 15.1489L27.8913 16.0096L27.889 16.0078L27.8868 16.0051C27.8857 16.0032 27.8852 16.001 27.8852 15.9989C27.8852 15.9967 27.8857 15.9946 27.8868 15.9927C27.8879 15.9908 27.8894 15.9893 27.8912 15.9882L27.8847 15.9921ZM9.88783 4.99998L27.8735 15.9989L9.89112 26.9957L9.88783 26.9978L9.88783 4.99998Z" fill="url(#paint3_linear_407_54145)"/>
<defs>
<linearGradient id="paint0_linear_407_54145" x1="15.7516" y1="2.56152" x2="15.7516" y2="29.0604" gradientUnits="userSpaceOnUse">
<stop stop-color="#7ADAFF"/>
<stop offset="1" stop-color="#36AAFF"/>
</linearGradient>
<linearGradient id="paint1_linear_407_54145" x1="15.7516" y1="2.56152" x2="15.7516" y2="29.0604" gradientUnits="userSpaceOnUse">
<stop stop-color="#7ADAFF"/>
<stop offset="1" stop-color="#36AAFF"/>
</linearGradient>
<linearGradient id="paint2_linear_407_54145" x1="15.7516" y1="2.56152" x2="15.7516" y2="29.0604" gradientUnits="userSpaceOnUse">
<stop stop-color="#7ADAFF"/>
<stop offset="1" stop-color="#36AAFF"/>
</linearGradient>
<linearGradient id="paint3_linear_407_54145" x1="15.7516" y1="2.56152" x2="15.7516" y2="29.0604" gradientUnits="userSpaceOnUse">
<stop stop-color="#7ADAFF"/>
<stop offset="1" stop-color="#36AAFF"/>
</linearGradient>
</defs>
</svg>
