<svg width="32" height="32" viewBox="0 0 32 32" fill="none" xmlns="http://www.w3.org/2000/svg">
<path fill-rule="evenodd" clip-rule="evenodd" d="M13 13C13 10.7909 11.2091 9 9 9C6.79086 9 5 10.7909 5 13V18C5 20.2091 6.79086 22 9 22C11.2091 22 13 20.2091 13 18V13ZM9 11C10.1046 11 11 11.8954 11 13V18C11 19.1046 10.1046 20 9 20C7.89543 20 7 19.1046 7 18V13C7 11.8954 7.89543 11 9 11Z" fill="url(#paint0_linear_407_54209)"/>
<path fill-rule="evenodd" clip-rule="evenodd" d="M9 24C8.44772 24 8 24.4477 8 25V28C8 28.5523 8.44772 29 9 29C9.55228 29 10 28.5523 10 28V25C10 24.4477 9.55228 24 9 24Z" fill="url(#paint1_linear_407_54209)"/>
<path fill-rule="evenodd" clip-rule="evenodd" d="M24 10C24 9.44772 23.5523 9 23 9H16C15.4477 9 15 9.44772 15 10C15 10.5523 15.4477 11 16 11H23C23.5523 11 24 10.5523 24 10Z" fill="url(#paint2_linear_407_54209)"/>
<path fill-rule="evenodd" clip-rule="evenodd" d="M24 14C24 14.5523 23.5523 15 23 15H16C15.4477 15 15 14.5523 15 14C15 13.4477 15.4477 13 16 13H23C23.5523 13 24 13.4477 24 14Z" fill="url(#paint3_linear_407_54209)"/>
<path fill-rule="evenodd" clip-rule="evenodd" d="M24 18C24 17.4477 23.5523 17 23 17H20C19.4477 17 19 17.4477 19 18C19 18.5523 19.4477 19 20 19H23C23.5523 19 24 18.5523 24 18Z" fill="url(#paint4_linear_407_54209)"/>
<path fill-rule="evenodd" clip-rule="evenodd" d="M24 22C24 21.4477 23.5523 21 23 21H20C19.4477 21 19 21.4477 19 22C19 22.5523 19.4477 23 20 23H23C23.5523 23 24 22.5523 24 22Z" fill="url(#paint5_linear_407_54209)"/>
<path fill-rule="evenodd" clip-rule="evenodd" d="M3 17C2.44771 17 2 17.4477 2 18C2 19.8565 2.7375 21.637 4.05025 22.9497C5.36301 24.2625 7.14348 25 9 25C10.8565 25 12.637 24.2625 13.9497 22.9497C15.2625 21.637 16 19.8565 16 18C16 17.4477 15.5523 17 15 17C14.4477 17 14 17.4477 14 18C14 19.3261 13.4732 20.5979 12.5355 21.5355C11.5979 22.4732 10.3261 23 9 23C7.67392 23 6.40215 22.4732 5.46447 21.5355C4.52678 20.5979 4 19.3261 4 18C4 17.4477 3.55229 17 3 17Z" fill="url(#paint6_linear_407_54209)"/>
<path fill-rule="evenodd" clip-rule="evenodd" d="M28 7C28 5.34315 26.6569 4 25 4H14C12.3431 4 11 5.34315 11 7H13C13 6.44772 13.4477 6 14 6H25C25.5523 6 26 6.44772 26 7V24C26 24.5523 25.5523 25 25 25H14C13.4477 25 13 25.4477 13 26C13 26.5523 13.4477 27 14 27H25C26.6569 27 28 25.6569 28 24V7Z" fill="url(#paint7_linear_407_54209)"/>
<path d="M12 8C11.4477 8 11 7.55228 11 7C11 6.44772 11.4477 6 12 6C12.5523 6 13 6.44772 13 7C13 7.55228 12.5523 8 12 8Z" fill="url(#paint8_linear_407_54209)"/>
<defs>
<linearGradient id="paint0_linear_407_54209" x1="15" y1="4" x2="15" y2="29" gradientUnits="userSpaceOnUse">
<stop stop-color="#E1B1FF"/>
<stop offset="1" stop-color="#BA4DFF"/>
</linearGradient>
<linearGradient id="paint1_linear_407_54209" x1="15" y1="4" x2="15" y2="29" gradientUnits="userSpaceOnUse">
<stop stop-color="#E1B1FF"/>
<stop offset="1" stop-color="#BA4DFF"/>
</linearGradient>
<linearGradient id="paint2_linear_407_54209" x1="15" y1="4" x2="15" y2="29" gradientUnits="userSpaceOnUse">
<stop stop-color="#E1B1FF"/>
<stop offset="1" stop-color="#BA4DFF"/>
</linearGradient>
<linearGradient id="paint3_linear_407_54209" x1="15" y1="4" x2="15" y2="29" gradientUnits="userSpaceOnUse">
<stop stop-color="#E1B1FF"/>
<stop offset="1" stop-color="#BA4DFF"/>
</linearGradient>
<linearGradient id="paint4_linear_407_54209" x1="15" y1="4" x2="15" y2="29" gradientUnits="userSpaceOnUse">
<stop stop-color="#E1B1FF"/>
<stop offset="1" stop-color="#BA4DFF"/>
</linearGradient>
<linearGradient id="paint5_linear_407_54209" x1="15" y1="4" x2="15" y2="29" gradientUnits="userSpaceOnUse">
<stop stop-color="#E1B1FF"/>
<stop offset="1" stop-color="#BA4DFF"/>
</linearGradient>
<linearGradient id="paint6_linear_407_54209" x1="15" y1="4" x2="15" y2="29" gradientUnits="userSpaceOnUse">
<stop stop-color="#E1B1FF"/>
<stop offset="1" stop-color="#BA4DFF"/>
</linearGradient>
<linearGradient id="paint7_linear_407_54209" x1="15" y1="4" x2="15" y2="29" gradientUnits="userSpaceOnUse">
<stop stop-color="#E1B1FF"/>
<stop offset="1" stop-color="#BA4DFF"/>
</linearGradient>
<linearGradient id="paint8_linear_407_54209" x1="15" y1="4" x2="15" y2="29" gradientUnits="userSpaceOnUse">
<stop stop-color="#E1B1FF"/>
<stop offset="1" stop-color="#BA4DFF"/>
</linearGradient>
</defs>
</svg>
